<svg fill="none" height="96" width="96" xmlns="http://www.w3.org/2000/svg"><path d="M94 9.5c.8284 0 1.5.6716 1.5 1.5v74c0 .8284-.6716 1.5-1.5 1.5H2c-.8284 0-1.5-.6716-1.5-1.5V11c0-.8284.6716-1.5 1.5-1.5h92z" fill="#fff" stroke="#BFBFBF"/><rect opacity=".4" x="15" y="29" width="12" height="4" rx="1" fill="#444"/><rect opacity=".4" x="15" y="39" width="12" height="4" rx="1" fill="#444"/><rect opacity=".4" x="15" y="47" width="12" height="4" rx="1" fill="#444"/><rect opacity=".4" x="15" y="55" width="12" height="4" rx="1" fill="#444"/><rect opacity=".4" x="15" y="63" width="12" height="4" rx="1" fill="#444"/><rect opacity=".4" x="33" y="29" width="12" height="4" rx="1" fill="#444"/><rect opacity=".2" x="33" y="39" width="12" height="4" rx="1" fill="#444"/><rect opacity=".2" x="33" y="47" width="12" height="4" rx="1" fill="#444"/><rect opacity=".2" x="33" y="55" width="12" height="4" rx="1" fill="#444"/><rect opacity=".2" x="33" y="63" width="12" height="4" rx="1" fill="#444"/><rect opacity=".4" x="51" y="29" width="12" height="4" rx="1" fill="#444"/><rect opacity=".2" x="51" y="39" width="12" height="4" rx="1" fill="#444"/><rect opacity=".2" x="51" y="47" width="12" height="4" rx="1" fill="#444"/><rect opacity=".2" x="51" y="55" width="12" height="4" rx="1" fill="#444"/><rect opacity=".2" x="51" y="63" width="12" height="4" rx="1" fill="#444"/><rect opacity=".4" x="69" y="29" width="12" height="4" rx="1" fill="#444"/><rect opacity=".2" x="69" y="39" width="12" height="4" rx="1" fill="#444"/><rect opacity=".2" x="69" y="47" width="12" height="4" rx="1" fill="#444"/><rect opacity=".2" x="69" y="55" width="12" height="4" rx="1" fill="#444"/><rect opacity=".2" x="69" y="63" width="12" height="4" rx="1" fill="#444"/><path opacity=".2" fill-rule="evenodd" clip-rule="evenodd" d="M67 27h16v8H67v-8zm-2 0H49v8h16v-8zm-18 0H31v8h16v-8zm-18 0H13v8h16v-8zM13 37v32h16V37H13zm18 32h52V37H31v32zM11 27c0-1.1046.8954-2 2-2h70c1.1046 0 2 .8954 2 2v42c0 1.1046-.8954 2-2 2H13c-1.1046 0-2-.8954-2-2V27z" fill="#444"/></svg>