<svg width="100" height="127" fill="none" xmlns="http://www.w3.org/2000/svg"><path d="M95 23v96c0 .796-.3161 1.559-.8787 2.121A2.9987 2.9987 0 0192 122H8a2.9987 2.9987 0 01-2.1213-.879A2.9976 2.9976 0 015 119V8a3 3 0 013-3h69l18 18z" fill="#DD682B"/><path opacity=".2" d="M95 23H80a3 3 0 01-3-3V5l18 18z" fill="#000"/><path d="M37.2146 109.465h.5977c.5585 0 .9765-.11 1.2539-.328.2773-.223.416-.545.416-.967 0-.426-.1172-.74-.3516-.943-.2305-.204-.5937-.305-1.0898-.305h-.8262v2.543zm4.1016-1.36c0 .922-.2891 1.627-.8672 2.116-.5742.488-1.3926.732-2.4551.732h-.7793V114h-1.8164v-8.566h2.7363c1.0391 0 1.8281.224 2.3672.673.543.446.8145 1.112.8145 1.998zm3.4336 1.36h.5976c.5586 0 .9766-.11 1.2539-.328.2774-.223.416-.545.416-.967 0-.426-.1172-.74-.3515-.943-.2305-.204-.5938-.305-1.0899-.305h-.8261v2.543zm4.1015-1.36c0 .922-.289 1.627-.8672 2.116-.5742.488-1.3925.732-2.455.732h-.7793V114h-1.8165v-8.566h2.7364c1.039 0 1.8281.224 2.3672.673.5429.446.8144 1.112.8144 1.998zM53.7732 114h-1.8164v-7.055h-2.3262v-1.511h6.4688v1.511h-2.3262V114zm7.2715 0l-2.0625-6.721h-.0528c.0743 1.367.1114 2.28.1114 2.737V114h-1.6231v-8.566h2.4727l2.0273 6.55h.0352l2.1504-6.55h2.4726V114h-1.6933v-4.055c0-.191.0019-.412.0058-.662.0078-.25.0352-.914.0821-1.992h-.0528L62.7087 114h-1.664zM50 69a15.9999 15.9999 0 0016-16H50V37a15.9999 15.9999 0 00-11.3137 27.3137A15.9999 15.9999 0 0050 69z" fill="#fff"/><path d="M53 34v16h16a15.9999 15.9999 0 00-16-16zM75 89H25v2h50v-2zM75 83H25v2h50v-2zM75 77H25v2h50v-2zM15 17c0-1.1046.8954-2 2-2h12c1.1046 0 2 .8954 2 2v9c0 1.1046-.8954 2-2 2H17c-1.1046 0-2-.8954-2-2v-9z" fill="#fff"/><path d="M22.2969 26l-2.4844-7.1543h-.0469c.0664 1.0625.0996 2.0586.0996 2.9883V26h-1.2714v-8.5664h1.9746l2.3789 6.8144h.0351l2.4492-6.8144h1.9805V26h-1.3476v-4.2363c0-.4258.0097-.9805.0293-1.6641.0234-.6836.0429-1.0976.0585-1.2422h-.0468L23.5332 26h-1.2363z" fill="#DD682B"/></svg>