<svg xmlns="http://www.w3.org/2000/svg" width="100" height="127"><path d="M95 23v96c0 1.7-1.3 3-3 3H8c-1.7 0-3-1.3-3-3V8c0-1.7 1.3-3 3-3h69l18 18z" fill="#635E9B"/><path opacity=".2" d="M95 23H80c-1.7 0-3-1.3-3-3V5l18 18z"/><path d="M75 39H50v2h25v-2zM75 45H50v2h25v-2zM75 51H50v2h25v-2zM75 57H50v2h25v-2zM75 63H26v2h49v-2zM75 69H26v2h49v-2zM75 75H26v2h49v-2zM75 81H26v2h49v-2zM75 87H26v2h49v-2zM46 39H26v20h20V39zM41.8945 109.236h.586c.5742 0 .998-.095 1.2715-.287.2734-.191.4101-.492.4101-.902 0-.406-.1406-.695-.4219-.867-.2773-.172-.709-.258-1.2949-.258h-.5508v2.314zm0 1.477V114h-1.8164v-8.566h2.4961c1.1641 0 2.0254.212 2.584.638.5586.422.8379 1.065.8379 1.928 0 .504-.1387.953-.416 1.348-.2774.39-.6699.697-1.1778.92 1.2891 1.925 2.1289 3.17 2.5196 3.732h-2.0157l-2.0449-3.287h-.9668zM51.3047 114h-1.8164v-7.055h-2.3262v-1.511h6.4688v1.511h-2.3262V114zm5.4316 0h-1.7871v-8.566h4.9102v1.488h-3.1231v2.209h2.9063v1.482h-2.9063V114z" fill="#fff"/></svg>