<svg width="100" height="127" fill="none" xmlns="http://www.w3.org/2000/svg"><symbol id="svg-format-svg"><path d="M95 23v96c0 .796-.3161 1.559-.8787 2.121A2.9987 2.9987 0 0192 122H8a2.9987 2.9987 0 01-2.1213-.879A2.9976 2.9976 0 015 119V8a3 3 0 013-3h69l18 18z" fill="#507C8B"/><g fill="#fff"><path d="M44.5801 111.621c0 .774-.2793 1.383-.8379 1.828-.5547.446-1.3281.668-2.3203.668-.9141 0-1.7227-.172-2.4258-.515v-1.688c.5781.258 1.0664.44 1.4648.545.4024.105.7696.158 1.1016.158.3984 0 .7031-.076.9141-.228.2148-.153.3222-.379.3222-.68 0-.168-.0468-.316-.1406-.445-.0937-.133-.2324-.26-.416-.381-.1797-.121-.5488-.315-1.1074-.58-.5235-.246-.916-.483-1.1778-.709-.2617-.227-.4707-.49-.6269-.791-.1563-.301-.2344-.653-.2344-1.055 0-.758.2559-1.353.7676-1.787.5156-.434 1.2265-.65 2.1328-.65.4453 0 .8691.052 1.2715.158.4062.105.8301.254 1.2715.445l-.586 1.412c-.457-.187-.8359-.318-1.1367-.392-.2969-.075-.5898-.112-.8789-.112-.3437 0-.6074.08-.791.24-.1836.161-.2754.37-.2754.627 0 .161.0371.301.1113.422.0742.118.1914.233.3516.346.164.109.5488.309 1.1543.598.8008.383 1.3496.767 1.6465 1.154.2968.383.4453.853.4453 1.412zM51.0195 105.434h1.834L49.9414 114h-1.9805l-2.9062-8.566h1.834l1.6113 5.097c.0898.301.1816.653.2754 1.055.0976.398.1582.676.1816.832.043-.359.1895-.988.4395-1.887l1.623-5.097zM57.1895 109.189h3.3984v4.442c-.5508.18-1.0703.305-1.5586.375a9.8426 9.8426 0 01-1.4883.111c-1.293 0-2.2812-.379-2.9648-1.137-.6797-.761-1.0196-1.853-1.0196-3.275 0-1.383.3946-2.461 1.1836-3.234.793-.774 1.8907-1.16 3.293-1.16.8789 0 1.7266.175 2.543.527l-.6035 1.453c-.625-.312-1.2754-.469-1.9512-.469-.7852 0-1.4141.264-1.8867.791-.4727.528-.709 1.237-.709 2.127 0 .93.1894 1.641.5683 2.133.3829.488.9375.732 1.6641.732.3789 0 .7637-.039 1.1543-.117v-1.787h-1.623v-1.512z"/></g><path d="M51 58.917c2.8377-.476 5-2.944 5-5.917 0-3.3137-2.6863-6-6-6s-6 2.6863-6 6c0 2.973 2.1623 5.441 5 5.917v12.6688l-9.1092-9.1093C40.5892 61.4957 41 60.2958 41 59c0-3.3137-2.6863-6-6-6s-6 2.6863-6 6 2.6863 6 6 6c1.2958 0 2.4957-.4108 3.4766-1.1093L48.5858 74H36.917c-.476-2.8377-2.944-5-5.917-5-3.3137 0-6 2.6863-6 6 0 .3407.0284.6748.083 1h49.834A6.0363 6.0363 0 0075 75c0-3.3137-2.6863-6-6-6-2.973 0-5.441 2.1623-5.917 5H51.5563l10.0508-10.0508C62.5721 64.6121 63.7408 65 65 65c3.3137 0 6-2.6863 6-6s-2.6863-6-6-6-6 2.6863-6 6c0 1.3323.4343 2.5633 1.169 3.5589L51 71.7279V58.917z" fill="#fff"/><path opacity=".2" d="M95 23H80a3 3 0 01-3-3V5l18 18z" fill="#000"/></symbol></svg>