<svg fill="none" height="96" width="96" xmlns="http://www.w3.org/2000/svg"><path d="M85 95.5H11c-.8284 0-1.5-.6716-1.5-1.5V2c0-.8284.6716-1.5 1.5-1.5h74c.8284 0 1.5.6716 1.5 1.5v92c0 .8284-.6716 1.5-1.5 1.5z" fill="#fff" stroke="#bfbfbf"/><g fill="#444"><rect height="4" opacity=".2" rx="1" width="46" x="25" y="32"/><rect height="6" opacity=".4" rx="1" width="46" x="25" y="20"/><rect height="20" opacity=".2" rx="1" width="16" x="55" y="40"/><rect height="4" opacity=".2" rx="1" width="26" x="25" y="40"/><rect height="4" opacity=".2" rx="1" width="26" x="25" y="48"/><rect height="4" opacity=".2" rx="1" width="26" x="25" y="56"/><rect height="4" opacity=".2" rx="1" width="46" x="25" y="64"/><rect height="4" opacity=".2" rx="1" width="46" x="25" y="72"/></g></svg>