<svg style="position:absolute;width:0;height:0" xmlns="http://www.w3.org/2000/svg" overflow="hidden"><symbol id="svg-icon-Point" viewBox="0 0 20 28"><g id="Point"><path id="Ellipse 121 (Stroke)" fill-rule="evenodd" clip-rule="evenodd" d="M9.5 17c1.3807 0 2.5-1.1193 2.5-2.5S10.8807 12 9.5 12 7 13.1193 7 14.5 8.1193 17 9.5 17zm0 1c1.933 0 3.5-1.567 3.5-3.5S11.433 11 9.5 11 6 12.567 6 14.5 7.567 18 9.5 18z"/></g></symbol><symbol id="svg-icon-StartPoint" viewBox="20 0 20 28"><g id="StartPoint"><path id="Union" fill-rule="evenodd" clip-rule="evenodd" d="M32 14.5c0 1.3807-1.1193 2.5-2.5 2.5S27 15.8807 27 14.5s1.1193-2.5 2.5-2.5 2.5 1.1193 2.5 2.5zm1 0c0 1.933-1.567 3.5-3.5 3.5S26 16.433 26 14.5s1.567-3.5 3.5-3.5 3.5 1.567 3.5 3.5zM29.5 18h.5v2h-1v-2h.5zm.5 4v2h-1v-2h1zm0 6v-2h-1v2h1z"/></g></symbol><symbol id="svg-icon-MiddlePoint" viewBox="40 0 20 28"><g id="MiddlePoint"><path id="Union_2" fill-rule="evenodd" clip-rule="evenodd" d="M49 2h1v2h-1V2zm.5 15c1.3807 0 2.5-1.1193 2.5-2.5S50.8807 12 49.5 12 47 13.1193 47 14.5s1.1193 2.5 2.5 2.5zm0 1c1.933 0 3.5-1.567 3.5-3.5S51.433 11 49.5 11h.5v-1h-1v1h.5c-1.933 0-3.5 1.567-3.5 3.5s1.567 3.5 3.5 3.5zm0 0H49v2h1v-2h-.5zM50 6h-1v2h1V6zm0 16v2h-1v-2h1zm0 6v-2h-1v2h1z"/></g></symbol><symbol id="svg-icon-EndPoint" viewBox="60 0 20 28"><g id="EndPoint"><path id="Union_3" fill-rule="evenodd" clip-rule="evenodd" d="M70 2h-1v2h1V2zm2 12.5c0 1.3807-1.1193 2.5-2.5 2.5S67 15.8807 67 14.5s1.1193-2.5 2.5-2.5 2.5 1.1193 2.5 2.5zm1 0c0 1.933-1.567 3.5-3.5 3.5S66 16.433 66 14.5s1.567-3.5 3.5-3.5 3.5 1.567 3.5 3.5zM69.5 11H69v-1h1v1h-.5zM69 6h1v2h-1V6z"/></g></symbol></svg>