<?xml version="1.0" encoding="UTF-8" standalone="no"?>
<svg
   xmlns:dc="http://purl.org/dc/elements/1.1/"
   xmlns:cc="http://creativecommons.org/ns#"
   xmlns:rdf="http://www.w3.org/1999/02/22-rdf-syntax-ns#"
   xmlns:svg="http://www.w3.org/2000/svg"
   xmlns="http://www.w3.org/2000/svg"
   xmlns:sodipodi="http://sodipodi.sourceforge.net/DTD/sodipodi-0.dtd"
   xmlns:inkscape="http://www.inkscape.org/namespaces/inkscape"
   inkscape:version="1.0.1 (1.0.1+r73)"
   sodipodi:docname="email.svg"
   xml:space="preserve"
   style="enable-background:new 0 0 24 24;"
   viewBox="0 0 24 24"
   y="0px"
   x="0px"
   id="Layer_1"
   version="1.1"><metadata
   id="metadata2113"><rdf:RDF><cc:Work
       rdf:about=""><dc:format>image/svg+xml</dc:format><dc:type
         rdf:resource="http://purl.org/dc/dcmitype/StillImage" /><dc:title></dc:title></cc:Work></rdf:RDF></metadata><defs
   id="defs2111" /><sodipodi:namedview
   inkscape:current-layer="Layer_1"
   inkscape:window-maximized="0"
   inkscape:window-y="10"
   inkscape:window-x="10"
   inkscape:cy="8.0500806"
   inkscape:cx="5.6271235"
   inkscape:zoom="13.12567"
   showgrid="false"
   id="namedview2109"
   inkscape:window-height="1036"
   inkscape:window-width="1900"
   inkscape:pageshadow="2"
   inkscape:pageopacity="0"
   guidetolerance="10"
   gridtolerance="10"
   objecttolerance="10"
   borderopacity="1"
   bordercolor="#666666"
   pagecolor="#ffffff"
   inkscape:document-rotation="0" />
<style
   id="style2090"
   type="text/css">
	.st0{fill:url(#SVGID_1_);}
	.st1{fill:url(#SVGID_2_);}
</style>

<g
   aria-label=""
   id="text2705"
   style="font-size:40px;line-height:1.25;font-family:sans-serif;word-spacing:0px;fill:#0087ff;fill-opacity:1"
   transform="matrix(0.56948741,0,0,0.56948741,6.2252227,21.677055)"><path
     d="m 27.283165,-4.8497141 c 0,0.3794642 -0.334822,0.7142857 -0.714286,0.7142857 H -6.288264 c -0.3794643,0 -0.7142857,-0.3348215 -0.7142857,-0.7142857 V -21.992571 c 0.46875,0.535714 0.9821428,1.026785 1.5401786,1.473214 3.1919642,2.455357 6.40624996,4.955357 9.5089285,7.544643 1.6741072,1.40625 3.75,3.1249999 6.0714286,3.1249999 h 0.02232 0.02232 c 2.321428,0 4.397321,-1.7187499 6.071428,-3.1249999 3.102679,-2.589286 6.316965,-5.089286 9.508929,-7.544643 0.558036,-0.446429 1.071429,-0.9375 1.540179,-1.473214 z m 0,-23.4598219 c 0,1.897322 -1.830358,4.375 -3.28125,5.513393 -2.991072,2.34375 -5.982143,4.709822 -8.950893,7.075893 -1.183036,0.959822 -3.325893,3.013393 -4.888393,3.013393 h -0.02232 -0.02232 c -1.5625,0 -3.7053571,-2.053571 -4.8883929,-3.013393 -2.96875,-2.366071 -5.95982139,-4.732143 -8.9508928,-7.075893 -2.0089286,-1.584821 -3.28125,-3.794643 -3.28125,-6.339285 0,-0.379465 0.3348214,-0.714286 0.7142857,-0.714286 h 32.857143 c 0.848214,0 0.714286,0.982143 0.714286,1.540178 z m 2.857142,-0.825892 c 0,-1.964286 -1.607142,-3.571429 -3.571428,-3.571429 H -6.288264 c -1.9642857,0 -3.5714286,1.607143 -3.5714286,3.571429 v 24.2857139 c 0,1.9642857 1.6071429,3.5714285 3.5714286,3.5714285 h 32.857143 c 1.964286,0 3.571428,-1.6071428 3.571428,-3.5714285 z"
     style="font-style:normal;font-variant:normal;font-weight:normal;font-stretch:normal;font-size:40px;font-family:FontAwesome;-inkscape-font-specification:'FontAwesome, Normal';font-variant-ligatures:normal;font-variant-caps:normal;font-variant-numeric:normal;font-variant-east-asian:normal;fill:#0087ff;fill-opacity:1"
     id="path2707" /></g><text
   xml:space="preserve"
   style="font-size:40px;line-height:1.25;font-family:sans-serif;word-spacing:0px"
   x="-87.418335"
   y="-71.769234"
   id="text2712"><tspan
     sodipodi:role="line"
     id="tspan2710"
     x="-87.418335"
     y="-71.769234" /></text></svg>
