<?xml version="1.0" encoding="utf-8"?>
<!-- Generator: Adobe Illustrator 21.1.0, SVG Export Plug-In . SVG Version: 6.00 Build 0)  -->
<svg version="1.1" id="Layer_1" xmlns="http://www.w3.org/2000/svg" xmlns:xlink="http://www.w3.org/1999/xlink" x="0px" y="0px"
	 viewBox="0 0 24 24" style="enable-background:new 0 0 24 24;" xml:space="preserve">
<style type="text/css">
	.st0{fill:url(#SVGID_1_);}
	.st1{fill:url(#SVGID_2_);}
</style>
<g>
	<linearGradient id="SVGID_1_" gradientUnits="userSpaceOnUse" x1="0.9122" y1="8.1983" x2="23.1969" y2="8.1983">
		<stop  offset="0" style="stop-color:#4592C4"/>
		<stop  offset="1" style="stop-color:#545ACD"/>
	</linearGradient>
	<path class="st0" d="M1.6,6.1c0.6,0.3,9,4.9,9.3,5c0.3,0.2,0.6,0.2,1.1,0.2c0.5,0,0.8-0.1,1.1-0.2c0.3-0.2,8.7-4.7,9.3-5
		c0.2-0.1,0.6-0.3,0.7-0.6c0.1-0.4,0-0.6-0.6-0.6H12.1H1.6C1,5,0.8,5.2,1,5.6C1,5.8,1.4,6,1.6,6.1z"/>
	<linearGradient id="SVGID_2_" gradientUnits="userSpaceOnUse" x1="0.6056" y1="12.6427" x2="23.3944" y2="12.6427">
		<stop  offset="0" style="stop-color:#4592C4"/>
		<stop  offset="1" style="stop-color:#545ACD"/>
	</linearGradient>
	<path class="st1" d="M22.9,6.4c-0.4,0.2-4.5,3.1-7.1,4.8l4.5,5.1c0.1,0.1,0.2,0.2,0.1,0.3c-0.1,0.1-0.2,0-0.3-0.1l-5.4-4.6
		c-0.8,0.5-1.4,0.9-1.5,0.9c-0.4,0.2-0.7,0.2-1.1,0.2c-0.4,0-0.7,0-1.1-0.2c-0.1-0.1-0.7-0.4-1.5-0.9L4,16.5
		c-0.1,0.1-0.3,0.1-0.3,0.1c-0.1-0.1,0-0.2,0.1-0.3l4.5-5.1C5.6,9.5,1.6,6.6,1.1,6.4c-0.5-0.2-0.5,0-0.5,0.3c0,0.2,0,11.2,0,11.2
		c0,0.5,0.8,1.1,1.3,1.1h10.2h10.2c0.5,0,1.2-0.6,1.2-1.1c0,0,0-11,0-11.2C23.4,6.4,23.4,6.1,22.9,6.4z"/>
</g>
</svg>
