<?xml version="1.0" encoding="UTF-8" standalone="no"?>
<svg
   viewBox="0 -256 1850 1850"
   id="svg3013"
   version="1.1"
   inkscape:version="1.4.1 (93de688d07, 2025-03-30)"
   width="100%"
   height="100%"
   sodipodi:docname="forum.svg"
   xmlns:inkscape="http://www.inkscape.org/namespaces/inkscape"
   xmlns:sodipodi="http://sodipodi.sourceforge.net/DTD/sodipodi-0.dtd"
   xmlns="http://www.w3.org/2000/svg"
   xmlns:svg="http://www.w3.org/2000/svg"
   xmlns:rdf="http://www.w3.org/1999/02/22-rdf-syntax-ns#"
   xmlns:cc="http://creativecommons.org/ns#"
   xmlns:dc="http://purl.org/dc/elements/1.1/">
  <metadata
     id="metadata3023">
    <rdf:RDF>
      <cc:Work
         rdf:about="">
        <dc:format>image/svg+xml</dc:format>
        <dc:type
           rdf:resource="http://purl.org/dc/dcmitype/StillImage" />
      </cc:Work>
    </rdf:RDF>
  </metadata>
  <defs
     id="defs3021" />
  <sodipodi:namedview
     pagecolor="#ffffff"
     bordercolor="#666666"
     borderopacity="1"
     objecttolerance="10"
     gridtolerance="10"
     guidetolerance="10"
     inkscape:pageopacity="0"
     inkscape:pageshadow="2"
     inkscape:window-width="2560"
     inkscape:window-height="1403"
     id="namedview3019"
     showgrid="false"
     inkscape:zoom="0.26081081"
     inkscape:cx="-486.943"
     inkscape:cy="498.4456"
     inkscape:window-x="0"
     inkscape:window-y="0"
     inkscape:window-maximized="0"
     inkscape:current-layer="svg3013"
     inkscape:showpageshadow="2"
     inkscape:pagecheckerboard="0"
     inkscape:deskcolor="#d1d1d1" />
  <g
     transform="matrix(1,0,0,-1,37.966102,1305.4576)"
     id="g3015"
     style="fill:#0087ff;fill-opacity:1">
    <path
       d="m 1664,896 q 53,0 90.5,-37.5 Q 1792,821 1792,768 1792,715 1754.5,677.5 1717,640 1664,640 V 256 q 0,-52 -38,-90 -38,-38 -90,-38 -417,347 -812,380 -58,-19 -91,-66 -33,-47 -31,-100.5 2,-53.5 40,-92.5 -20,-33 -23,-65.5 -3,-32.5 6,-58 9,-25.5 33.5,-55 Q 683,41 706.5,20.5 730,0 768,-30 739,-88 656.5,-113 574,-138 488,-124.5 402,-111 356,-69 349,-46 326.5,18.5 304,83 294.5,113 q -9.5,30 -23,89 -13.5,59 -15,101 -1.5,42 3.5,98.5 5,56.5 22,110.5 H 160 Q 94,512 47,559 0,606 0,672 v 192 q 0,66 47,113 47,47 113,47 h 480 q 435,0 896,384 52,0 90,-38 38,-38 38,-90 V 896 z M 1536,292 v 954 Q 1142,944 768,903 V 633 q 377,-42 768,-341 z"
       id="path3017"
       inkscape:connector-curvature="0"
       style="fill:#0087ff;fill-opacity:1" />
  </g>
</svg>
