<?xml version="1.0" encoding="utf-8"?>
<!-- Generator: Adobe Illustrator 21.1.0, SVG Export Plug-In . SVG Version: 6.00 Build 0)  -->
<svg version="1.1" id="Layer_1" xmlns="http://www.w3.org/2000/svg" xmlns:xlink="http://www.w3.org/1999/xlink" x="0px" y="0px"
	 viewBox="0 0 24 24" style="enable-background:new 0 0 24 24;" xml:space="preserve">
<style type="text/css">
	.st0{fill:url(#Shape_1_);}
</style>
<g id="Octicons">
	<g id="mark-github">
		<linearGradient id="Shape_1_" gradientUnits="userSpaceOnUse" x1="1.0181" y1="12" x2="22.9819" y2="12">
			<stop  offset="0" style="stop-color:#4592C4"/>
			<stop  offset="1" style="stop-color:#545ACD"/>
		</linearGradient>
		<path id="Shape" class="st0" d="M12,1.3c-6.1,0-11,4.9-11,11c0,4.9,3.1,9,7.5,10.4c0.5,0.1,0.8-0.2,0.8-0.5c0-0.3,0-1.1,0-2
			c-2.8,0.5-3.5-0.7-3.7-1.3c-0.1-0.3-0.7-1.3-1.1-1.6c-0.4-0.2-0.9-0.7,0-0.7c0.9,0,1.5,0.8,1.7,1.1c1,1.7,2.6,1.2,3.2,0.9
			c0.1-0.7,0.4-1.2,0.7-1.5c-2.4-0.3-5-1.2-5-5.4c0-1.2,0.4-2.2,1.1-3C6,8.5,5.7,7.3,6.3,5.8c0,0,0.9-0.3,3,1.1
			c0.9-0.2,1.8-0.4,2.7-0.4c0.9,0,1.9,0.1,2.7,0.4c2.1-1.4,3-1.1,3-1.1c0.6,1.5,0.2,2.6,0.1,2.9c0.7,0.8,1.1,1.7,1.1,3
			c0,4.2-2.6,5.1-5,5.4c0.4,0.3,0.7,1,0.7,2c0,1.5,0,2.6,0,3c0,0.3,0.2,0.6,0.8,0.5c4.3-1.5,7.5-5.6,7.5-10.4
			C23,6.2,18.1,1.3,12,1.3L12,1.3z"/>
	</g>
</g>
</svg>
