<?xml version="1.0" encoding="utf-8"?>
<!-- Generator: Adobe Illustrator 21.1.0, SVG Export Plug-In . SVG Version: 6.00 Build 0)  -->
<svg version="1.1" id="Layer_1" xmlns="http://www.w3.org/2000/svg" xmlns:xlink="http://www.w3.org/1999/xlink" x="0px" y="0px"
	 viewBox="0 0 24 24" style="enable-background:new 0 0 24 24;" xml:space="preserve">
<style type="text/css">
	.st0{fill:url(#SVGID_1_);}
</style>
<linearGradient id="SVGID_1_" gradientUnits="userSpaceOnUse" x1="0.4529" y1="12" x2="23.5471" y2="12">
	<stop  offset="0" style="stop-color:#4592C4"/>
	<stop  offset="1" style="stop-color:#545ACD"/>
</linearGradient>
<path class="st0" d="M12,22.7c1.6,0,3.1-0.3,4.5-0.9c0,0,0.1,0,0.1,0c0,0,0,0,0,0c0.2-0.1,0.4-0.1,0.6-0.1c0.2,0,0.5,0,0.7,0.1
	l4.7,1.7l-1.2-4.9c0-0.3,0.1-0.6,0.2-0.8l0,0c0-0.1,0.1-0.1,0.1-0.2c1.2-1.7,1.8-3.8,1.8-6c0-6.2-5.2-11.2-11.5-11.2
	S0.5,5.4,0.5,11.6C0.5,17.8,5.6,22.7,12,22.7z M17.3,10.2c1,0,1.8,0.8,1.8,1.8s-0.8,1.8-1.8,1.8c-1,0-1.8-0.8-1.8-1.8
	S16.4,10.2,17.3,10.2z M12,10.2c1,0,1.8,0.8,1.8,1.8S13,13.8,12,13.8S10.2,13,10.2,12S11,10.2,12,10.2z M6.7,10.2
	c1,0,1.8,0.8,1.8,1.8s-0.8,1.8-1.8,1.8S4.9,13,4.9,12S5.7,10.2,6.7,10.2z"/>
</svg>
