<?xml version="1.0" encoding="UTF-8" standalone="no"?>
<svg
   xmlns:dc="http://purl.org/dc/elements/1.1/"
   xmlns:cc="http://creativecommons.org/ns#"
   xmlns:rdf="http://www.w3.org/1999/02/22-rdf-syntax-ns#"
   xmlns:svg="http://www.w3.org/2000/svg"
   xmlns="http://www.w3.org/2000/svg"
   xmlns:sodipodi="http://sodipodi.sourceforge.net/DTD/sodipodi-0.dtd"
   xmlns:inkscape="http://www.inkscape.org/namespaces/inkscape"
   inkscape:version="1.0.1 (1.0.1+r73)"
   sodipodi:docname="twiitter.svg"
   xml:space="preserve"
   style="enable-background:new 0 0 24 24;"
   viewBox="0 0 24 24"
   y="0px"
   x="0px"
   id="Layer_1"
   version="1.1"><metadata
   id="metadata1416"><rdf:RDF><cc:Work
       rdf:about=""><dc:format>image/svg+xml</dc:format><dc:type
         rdf:resource="http://purl.org/dc/dcmitype/StillImage" /><dc:title></dc:title></cc:Work></rdf:RDF></metadata><defs
   id="defs1414" /><sodipodi:namedview
   inkscape:current-layer="Layer_1"
   inkscape:window-maximized="0"
   inkscape:window-y="10"
   inkscape:window-x="10"
   inkscape:cy="14.107333"
   inkscape:cx="-5.7258526"
   inkscape:zoom="17.645834"
   showgrid="false"
   id="namedview1412"
   inkscape:window-height="1036"
   inkscape:window-width="1900"
   inkscape:pageshadow="2"
   inkscape:pageopacity="0"
   guidetolerance="10"
   gridtolerance="10"
   objecttolerance="10"
   borderopacity="1"
   bordercolor="#666666"
   pagecolor="#ffffff"
   inkscape:document-rotation="0" />
<style
   id="style1402"
   type="text/css">
	.st0{fill:url(#SVGID_1_);}
</style>
<linearGradient
   y2="12"
   x2="23.6009"
   y1="12"
   x1="0.3991"
   gradientUnits="userSpaceOnUse"
   id="SVGID_1_">
	<stop
   id="stop1404"
   style="stop-color:#4592C4"
   offset="0" />
	<stop
   id="stop1406"
   style="stop-color:#545ACD"
   offset="1" />
</linearGradient>
<path
   style="fill:#0087ff;fill-opacity:1"
   id="path1409"
   d="M23.6,4.8c-0.9,0.4-1.8,0.6-2.7,0.8C21.9,5,22.6,4,23,2.9c-0.9,0.5-1.9,0.9-3,1.2c-0.9-0.9-2.1-1.5-3.5-1.5  c-2.6,0-4.8,2.1-4.8,4.8c0,0.4,0,0.7,0.1,1.1c-4-0.2-7.5-2.1-9.8-5C1.6,4.1,1.4,5,1.4,5.8c0,1.7,0.8,3.1,2.1,4  C2.7,9.8,2,9.6,1.3,9.2c0,0,0,0,0,0.1c0,2.3,1.6,4.2,3.8,4.7c-0.4,0.1-0.8,0.2-1.3,0.2c-0.3,0-0.6,0-0.9-0.1  c0.6,1.9,2.4,3.3,4.4,3.3c-1.6,1.3-3.7,2-5.9,2c-0.4,0-0.8,0-1.1-0.1c2.1,1.4,4.6,2.2,7.3,2.2c8.8,0,13.6-7.3,13.6-13.6  c0-0.2,0-0.4,0-0.6C22.2,6.6,23,5.8,23.6,4.8z"
   class="st0" />
</svg>
