<?xml version="1.0" encoding="utf-8"?>
<!-- Generator: Adobe Illustrator 21.1.0, SVG Export Plug-In . SVG Version: 6.00 Build 0)  -->
<svg version="1.1" id="Layer_1" xmlns="http://www.w3.org/2000/svg" xmlns:xlink="http://www.w3.org/1999/xlink" x="0px" y="0px"
	 viewBox="0 0 24 24" style="enable-background:new 0 0 24 24;" xml:space="preserve">
<style type="text/css">
	.st0{fill:url(#SVGID_1_);}
</style>
<linearGradient id="SVGID_1_" gradientUnits="userSpaceOnUse" x1="0.3991" y1="12" x2="23.6009" y2="12">
	<stop  offset="0" style="stop-color:#4592C4"/>
	<stop  offset="1" style="stop-color:#545ACD"/>
</linearGradient>
<path class="st0" d="M23.6,4.8c-0.9,0.4-1.8,0.6-2.7,0.8C21.9,5,22.6,4,23,2.9c-0.9,0.5-1.9,0.9-3,1.2c-0.9-0.9-2.1-1.5-3.5-1.5
	c-2.6,0-4.8,2.1-4.8,4.8c0,0.4,0,0.7,0.1,1.1c-4-0.2-7.5-2.1-9.8-5C1.6,4.1,1.4,5,1.4,5.8c0,1.7,0.8,3.1,2.1,4
	C2.7,9.8,2,9.6,1.3,9.2c0,0,0,0,0,0.1c0,2.3,1.6,4.2,3.8,4.7c-0.4,0.1-0.8,0.2-1.3,0.2c-0.3,0-0.6,0-0.9-0.1
	c0.6,1.9,2.4,3.3,4.4,3.3c-1.6,1.3-3.7,2-5.9,2c-0.4,0-0.8,0-1.1-0.1c2.1,1.4,4.6,2.2,7.3,2.2c8.8,0,13.6-7.3,13.6-13.6
	c0-0.2,0-0.4,0-0.6C22.2,6.6,23,5.8,23.6,4.8z"/>
</svg>
