<svg xmlns="http://www.w3.org/2000/svg" height="121.477" width="462.395"><path d="M127.704 81.639c-3.028 0-5.552-.252-7.571-.757-2.02-.505-3.635-1.312-4.846-2.423-1.212-1.11-2.07-2.564-2.575-4.361-.506-1.798-.758-4.01-.758-6.634V54.502c0-2.585.252-4.786.758-6.603.505-1.817 1.363-3.281 2.575-4.392 1.211-1.111 2.826-1.919 4.846-2.424 2.02-.504 4.543-.757 7.57-.757h28.652v7.936H128.13c-1.414 0-2.575.111-3.484.333-.909.222-1.626.596-2.15 1.12-.526.526-.89 1.222-1.091 2.09-.202.869-.304 1.929-.304 3.18v12.117c0 1.291.102 2.361.304 3.21.202.848.565 1.535 1.09 2.059.525.524 1.252.888 2.18 1.09.93.202 2.1.303 3.514.303h28.167v7.875zm34.598 0v-19.02c0-2.464.283-4.564.849-6.3.565-1.737 1.464-3.16 2.696-4.27 1.232-1.11 2.816-1.929 4.754-2.454 1.938-.525 4.3-.787 7.087-.787h5.877v7.33h-5.635c-1.25 0-2.3.1-3.149.302-.848.201-1.525.545-2.03 1.03-.504.484-.868 1.15-1.09 1.999-.221.848-.332 1.918-.332 3.21v18.96zm35.464-15.75c0 1.818.393 3.08 1.18 3.787.788.707 2.111 1.06 3.97 1.06h20.17V48.808h8.785v32.225c0 3.675-.91 6.33-2.726 7.965-1.817 1.636-4.786 2.453-8.906 2.453h-13.143v-7.388h12.356c1.252 0 2.17-.243 2.756-.728.585-.485.878-1.414.878-2.787v-2.665H202.37c-2.463 0-4.553-.232-6.269-.696-1.716-.464-3.11-1.181-4.18-2.15-1.07-.97-1.847-2.181-2.332-3.635-.484-1.453-.726-3.17-.726-5.149V48.808h8.903zm68.398-17.081c3.069 0 5.613.252 7.632.757 2.02.505 3.634 1.312 4.846 2.422 1.211 1.11 2.07 2.575 2.574 4.392.505 1.817.757 4.038.757 6.663v4.422c0 2.625-.252 4.836-.757 6.634-.505 1.797-1.363 3.251-2.574 4.361-1.212 1.11-2.827 1.918-4.846 2.423-2.02.505-4.563.757-7.632.757H247.87v9.812h-9.027V63.042c0-2.625.253-4.846.757-6.663.505-1.817 1.363-3.281 2.576-4.392 1.212-1.11 2.827-1.917 4.846-2.422 2.018-.505 4.563-.757 7.632-.757zm6.784 14.476c0-1.453-.111-2.624-.333-3.512-.223-.889-.637-1.575-1.243-2.06-.605-.485-1.423-.808-2.453-.97-1.03-.161-2.332-.242-3.907-.242h-10.054c-1.414 0-2.585.101-3.515.303-.929.202-1.656.556-2.18 1.06-.526.505-.89 1.191-1.09 2.06-.202.868-.303 1.969-.303 3.302v10.72h17.203c1.575 0 2.867-.07 3.877-.212 1.009-.14 1.817-.453 2.422-.938.606-.484 1.02-1.17 1.243-2.06.222-.888.333-2.08.333-3.574zm17.706 18.355V56.138h-4.603v-7.33h4.603v-9.269h9.208v9.269h10.358v7.33h-10.358v25.501zm33.121-11.813V81.64h-9.207V40.326h33.075c2.948 0 5.41.233 7.39.697 1.978.465 3.573 1.233 4.785 2.303 1.211 1.07 2.07 2.453 2.574 4.149.504 1.696.757 3.755.757 6.178v3.573c0 2.464-.242 4.504-.727 6.12-.484 1.615-1.322 2.907-2.513 3.877-1.191.969-2.776 1.645-4.755 2.029-1.98.383-4.483.574-7.511.574zm30.168-15.809c0-2.22-.475-3.735-1.425-4.543-.95-.808-2.655-1.211-5.117-1.212h-23.626v14.115h23.746c2.423 0 4.099-.374 5.028-1.122.93-.747 1.394-2.21 1.394-4.391zm26.135 27.622c-2.382 0-4.34-.202-5.875-.605-1.534-.404-2.756-.98-3.664-1.727-.91-.747-1.546-1.656-1.91-2.726-.363-1.07-.544-2.271-.544-3.605v-3.089c0-1.372.171-2.594.514-3.664a6.016 6.016 0 0 1 1.788-2.726c.849-.747 2.01-1.312 3.484-1.696 1.474-.384 3.341-.576 5.603-.576h24.29v-.727c0-2.1-.424-3.503-1.272-4.21-.849-.707-2.282-1.06-4.301-1.06h-8.966v-6.42h8.966c2.625 0 4.856.242 6.694.726 1.837.485 3.341 1.222 4.512 2.211 1.17.99 2.029 2.242 2.574 3.756.546 1.514.818 3.32.818 5.42v7.998c0 2.382-.232 4.38-.697 5.996-.464 1.615-1.272 2.927-2.422 3.937-1.15 1.01-2.685 1.727-4.603 2.151-1.919.424-4.332.636-7.24.636zm23.686-14.84h-23.322c-1.05 0-1.877.232-2.483.696-.606.465-.909 1.343-.909 2.635v2.24c0 1.172.323 1.98.97 2.425.646.444 1.555.666 2.726.666h16.96c1.05 0 1.96-.08 2.726-.242.767-.162 1.393-.455 1.878-.88.484-.424.847-1.02 1.09-1.787.243-.767.364-1.756.364-2.968zm31.371 14.84c-3.069 0-5.623-.252-7.662-.757-2.04-.505-3.665-1.312-4.877-2.423-1.211-1.11-2.07-2.564-2.574-4.361-.505-1.798-.757-4.01-.757-6.634v-4.422c0-2.625.252-4.846.757-6.663.505-1.817 1.363-3.281 2.574-4.392 1.212-1.11 2.837-1.917 4.877-2.422 2.04-.505 4.593-.757 7.662-.757h18.233V38.206h9.027v29.258c0 2.625-.253 4.836-.758 6.634-.506 1.797-1.364 3.251-2.575 4.361-1.212 1.11-2.827 1.918-4.847 2.423-2.019.505-4.563.757-7.631.757zm-6.845-14.417c0 1.454.11 2.625.333 3.514.223.889.637 1.575 1.243 2.06.605.484 1.423.807 2.453.968 1.03.161 2.352.242 3.968.242h10.054c1.414 0 2.575-.09 3.483-.273.908-.181 1.625-.525 2.15-1.03.525-.504.889-1.19 1.09-2.059.203-.868.304-1.988.304-3.361V56.56h-17.142c-1.575 0-2.878.08-3.907.242-1.03.162-1.848.485-2.453.97-.606.485-1.02 1.171-1.243 2.059-.222.888-.333 2.059-.333 3.513z" style="line-height:125%;-inkscape-font-specification:'Neuropolitical Rg';text-align:start" font-weight="400" font-size="40" font-family="Neuropolitical Rg" letter-spacing="0" word-spacing="0" fill="#fff"/><path d="M50.245 0L12.746 6.927c-1.325-.943-2.96-1.478-4.71-1.478A8.031 8.031 0 0 0 0 13.485a8.094 8.094 0 0 0 4.156 7.066v54.078c0 5.092 2.278 10.59 6.79 16.349 3.996 5.094 9.647 10.321 16.81 15.517 8.94 6.464 18.062 11.246 22.49 13.438 4.43-2.192 13.548-6.974 22.49-13.438 7.166-5.196 12.814-10.423 16.81-15.517 4.514-5.766 6.789-11.257 6.789-16.349V20.505c2.454-1.379 4.156-4.007 4.156-7.02 0-4.441-3.64-8.036-8.082-8.036a7.959 7.959 0 0 0-4.618 1.478zm-.092 7.99l34.267 6.326c.05.503.093.96.231 1.432l-20.089 13.07c-3.593-3.899-8.757-6.374-14.455-6.374-5.738 0-10.933 2.516-14.547 6.466L15.702 16.025c.182-.557.267-1.152.323-1.755zM87.1 19.488c.67.588 1.47 1.09 2.309 1.431V73.52c0 .693-.062 1.434-.185 2.17-.808 3.215-2.58 6.581-5.31 10.068-3.422 4.361-8.275 8.807-14.41 13.254-7.654 5.533-15.464 9.668-19.257 11.546-3.79-1.878-11.604-6.013-19.258-11.546-6.13-4.447-10.941-8.893-14.362-13.254-3.26-4.16-5.166-8.147-5.68-11.915v-52.83c.816-.314 1.553-.793 2.216-1.34l25.446 16.395a13.008 13.008 0 0 1 11.499-6.881c5.03 0 9.348 2.773 11.5 6.927l25.491-16.625z" fill="#fff"/><g fill="#fff" color="#000" font-weight="400" font-family="Sans"><path style="line-height:normal;-inkscape-font-specification:Sans;text-indent:0;text-align:start;text-decoration-line:none;text-transform:none;marker:none" d="M29.564 70.338c-3.28 0-5.958 2.678-5.958 5.957 0 3.28 2.678 5.911 5.958 5.911a5.893 5.893 0 0 0 5.91-5.91c0-3.28-2.631-5.958-5.91-5.958z" overflow="visible"/><path style="line-height:normal;-inkscape-font-specification:Sans;text-indent:0;text-align:start;text-decoration-line:none;text-transform:none;marker:none" d="M31.235 36.619c-.531 1.779-.855 3.633-.855 5.578 0 5.605 2.429 10.574 6.21 14.168l-9.445 19.002c-1.003 2.035.743 4.838 3.012 4.834H44.25v-6.694h-8.702l8.181-16.435c.708-1.423.223-3.329-1.078-4.24-3.369-2.35-5.578-6.19-5.578-10.635 0-.574.077-1.12.148-1.673z" overflow="visible"/></g><g fill="#fff" color="#000" font-weight="400" font-family="Sans"><path style="line-height:normal;-inkscape-font-specification:Sans;text-indent:0;text-align:start;text-decoration-line:none;text-transform:none;marker:none" d="M70.989 70.338c-3.28 0-5.958 2.678-5.958 5.957 0 3.28 2.678 5.911 5.958 5.911a5.893 5.893 0 0 0 5.91-5.91c0-3.28-2.631-5.958-5.91-5.958z" overflow="visible"/><path style="line-height:normal;-inkscape-font-specification:Sans;text-indent:0;text-align:start;text-decoration-line:none;text-transform:none;marker:none" d="M68.98 36.656l-6.025 3.942c.065.53.112 1.05.112 1.599 0 4.43-2.148 8.243-5.504 10.598-1.301.911-1.786 2.817-1.078 4.24l8.106 16.473h-8.664V80.2H70.02c2.268.003 4.014-2.799 3.012-4.834l-9.446-19.04c3.764-3.59 6.173-8.538 6.173-14.13 0-1.92-.265-3.782-.78-5.54z" overflow="visible"/></g><path d="M55.425 42.703a5.411 5.411 0 1 1-10.823 0 5.411 5.411 0 0 1 10.823 0zm2.639 70.724a8.05 8.05 0 1 1-16.1 0 8.05 8.05 0 0 1 16.1 0z" fill="#fff"/></svg>