<?xml version="1.0" encoding="UTF-8" standalone="no"?>
<svg
   xmlns:dc="http://purl.org/dc/elements/1.1/"
   xmlns:cc="http://creativecommons.org/ns#"
   xmlns:rdf="http://www.w3.org/1999/02/22-rdf-syntax-ns#"
   xmlns:svg="http://www.w3.org/2000/svg"
   xmlns="http://www.w3.org/2000/svg"
   xmlns:sodipodi="http://sodipodi.sourceforge.net/DTD/sodipodi-0.dtd"
   xmlns:inkscape="http://www.inkscape.org/namespaces/inkscape"
   width="512"
   height="512"
   version="1.1"
   viewBox="0 0 135.46606 135.46728"
   id="svg942"
   sodipodi:docname="favicon_main.svg"
   inkscape:version="1.0.1 (1.0.1+r73)"
   inkscape:export-filename="/home/david/cryptpad/customize.dist/alt-favicon.png"
   inkscape:export-xdpi="96"
   inkscape:export-ydpi="96">
  <metadata
     id="metadata948">
    <rdf:RDF>
      <cc:Work
         rdf:about="">
        <dc:format>image/svg+xml</dc:format>
        <dc:type
           rdf:resource="http://purl.org/dc/dcmitype/StillImage" />
        <dc:title></dc:title>
      </cc:Work>
    </rdf:RDF>
  </metadata>
  <defs
     id="defs946" />
  <sodipodi:namedview
     pagecolor="#ffffff"
     bordercolor="#666666"
     borderopacity="1"
     objecttolerance="10"
     gridtolerance="10"
     guidetolerance="10"
     inkscape:pageopacity="0"
     inkscape:pageshadow="2"
     inkscape:window-width="1900"
     inkscape:window-height="1036"
     id="namedview944"
     showgrid="false"
     inkscape:zoom="0.81955499"
     inkscape:cx="98.629512"
     inkscape:cy="319.48968"
     inkscape:window-x="10"
     inkscape:window-y="10"
     inkscape:window-maximized="0"
     inkscape:current-layer="layer3" />
  <g
     inkscape:groupmode="layer"
     id="layer3"
     inkscape:label="white BG"
     style="display:inline">
    <g
       transform="matrix(1.4853714,0,0,1.4853714,-938.46279,-257.57186)"
       style="fill:#ffffff"
       id="g922">
      <g
         style="fill:#ffffff"
         id="g916">
        <path
           d="m 644.02,176.9 h 44.386 l 22.414,20.826 v 24.899 c 0,26.166 -21.414,32.228 -33.117,38.409 -12.815,-5.8945 -32.794,-12.329 -33.117,-38.409 z"
           style="fill:#ffffff"
           id="path914" />
      </g>
      <g
         style="fill:#ffffff"
         id="g920">
        <path
           d="m 644.02,176.9 h 44.386 l 22.414,20.826 v 24.899 c 0,26.166 -21.414,32.228 -33.117,38.409 -12.815,-5.8945 -32.794,-12.329 -33.117,-38.409 z"
           style="fill:#ffffff"
           id="path918" />
      </g>
    </g>
  </g>
  <g
     inkscape:groupmode="layer"
     id="layer1"
     inkscape:label="shield">
    <g
       id="g940"
       transform="matrix(1.4853714,0,0,1.4853714,12.798765,-0.61151946)">
      <g
         transform="translate(-125.38,-26.449)"
         id="g938">
        <path
           d="m 128.98,30.355 0.55499,39.644 h 33.141 l 0.004,-39.644 z"
           style="fill:#0087ff;fill-opacity:0.39608"
           id="path924" />
        <path
           d="m 162.69,70 0.003,43.946 c 12.825,-5.8796 32.762,-17.077 33.127,-43.157 l 0.0108,-0.78911 z"
           style="fill:#0087ff;fill-opacity:0.39608"
           id="path926" />
        <path
           d="m 128.98,30.355 h 44.386 L 195.78,51.181 V 76.08 c 0,26.166 -21.414,32.228 -33.117,38.409 -12.815,-5.8945 -32.794,-12.329 -33.117,-38.409 z"
           style="fill:none;stroke:#0087ff;stroke-width:5.2922"
           id="path928" />
        <path
           d="m 171.32,29.811 v 23.04 h 24.575"
           style="fill:none;stroke:#0087ff;stroke-width:5.2917"
           id="path930" />
        <g
           transform="matrix(1.1107,0,0,1.1107,18.926,21.932)"
           style="fill:#0087ff"
           id="g936">
          <path
             d="m 137.23,42.719 a 8.1185,8.1185 0 0 1 -8.1185,8.1185 8.1185,8.1185 0 0 1 -8.1185,-8.1185 8.1185,8.1185 0 0 1 8.1185,-8.1185 8.1185,8.1185 0 0 1 8.1185,8.1185 z"
             style="fill:#0087ff"
             id="path932" />
          <path
             d="m 127,42.651 h 4.2265 l 4.2333,22.354 h -12.693 z"
             style="fill:#0087ff"
             id="path934" />
        </g>
      </g>
    </g>
  </g>
  <g
     inkscape:groupmode="layer"
     id="layer2"
     inkscape:label="dot"
     style="display:inline">
    <circle
       style="fill:#ff0000;fill-opacity:1;stroke-width:7.93754"
       id="path968"
       cx="106.3063"
       cy="106.45006"
       r="22.907322" />
  </g>
</svg>
