<?xml version="1.0" encoding="utf-8"?>
<!-- Generator: Adobe Illustrator 21.1.0, SVG Export Plug-In . SVG Version: 6.00 Build 0)  -->
<svg version="1.1" id="Layer_1" xmlns="http://www.w3.org/2000/svg" xmlns:xlink="http://www.w3.org/1999/xlink" x="0px" y="0px"
	 viewBox="0 0 24 24" style="enable-background:new 0 0 24 24;" xml:space="preserve">
<style type="text/css">
	.st0{fill:url(#SVGID_1_);}
</style>
<linearGradient id="SVGID_1_" gradientUnits="userSpaceOnUse" x1="4" y1="12" x2="20" y2="12">
	<stop  offset="0" style="stop-color:#4592C4"/>
	<stop  offset="1" style="stop-color:#545ACD"/>
</linearGradient>
<path class="st0" d="M13,14c-3.4,0-4.5,1.4-4.8,2.2C9.3,16.7,10,17.8,10,19c0,1.7-1.3,3-3,3s-3-1.3-3-3c0-1.3,0.8-2.4,2-2.8V7.8
	C4.8,7.4,4,6.3,4,5c0-1.7,1.3-3,3-3s3,1.3,3,3c0,1.3-0.8,2.4-2,2.8v5.3c0.9-0.6,2.2-1.1,4-1.1c2.7,0,3.6-1.3,3.9-2.2
	C14.8,9.3,14,8.3,14,7c0-1.7,1.3-3,3-3s3,1.3,3,3c0,1.3-0.9,2.5-2.1,2.9C17.6,11.3,16.7,14,13,14 M7,18c-0.6,0-1,0.4-1,1s0.4,1,1,1
	s1-0.4,1-1S7.6,18,7,18 M7,4C6.4,4,6,4.4,6,5s0.4,1,1,1s1-0.4,1-1S7.6,4,7,4 M17,6c-0.6,0-1,0.4-1,1s0.4,1,1,1s1-0.4,1-1
	S17.6,6,17,6z"/>
</svg>
