<?xml version="1.0" encoding="utf-8"?>
<!-- Generator: Adobe Illustrator 21.1.0, SVG Export Plug-In . SVG Version: 6.00 Build 0)  -->
<svg version="1.1" id="Layer_1" xmlns="http://www.w3.org/2000/svg" xmlns:xlink="http://www.w3.org/1999/xlink" x="0px" y="0px"
	 viewBox="0 0 26 25" style="enable-background:new 0 0 26 25;" xml:space="preserve">
<style type="text/css">
	.st0{fill:#4591C4;}
</style>
<title>testimonial</title>
<g id="Layer_2">
	<g id="_25_Quote_Quotation_Text_Sample">
		<path class="st0" d="M8.5,12l-4.1,0c0.5-3.5,2.9-6.5,6.2-7.7l0.2,0c1-0.4,1.6-1.5,1.2-2.6c-0.4-1-1.5-1.6-2.6-1.2l-0.2,0
			c-5.3,2-8.8,7.1-8.8,12.7l0,7.4l0,0c-0.1,2,1.4,3.8,3.5,3.9c0.1,0,0.3,0,0.4,0l4,0c2,0.1,3.7-1.5,3.8-3.6c0,0,0-0.1,0-0.1l0-5l0,0
			C12.1,13.8,10.5,12.1,8.5,12z M8.2,20.6l-3.9,0l0-4.7l3.9,0L8.2,20.6z"/>
		<path class="st0" d="M25.5,15.8c0-2.1-1.7-3.8-3.8-3.8c0,0-0.1,0-0.1,0l-3.8,0c0.5-3.5,2.9-6.5,6.2-7.7h0.2c1-0.4,1.6-1.5,1.2-2.6
			S24,0.2,22.9,0.5l-0.2,0c-5.3,2-8.8,7.1-8.8,12.7l0,7.6c0.1,2,1.7,3.6,3.7,3.7l4.1,0c2,0.1,3.8-1.4,3.9-3.5c0-0.1,0-0.3,0-0.4
			L25.5,15.8L25.5,15.8z M21.7,20.7l-3.9,0l0-4.8l3.9,0l0,4.6V20.7z"/>
	</g>
</g>
</svg>
