/* XPM */
static const char * toolbar_xpm[] = {
/* width height colors colordepth */
" 378    18     16     1 0 0",
" 	 s none c None",
".	 m white c red",
"+	 m black c #000000",
"$	 m none c  #ADADAD",
"%	 m black c #232323",
"&	 m none c  #FFFFFF",
":	 m black c #FFFFFF",
",	 m none c  #DEDEDE",
"y	 m black c #DEDEDE",
"'	 m black c #13A706",
"t	 s bottomShadowColor c  #636363",
"w	 m black c #125006",
"N	 m none c  #C9C9C9",
"O	 m none c  #949494",
"`	 m none c  #404040",
"Y	 m none c  #303030",
/* pixels */ /*
 ***************** ***************** ***************** ***************** ***************** ***************** ***************** ***************** ***************** ***************** ***************** ***************** ***************** ***************** ***************** ***************** ***************** ***************** ***************** ***************** ***************** */
"                                                                                                                                                                                                                                                                                                                                                                                          ",
"                                                                                                                                                                                                          ++++++++                                                                                   YY    YY                                ++++++++                                     ",
"    +++++++++           t+++t                                                                                     ++++               ++++                                                  ....           +&&&&&+&+       ttt                                                                       &$Y   &$Y           $%%%%$               +&&&&&&+      ttttt                          ",
"    +&&&&&&+&+         t++++++          %%       %               %            %              %       %%          +,,,,+             +,,,,+                 +            +                ........         +&&&&&+&&+      t ,                                                                       `YY   `YY          $%%%%%%$              +&&&&&&+      +++++             t+++t        ",
"    +&&&&&&+&&+       +++t   t+         %%      %%              %%            %%             %%      %%         +,,&,,,+           +,,&,,,+               ++            ++              ..........        +&&&&&++++      ,,, .........         %%%%%%%%%         %%%%%%%%%         %%%%%%%%%        ttt Y$ttt         %%$  $%%            ' +&&&&&&+        t++t               ++        ",
"    +&&&&&&++++      t++t     +t        %%     %%%             %%%            %%%            %%%     %%         +,,&&,,+           +,,&&,,+              +:+            +:+            ...&....&...       +&&&&&&&&+                        ttt                                                   tYYYYtYtYYYY`        %%    %%            ''+&&&&&&+        ++++              t++t       ",
"  +++&&&&&&&&&+++    +++                %%    %%%%            %%%%            %%%%           %%%%    %%         +,,,,,,+           +,,,,,,+      +++    +::++++++++++++++:y+    +++    ..&&&..&&&..      ++&&&&&&&&++                       t ,                                                  t$&&$t$t`t&&$t`       %%   $%%            '''&&&++&+       t+tt+t             +  +       ",
"  +,+&&&&&&&&&+t+  +++++++     +        %%   %%%%%           %%%%%            %%%%%          %%%%%   %%         +,,,,,,+           +,,,,,,+     +$&$+  +:yy::::::++:::::::yy+  +$&$+  ....&&&&&&....    +$+&&&&&&&&+t+t       %%%%%%%%%     ,,, .........         %%%%%%%%%         %%%%%%%%%    `&&&$t&$`&&&$tY           $%%$      ''''''''''&&++&+       ++  ++            t+  +t      ",
"+++++++++++++,+t+   +++++     +++       %%  %%%%%%          %%%%%%            %%%%%%         %%%%%%  %%          +,,,,+t            +,,,,+t     +&&$+ +:yyyyyyyyy++:yyyyyyyyy+ +&&$+  .....&&&&.....    ++++++++++++$t+t  ttt                                 ttt                                `&$$tt```t&&$tY          $%%$       '''''''''''&&&&+      t+t  t+t           +t  t+      ",
"+$&&&&&&&&&&&++t+    +++     +++++      %%   %%%%%           %%%%%            %%%%%          %%%%%   %%           ++++t++            ++++t++    +$$$+  +yyyyyyyyy++:yyyyyyyy+  +$$$+  .....&&&&.....   +&&&&&&&&&&&&&,t+  t ,                                 t ,                                `&``YY&$t```ttY          %%$        ''''''''''w&&&&+      ++++++++          t+++++++     ",
" +,$$$$$$$$$$t+t+     +     +++++++     %%    %%%%            %%%%            %%%%           %%%%    %%        %%      +++                +++    +++    +yy++++++++++++++yy+    +++   ....&&&&&&....   +&$$$$$$$$$$$$$t+  ,,, .........         %%%%%%%%%     ,,, .........         %%%%%%%%%    `&$tY  ``$`&$tY          %%         wwwwww'''w&&&&&+     t+tttttt+t         +t    t+     ",
" +$,$$$$$$$$$$+t+             +++       %%     %%%             %%%            %%%            %%%     %%        %%       ++%                ++%           +y+            +y+            ..&&&..&&&..    +&tttttttttttt$t+                    ttt                                                  `&$tY     `&$tY          %%               ''w&&&&&&+     +t      t+        t+      +t    ",
"  +,$$$$$$$$$$t++     t+     t++t       %%      %%              %%            %%             %%      %%      %%%%%%      %%    %%%%%%       %%            ++            ++             ...&....&...    +&t++++++++++&$t+                    t ,                                                  `&$tY     `&$tY                           'w+&&&&&&+    ++t      t++t      +t      t+    ",
"  +$,$$$$$$$$$$++      +t   t+++        %%       %               %            %              %       %%      %%%%%%            %%%%%%                      +            +               ..........     +&&&&&&&&&&&&&$t+      %%%%%%%%%     ,,, .........         %%%%%%%%%         %%%%%%%%%    `tt`Y     `tt`Y                           w +&&&&&$+   t++++    t++++    t++++    t++++  ",
"   +$ttttttttttt+       ++++++t                                                                                %%                                                                        ........      +Ottttttttttttt++                                                                         `&$tY     `&$tY          %%                 +&&&N$O+                                     ",
"   ++++++++++++++        t+++t                                                                                 %%                                                                          ....         +++++++++++++++                                                                          `````     `````          %%                 +&N$Ott+                                     ",
"                                                                                                                                                                                                                                                                                                                                             ++++++++                                     ",
"                                                                                                                                                                                                                                                                                                                                                                                          "}; /*
 ***************** ***************** ***************** ***************** ***************** ***************** ***************** ***************** ***************** ***************** ***************** ***************** ***************** ***************** ***************** ***************** ***************** ***************** ***************** ***************** *****************  */
