/* XPM */
static const char * tools2_xpm[] = {
/* width height colors colordepth */
" 378    18     15     1 0 0",
" 	 m none c None",
".	 m white c red",
"+	 m black c #000000",
"$	 m none c  #ADADAD",
"%	 m black c #232323",
"&	 m none c  #FFFFFF",
",	 m none c  #DEDEDE",
"'	 m black c #13A706",
"k	 m black c #737373",
"t	 m none c  #636363",
"w	 m black c #125006",
"N	 m none c  #C9C9C9",
"O	 m none c  #949494",
"`	 m none c  #404040",
"Y	 m none c  #303030",
/* pixels */ /*
 ***************** ***************** ***************** ***************** ***************** ***************** ***************** ***************** ***************** ***************** ***************** ***************** ***************** ***************** ***************** ***************** ***************** ***************** ***************** ***************** ***************** */
"                                                                                                                                                                                                                                                                                                                                                                                          ",
"                                                                                                                                                                                                          ++++++++                                                                                   YY    YY                                ++++++++                                     ",
"    +++++++++           t+++t                                                                                    $++++$             $++++$                                                 ....           +&&&&&+&+       kkk                                                                       &$Y   &$Y           $%%%%$               +&&&&&&+      ttttt                          ",
"    +&&&&&&+&+         t++++++                                                                                  $+,,,,+$           $+,,,,+$             ''                ''             ........         +&&&&&+&&+      k ,                                                                       `YY   `YY          $%%%%%%$              +&&&&&&+      +++++             t+++t        ",
"    +&&&&&&+&&+       +++t   t+         %%     $%              $%              %$             %$     %%         +,,& ,,+           +,,& ,,+            '''                '''           ..........        +&&&&&++++      ,,, .........         %%%%%%%%%         %%%%%%%%%         %%%%%%%%%        kkk Y$kkk         %%$  $%%            ' +&&&&&&+        t++t               ++        ",
"    +&&&&&&++++      t++t     +t        %%    $%%             $%%              %%$            %%$    %%         +,,&&,,+           +,,&&,,+           ''''                ''''         ...&....&...       +&&&&&&&&+                        kkk                                                   kYYYYkYkYYYY`        %%    %%            ''+&&&&&&+        ++++              t++t       ",
"  +++&&&&&&&&&+++    +++                %%   $%%%            $%%%              %%%$           %%%$   %%         +,,,,,,+           +,,,,,,+          ''''''''         '''''''''        ..&&&..&&&..      ++&&&&&&&&++                       k ,                                                  k$&&$k$k`k&&$k`       %%   $%%            '''&&&++&+       t+tt+t             +  +       ",
"  +,+&&&&&&&&&+k+  +++++++     +        %%  $%%%%           $%%%%              %%%%$          %%%%$  %%         +,,,,,,+           +,,,,,,+         '''''''''w        ''''''''''      ....&&&&&&....    +$+&&&&&&&&+k+t       %%%%%%%%%     ,,, .........         %%%%%%%%%         %%%%%%%%%    `&&&$k&$`&&&$kY           $%%$      ''''''''''&&++&+       ++  ++            t+  +t      ",
"+++++++++++++,+k+   +++++     +++       %% $%%%%%          $%%%%%              %%%%%$         %%%%%$ %%         $+,,,,+k           $+,,,,+k        ''''''''''w        '''''''''''     .....&&&&.....    ++++++++++++$k+t  kkk                                 kkk                                `&$$kk```k&&$kY          $%%$       '''''''''''&&&&+      t+t  t+t           +t  t+      ",
"+$&&&&&&&&&&&++k+    +++     +++++      %% $%%%%%          $%%%%%              %%%%%$         %%%%%$ %%          $++++k++           $++++k++       ''''''''''w        ''''''''''w     .....&&&&.....   +&&&&&&&&&&&&&,k+  k ,                                 k ,                                `&``YY&$k```kkY          %%$        ''''''''''w&&&&+      ++++++++          t+++++++     ",
"$+,$$$$$$$$$$k+k+     +     +++++++     %%  $%%%%           $%%%%              %%%%$          %%%%$  %%        %%      +++                +++       '''''''''w        '''''''''w      ....&&&&&&....   +&$$$$$$$$$$$$$k+  ,,, .........         %%%%%%%%%     ,,, .........         %%%%%%%%%    `&$kY  ``$`&$kY          %%         wwwwww'''w&&&&&+     t+tttttt+t         +t    t+     ",
" +$,$$$$$$$$$$+k+             +++       %%   $%%%            $%%%              %%%$           %%%$   %%        %%       ++%                ++%       ''''wwwww        wwwww'''w        ..&&&..&&&..    +&kkkkkkkkkkkk$k+                    kkk                                                  `&$kY     `&$kY          %%               ''w&&&&&&+     +t      t+        t+      +t    ",
" $+,$$$$$$$$$$k++     t+     t++t       %%    $%%             $%%              %%$            %%$    %%      %%%%%%      %%    %%%%%%       %%        '''w                '''w         ...&....&...    +&k++++++++++&$k+                    k ,                                                  `&$kY     `&$kY                           'w+&&&&&&+    ++t      t++k      +t      t+    ",
"  +$,$$$$$$$$$$++      +t   t+++        %%     $%              $%              %$             %$     %%      %%%%%%            %%%%%%                  ''w                ''w           ..........     +&&&&&&&&&&&&&$k+      %%%%%%%%%     ,,, .........         %%%%%%%%%         %%%%%%%%%    `kk`Y     `kk`Y                           w +&&&&&$+   t++++    t++++    t++++    t++++  ",
"   +$kkkkkkkkkkk+       ++++++t                                                                                %%                                       'w                'w             ........      +Okkkkkkkkkkkkk++                                                                         `&$kY     `&$kY          %%                 +&&&N$O+                                     ",
"   ++++++++++++++        t+++t                                                                                 %%                                                                          ....         +++++++++++++++                                                                          `````     `````          %%                 +&N$Okt+                                     ",
"                                                                                                                                                                                                                                                                                                                                             ++++++++                                     ",
"                                                                                                                                                                                                                                                                                                                                                                                          "}; /*
 ***************** ***************** ***************** ***************** ***************** ***************** ***************** ***************** ***************** ***************** ***************** ***************** ***************** ***************** ***************** ***************** ***************** ***************** ***************** ***************** *****************  */
