<svg width="100" height="14" viewBox="0 0 100 14" fill="none" xmlns="http://www.w3.org/2000/svg">
<path d="M20.0149 6.48201C19.959 5.79068 20.0611 5.0957 20.3134 4.44954C20.5658 3.80338 20.9618 3.22293 21.4717 2.75199C22.4021 1.92114 23.6137 1.47408 24.8615 1.50116C26.0997 1.47534 27.3009 1.92391 28.2183 2.75479C28.7177 3.23878 29.1043 3.82664 29.3506 4.47661C29.5969 5.12659 29.6969 5.82276 29.6435 6.51568C29.6972 7.20401 29.5972 7.89564 29.3507 8.54068C29.1042 9.18571 28.7175 9.76806 28.2183 10.2457C27.2979 11.0717 26.0988 11.5195 24.8615 11.4993C23.6157 11.5143 22.4085 11.0676 21.4731 10.2457C20.9648 9.76636 20.5701 9.1797 20.3178 8.52855C20.0655 7.8774 19.962 7.17821 20.0149 6.48201ZM22.1052 6.48201C22.0366 7.36424 22.2586 8.2447 22.7374 8.98927C23.0867 9.47357 23.5885 9.82682 24.1626 9.99245C24.2771 10.0259 24.3948 10.0468 24.5138 10.0549C24.6086 10.0549 24.7358 10.0865 24.8306 10.0865C24.9485 10.0904 25.0665 10.0798 25.1818 10.0549C25.3011 10.0496 25.4192 10.0286 25.533 9.99245C26.0978 9.82508 26.589 9.47144 26.9266 8.98927C27.3973 8.25268 27.6189 7.38464 27.5588 6.51288C27.6235 5.64069 27.4016 4.77122 26.9266 4.03648C26.589 3.55431 26.0978 3.20067 25.533 3.0333C25.4186 2.99986 25.3008 2.97892 25.1818 2.97086C25.0554 2.97086 24.9599 2.93929 24.8306 2.93929C24.724 2.93256 24.617 2.94323 24.5138 2.97086C24.3948 2.97892 24.2771 2.99985 24.1626 3.0333C23.5925 3.20713 23.093 3.55868 22.7374 4.03648C22.2389 4.74885 22.0144 5.61693 22.1052 6.48131V6.48201Z" fill="#333333"/>
<path d="M30.6865 1.59473H33.2855L36.7055 7.738L37.2119 9.05407H37.2436L37.2119 7.33042V1.59473H39.2068V11.3733H36.6079L33.1878 4.9796L32.6814 3.88241H32.6533L32.6849 5.60606V11.3733H30.6865V1.59473Z" fill="#333333"/>
<path d="M41.7406 1.59473H43.767V9.7121H47.6935V11.3733H41.7406V1.59473Z" fill="#333333"/>
<path d="M46.6934 1.59473H49.005L51.0315 5.01117L51.3482 5.70077H51.3799L51.7311 5.01117L53.7877 1.59473H55.8781L52.3316 7.39285V11.3733H50.3368V7.36199L46.6934 1.59473Z" fill="#333333"/>
<path d="M56.3649 6.48201C56.309 5.79068 56.4111 5.0957 56.6635 4.44954C56.9159 3.80338 57.3119 3.22292 57.8217 2.75199C58.7522 1.92114 59.9638 1.47408 61.2116 1.50116C62.4498 1.47534 63.6509 1.92391 64.5684 2.75479C65.0678 3.23878 65.4543 3.82664 65.7006 4.47661C65.947 5.12659 66.047 5.82276 65.9936 6.51568C66.0472 7.204 65.9472 7.89564 65.7008 8.54068C65.4543 9.18571 65.0675 9.76806 64.5684 10.2457C63.648 11.0717 62.4488 11.5196 61.2116 11.4993C59.9648 11.5197 58.7557 11.0724 57.8231 10.2457C57.3208 9.76193 56.93 9.17457 56.6782 8.52456C56.4264 7.87455 56.3194 7.17751 56.3649 6.48201ZM58.4553 6.48201C58.3867 7.36424 58.6087 8.2447 59.0875 8.98927C59.4305 9.47981 59.9348 9.83478 60.5127 9.99245C60.6271 10.0259 60.7449 10.0468 60.8639 10.0549C60.9587 10.0549 61.0858 10.0865 61.1807 10.0865C61.2986 10.0918 61.4168 10.0812 61.5319 10.0549C61.6512 10.0496 61.7693 10.0286 61.8831 9.99245C62.4478 9.82508 62.9391 9.47144 63.2767 8.98927C63.7473 8.25265 63.9689 7.38464 63.9088 6.51287C63.9736 5.64069 63.7516 4.77122 63.2767 4.03648C62.9391 3.55431 62.4478 3.20067 61.8831 3.0333C61.7686 2.99986 61.6509 2.97892 61.5319 2.97086C61.4054 2.97086 61.3099 2.93929 61.1807 2.93929C61.0741 2.93256 60.9671 2.94322 60.8639 2.97086C60.7449 2.97892 60.6271 2.99985 60.5127 3.0333C59.9425 3.20713 59.4431 3.55868 59.0875 4.03648C58.603 4.75524 58.3799 5.61814 58.4553 6.48131V6.48201Z" fill="#333333"/>
<path d="M67.373 1.59473H72.9151V3.22437H69.403V5.60957H72.7598V7.27078H69.403V11.3768H67.373V1.59473Z" fill="#333333"/>
<path d="M74.3172 1.59473H79.8592V3.22437H76.3471V5.60957H79.704V7.27078H76.3471V11.3768H74.3172V1.59473Z" fill="#333333"/>
<path d="M81.153 11.3733V1.59473H83.1794V11.3733H81.153Z" fill="#333333"/>
<path d="M92.8108 1.81254V3.50533C92.4613 3.37879 92.1008 3.28485 91.734 3.22472C91.3256 3.15985 90.9127 3.12841 90.4992 3.13071C90.0507 3.1014 89.6014 3.17354 89.1847 3.34177C88.7681 3.51 88.3948 3.76998 88.0927 4.10233C87.5102 4.76849 87.2044 5.63174 87.2379 6.51558C87.2028 7.36904 87.4839 8.20546 88.0274 8.865C88.3102 9.18731 88.6619 9.44199 89.0566 9.61018C89.4512 9.77836 89.8787 9.85575 90.3074 9.83661C90.6586 9.83661 91.0042 9.80504 91.4158 9.77418C91.8503 9.71406 92.2753 9.59829 92.6802 9.42973L92.8066 11.0909C92.7241 11.1275 92.6394 11.1589 92.553 11.1849C92.4266 11.2165 92.2994 11.2474 92.1414 11.279C91.8878 11.3414 91.571 11.373 91.191 11.4354C90.811 11.467 90.431 11.4978 90.0194 11.4978H89.7026C88.5515 11.4203 87.4543 10.9815 86.5678 10.2442C86.0696 9.78582 85.6824 9.22024 85.4355 8.59028C85.1886 7.96033 85.0884 7.28252 85.1426 6.60818C85.1032 5.92392 85.2068 5.23897 85.4467 4.59683C85.6866 3.95469 86.0576 3.3694 86.5362 2.87816C87.5604 1.96499 88.9039 1.49209 90.2751 1.5621C90.6867 1.5621 91.0667 1.5621 91.3835 1.59367C91.7347 1.62523 92.0487 1.68767 92.3971 1.75011C92.4603 1.78167 92.5551 1.78167 92.6191 1.81254C92.6483 1.79718 92.6808 1.78915 92.7139 1.78915C92.7469 1.78915 92.7795 1.79718 92.8087 1.81254H92.8108Z" fill="#333333"/>
<path d="M94.1096 1.59473H100V3.13037H96.1044V5.57519H99.6516V7.07997H96.1044V9.83768H99.9993V11.3733H94.1096V1.59473Z" fill="#333333"/>
<path fill-rule="evenodd" clip-rule="evenodd" d="M6.12556 13.8272L0.367848 10.9422C-0.122616 10.6903 -0.122616 10.3012 0.367848 10.0725L2.37233 9.06696L6.10392 10.9436C6.3808 11.0683 6.67805 11.1325 6.9783 11.1325C7.27856 11.1325 7.5758 11.0683 7.85268 10.9436L11.5849 9.06696L13.5894 10.0739C14.0799 10.3258 14.0799 10.7149 13.5894 10.9436L7.8317 13.8286C7.28337 14.0571 6.6752 14.0571 6.12687 13.8286L6.12556 13.8272Z" fill="url(#paint0_linear)"/>
<path fill-rule="evenodd" clip-rule="evenodd" d="M6.12556 10.2803L0.367848 7.39525C-0.122616 7.14334 -0.122616 6.75422 0.367848 6.52553L2.32971 5.54041L6.12556 7.44029C6.40244 7.56494 6.69968 7.62914 6.99994 7.62914C7.30019 7.62914 7.59744 7.56494 7.87432 7.44029L11.6702 5.54041L13.632 6.52553C14.1225 6.77744 14.1225 7.16656 13.632 7.39525L7.87432 10.2803C7.59744 10.4049 7.30019 10.4691 6.99994 10.4691C6.69968 10.4691 6.40244 10.4049 6.12556 10.2803Z" fill="url(#paint1_linear)"/>
<path fill-rule="evenodd" clip-rule="evenodd" d="M6.12567 6.82577L0.367955 3.94217C-0.122509 3.69026 -0.122509 3.30114 0.367955 3.07245L6.12567 0.188852C6.40255 0.0642006 6.69979 0 7.00005 0C7.3003 0 7.59755 0.0642006 7.87442 0.188852L13.6321 3.07386C14.1226 3.32577 14.1226 3.71489 13.6321 3.94358L7.87442 6.82858C7.31102 7.0575 6.68907 7.0575 6.12567 6.82858V6.82577Z" fill="url(#paint2_linear)"/>
<defs>
<linearGradient id="paint0_linear" x1="6.99259" y1="16.5603" x2="6.99259" y2="6.03313" gradientUnits="userSpaceOnUse">
<stop stop-color="#FCC2B1"/>
<stop offset="0.885" stop-color="#D9420B"/>
</linearGradient>
<linearGradient id="paint1_linear" x1="6.99994" y1="12.0019" x2="6.99994" y2="5.07711" gradientUnits="userSpaceOnUse">
<stop stop-color="#DEEDC9"/>
<stop offset="0.661" stop-color="#8BBA25"/>
</linearGradient>
<linearGradient id="paint2_linear" x1="7.00005" y1="9.20536" x2="7.00005" y2="-0.224009" gradientUnits="userSpaceOnUse">
<stop stop-color="#C2EBFA"/>
<stop offset="1" stop-color="#26A8DE"/>
</linearGradient>
</defs>
</svg>
