<?xml version="1.0" encoding="UTF-8" standalone="no"?>
<svg
   xmlns:dc="http://purl.org/dc/elements/1.1/"
   xmlns:cc="http://creativecommons.org/ns#"
   xmlns:rdf="http://www.w3.org/1999/02/22-rdf-syntax-ns#"
   xmlns:svg="http://www.w3.org/2000/svg"
   xmlns="http://www.w3.org/2000/svg"
   xmlns:sodipodi="http://sodipodi.sourceforge.net/DTD/sodipodi-0.dtd"
   xmlns:inkscape="http://www.inkscape.org/namespaces/inkscape"
   inkscape:version="1.0.1 (1.0.1+r73)"
   sodipodi:docname="sayhi.svg"
   xml:space="preserve"
   style="enable-background:new 0 0 24 24;"
   viewBox="0 0 24 24"
   y="0px"
   x="0px"
   id="Layer_1"
   version="1.1"><metadata
   id="metadata1475"><rdf:RDF><cc:Work
       rdf:about=""><dc:format>image/svg+xml</dc:format><dc:type
         rdf:resource="http://purl.org/dc/dcmitype/StillImage" /><dc:title></dc:title></cc:Work></rdf:RDF></metadata><defs
   id="defs1473" /><sodipodi:namedview
   inkscape:current-layer="Layer_1"
   inkscape:window-maximized="0"
   inkscape:window-y="10"
   inkscape:window-x="10"
   inkscape:cy="13.11237"
   inkscape:cx="5.6378453"
   inkscape:zoom="18.5625"
   showgrid="false"
   id="namedview1471"
   inkscape:window-height="1036"
   inkscape:window-width="1900"
   inkscape:pageshadow="2"
   inkscape:pageopacity="0"
   guidetolerance="10"
   gridtolerance="10"
   objecttolerance="10"
   borderopacity="1"
   bordercolor="#666666"
   pagecolor="#ffffff"
   inkscape:document-rotation="0" />
<style
   id="style1461"
   type="text/css">
	.st0{fill:url(#SVGID_1_);}
</style>
<linearGradient
   y2="12"
   x2="23.5471"
   y1="12"
   x1="0.4529"
   gradientUnits="userSpaceOnUse"
   id="SVGID_1_">
	<stop
   id="stop1463"
   style="stop-color:#4592C4"
   offset="0" />
	<stop
   id="stop1465"
   style="stop-color:#545ACD"
   offset="1" />
</linearGradient>
<path
   style="fill:#0087ff;fill-opacity:1"
   id="path1468"
   d="M12,22.7c1.6,0,3.1-0.3,4.5-0.9c0,0,0.1,0,0.1,0c0,0,0,0,0,0c0.2-0.1,0.4-0.1,0.6-0.1c0.2,0,0.5,0,0.7,0.1  l4.7,1.7l-1.2-4.9c0-0.3,0.1-0.6,0.2-0.8l0,0c0-0.1,0.1-0.1,0.1-0.2c1.2-1.7,1.8-3.8,1.8-6c0-6.2-5.2-11.2-11.5-11.2  S0.5,5.4,0.5,11.6C0.5,17.8,5.6,22.7,12,22.7z M17.3,10.2c1,0,1.8,0.8,1.8,1.8s-0.8,1.8-1.8,1.8c-1,0-1.8-0.8-1.8-1.8  S16.4,10.2,17.3,10.2z M12,10.2c1,0,1.8,0.8,1.8,1.8S13,13.8,12,13.8S10.2,13,10.2,12S11,10.2,12,10.2z M6.7,10.2  c1,0,1.8,0.8,1.8,1.8s-0.8,1.8-1.8,1.8S4.9,13,4.9,12S5.7,10.2,6.7,10.2z"
   class="st0" />
</svg>
