<?xml version="1.0" encoding="UTF-8" standalone="no"?>
<svg
   xmlns:dc="http://purl.org/dc/elements/1.1/"
   xmlns:cc="http://creativecommons.org/ns#"
   xmlns:rdf="http://www.w3.org/1999/02/22-rdf-syntax-ns#"
   xmlns:svg="http://www.w3.org/2000/svg"
   xmlns="http://www.w3.org/2000/svg"
   xmlns:sodipodi="http://sodipodi.sourceforge.net/DTD/sodipodi-0.dtd"
   xmlns:inkscape="http://www.inkscape.org/namespaces/inkscape"
   inkscape:version="1.0.1 (1.0.1+r73)"
   sodipodi:docname="support.svg"
   xml:space="preserve"
   style="enable-background:new 0 0 24 24;"
   viewBox="0 0 24 24"
   y="0px"
   x="0px"
   id="Layer_1"
   version="1.1"><g
   aria-label="ï‡"
   id="text914"
   style="font-size:40px;line-height:1.25;font-family:sans-serif;word-spacing:0px"><path
     d="m 11.812297,1.0019891 c -6.1370709,0 -11.10871807,4.9716472 -11.10871807,11.1087179 0,6.137071 4.97164717,11.108718 11.10871807,11.108718 6.137071,0 11.108718,-4.971647 11.108718,-11.108718 0,-6.1370707 -4.971647,-11.1087179 -11.108718,-11.1087179 z m 0,1.5869597 c 1.611756,0 3.136725,0.4091381 4.475722,1.1158311 l -2.405236,2.4052358 c -0.6571,-0.2231662 -1.338997,-0.3471474 -2.070486,-0.3471474 -0.719091,0 -1.413386,0.1239812 -2.0704866,0.3471474 L 7.3365746,3.7047799 C 8.6755718,2.9980869 10.200541,2.5889488 11.812297,2.5889488 Z M 3.4063697,16.586429 c -0.706693,-1.338997 -1.1158311,-2.863966 -1.1158311,-4.475722 0,-1.611756 0.4091381,-3.136725 1.1158311,-4.4757222 l 2.4052358,2.4052362 c -0.2231662,0.6571 -0.3471474,1.338997 -0.3471474,2.070486 0,0.719091 0.1239812,1.413386 0.3471474,2.070487 z m 8.4059273,5.046036 c -1.611756,0 -3.1367252,-0.409138 -4.4757224,-1.115831 l 2.4052358,-2.405235 c 0.6571006,0.223166 1.3513956,0.347147 2.0704866,0.347147 0.731489,0 1.413386,-0.123981 2.070486,-0.347147 l 2.405236,2.405235 c -1.338997,0.706693 -2.863966,1.115831 -4.475722,1.115831 z m 0,-4.760879 c -2.6284021,0 -4.7608792,-2.132477 -4.7608792,-4.760879 0,-2.6284019 2.1324771,-4.760879 4.7608792,-4.760879 2.628402,0 4.760879,2.1324771 4.760879,4.760879 0,2.628402 -2.132477,4.760879 -4.760879,4.760879 z m 6.000691,-2.690392 c 0.223167,-0.657101 0.347148,-1.351396 0.347148,-2.070487 0,-0.719091 -0.123981,-1.413386 -0.347148,-2.070486 l 2.405236,-2.4052362 c 0.706693,1.3389972 1.115831,2.8639662 1.115831,4.4757222 0,1.611756 -0.409138,3.136725 -1.115831,4.475722 z"
     style="font-style:normal;font-variant:normal;font-weight:normal;font-stretch:normal;font-size:40px;font-family:FontAwesome;-inkscape-font-specification:'FontAwesome, Normal';font-variant-ligatures:normal;font-variant-caps:normal;font-variant-numeric:normal;font-variant-east-asian:normal;fill:#0087ff;fill-opacity:1;stroke-width:0.555436"
     id="path916" /></g><metadata
   id="metadata2740"><rdf:RDF><cc:Work
       rdf:about=""><dc:format>image/svg+xml</dc:format><dc:type
         rdf:resource="http://purl.org/dc/dcmitype/StillImage" /><dc:title></dc:title></cc:Work></rdf:RDF></metadata><defs
   id="defs2738" /><sodipodi:namedview
   inkscape:current-layer="text914"
   inkscape:window-maximized="0"
   inkscape:window-y="10"
   inkscape:window-x="10"
   inkscape:cy="4.489674"
   inkscape:cx="4.3924606"
   inkscape:zoom="6.78125"
   showgrid="false"
   id="namedview2736"
   inkscape:window-height="1036"
   inkscape:window-width="1900"
   inkscape:pageshadow="2"
   inkscape:pageopacity="0"
   guidetolerance="10"
   gridtolerance="10"
   objecttolerance="10"
   borderopacity="1"
   bordercolor="#666666"
   pagecolor="#ffffff"
   inkscape:document-rotation="0" />
<style
   id="style2725"
   type="text/css">
	.st0{fill:url(#Shape_1_);}
</style>

</svg>
