<svg xmlns="http://www.w3.org/2000/svg" viewBox="0 0 393.94 476.2"><defs><style>.cls-1{opacity:0.04;}.cls-2{fill:#999;}.cls-3{fill:#4591c4;}</style></defs><title>CryptPadlogo</title><g id="Layer_2" data-name="Layer 2"><g id="svg2"><g id="g4764" class="cls-1"><path class="cls-2" d="M139.36,288.16l32.07-64.43a13.59,13.59,0,0,0-4.23-16.62,48.65,48.65,0,0,1-21.28-48.25l-23.47-15.31a75.74,75.74,0,0,0-3.36,21.87c0,22,9.52,41.45,24.35,55.54l-27.24,54.8c-.11,0-.2,0-.31,0a23.27,23.27,0,1,0,0,46.53,23,23,0,0,0,17.31-7.86h40.27V288.16Z"/><path class="cls-2" d="M278.28,275.73c-.57,0-1.11.13-1.68.17l-27.33-55.09c14.75-14.07,24.2-33.47,24.2-55.39a77.13,77.13,0,0,0-3.06-21.72l-23.62,15.45a51.69,51.69,0,0,1,.44,6.27A50.21,50.21,0,0,1,225.65,207a13.58,13.58,0,0,0-4.22,16.62l31.77,64.58h-34V314.4h41.63a23.23,23.23,0,1,0,17.41-38.67Z"/><polygon class="cls-2" points="270.41 143.7 270.41 143.7 270.41 143.7 270.41 143.7"/><circle class="cls-3" cx="196.06" cy="167.4" r="21.21"/><path class="cls-3" d="M362.25,21.36a31.14,31.14,0,0,0-18.1,5.8L197,0,50,27.16a31.62,31.62,0,1,0-33.68,53.4v212c0,19.95,8.93,41.51,26.62,64.08,15.66,20,37.82,40.46,65.89,60.83a603,603,0,0,0,57,36.21,31.54,31.54,0,0,0,60,1.25,606,606,0,0,0,59.26-37.46c28.09-20.37,50.23-40.86,65.9-60.83,17.7-22.6,26.61-44.13,26.61-64.08V80.38a31.46,31.46,0,0,0-15.39-59ZM62.82,55.94,196.61,31.32l134.33,24.8a29.58,29.58,0,0,0,.9,5.61L253.09,113a76.78,76.78,0,0,0-113.69.36L61.55,62.82A31.8,31.8,0,0,0,62.82,55.94ZM350.49,288.21a51.41,51.41,0,0,1-.73,8.51c-3.16,12.6-10.11,25.8-20.82,39.47-13.41,17.09-32.43,34.52-56.48,51.95a532.75,532.75,0,0,1-54.19,34.09,31.5,31.5,0,0,0-43.73-.62,534,534,0,0,1-53.06-33.47c-24-17.43-42.9-34.86-56.31-51.95-12.77-16.31-20.25-31.94-22.26-46.71,0-.41,0-.86,0-1.27V82.37a31.51,31.51,0,0,0,8.69-5.25l88.88,57.75.37-.36,10.5,6.88a51,51,0,0,1,45.07-27,50.37,50.37,0,0,1,45.08,27.15l22.09-14.3L341.44,76.4A32.55,32.55,0,0,0,350.49,82Z"/></g></g></g></svg>