<?xml version="1.0" encoding="utf-8"?>
<!-- Generator: Adobe Illustrator 19.0.0, SVG Export Plug-In . SVG Version: 6.00 Build 0)  -->
<svg version="1.1" id="Layer_1" xmlns="http://www.w3.org/2000/svg" xmlns:xlink="http://www.w3.org/1999/xlink" x="0px" y="0px"
	 viewBox="0 0 64 64" style="enable-background:new 0 0 64 64;" xml:space="preserve">
<style type="text/css">
	.st0{fill-rule:evenodd;clip-rule:evenodd;}
        .st0{fill:#aaa;}
</style>
<path class="st0" d="M55.5,38.1c0,5.1-4.1,9.2-9.2,9.2c-1.4,0-2.7-0.3-3.9-0.9c-2,3.1-5.5,5.2-9.5,5.2c-3.8,0-7.2-1.9-9.2-4.8
	c-1.3,1.2-3,2-4.9,2c-3.9,0-7-3.2-7-7.1c0-2.5,1.3-4.6,3.1-5.9c-3.4-0.8-6-3.9-6-7.5c0-4.3,3.5-7.8,7.7-7.8c0.8,0,1.5,0.1,2.1,0.3
	c0-0.1,0-0.2,0-0.3c0-4.7,3.8-8.5,8.5-8.5c3.7,0,6.9,2.4,8,5.8c2.1-2.7,5.3-4.4,8.9-4.4c6.2,0,11.3,5.1,11.3,11.3
	c0,2.7-0.9,5.2-2.5,7.1C54.5,33.5,55.5,35.7,55.5,38.1z"/>
</svg>
