<?xml version="1.0" standalone="no"?>
<!DOCTYPE svg PUBLIC "-//W3C//DTD SVG 1.1//EN" "http://www.w3.org/Graphics/SVG/1.1/DTD/svg11.dtd" >
<svg xmlns="http://www.w3.org/2000/svg">
<metadata>Generated by IcoMoon</metadata>
<defs>
<font id="cptools" horiz-adv-x="1024">
<font-face units-per-em="1024" ascent="960" descent="-64" />
<missing-glyph horiz-adv-x="1024" />
<glyph unicode="&#x20;" horiz-adv-x="512" d="" />
<glyph unicode="&#xe900;" glyph-name="form-conditional" horiz-adv-x="1094" d="M300.535 125.162c0 3.87-1.548 7.739-4.335 10.525l-45.506 45.507 45.507 45.507c2.787 2.786 4.335 6.656 4.335 10.525s-1.548 7.739-4.335 10.525l-21.051 21.051c-2.787 2.786-6.655 4.334-10.525 4.334s-7.739-1.548-10.525-4.334l-45.507-45.507-45.507 45.507c-2.787 2.786-6.655 4.334-10.525 4.334s-7.739-1.548-10.525-4.334l-21.051-21.051c-2.787-2.786-4.335-6.656-4.335-10.525s1.548-7.739 4.335-10.525l45.507-45.507-45.507-45.507c-2.787-2.786-4.335-6.656-4.335-10.525s1.548-7.739 4.335-10.525l21.051-21.051c2.787-2.786 6.655-4.334 10.525-4.334s7.739 1.548 10.525 4.334l45.507 45.507 45.507-45.507c2.787-2.786 6.655-4.334 10.525-4.334s7.739 1.548 10.525 4.334l21.051 21.051c2.787 2.786 4.335 6.656 4.335 10.525zM999.093 237.227c0 3.87-1.548 7.739-4.335 10.525l-21.050 21.051c-2.787 2.786-6.655 4.334-10.525 4.334s-7.739-1.548-10.525-4.334l-101.54-101.694-45.507 45.662c-2.787 2.786-6.655 4.334-10.525 4.334s-7.739-1.548-10.525-4.334l-21.051-21.051c-2.787-2.786-4.335-6.656-4.335-10.525s1.548-7.739 4.335-10.525l77.083-77.083c2.787-2.786 6.655-4.334 10.525-4.334s7.739 1.548 10.525 4.334l133.116 133.116c2.787 2.786 4.335 6.656 4.335 10.525zM514.273 890.273v-260.273h-332.955v-277.227h65.364v211.955h600.546v-211.955h65.273v277.227h-332.955v260.273z" />
<glyph unicode="&#xe901;" glyph-name="folder-no-color" d="M194.559 846.275c-77.457-0.137-140.211-62.89-140.348-140.334v-515.869c0.137-77.457 62.892-140.211 140.336-140.348h634.893c77.457 0.137 140.211 62.892 140.348 140.336v396.602c0 77.561-62.808 140.453-140.336 140.59h-296.852l-47.104 62.885c-25.923 34.066-66.407 55.898-112 56.139h-178.937zM194.553 787.607h178.906c26.48-0.030 50.004-12.656 64.908-32.207l0.146-0.199 47.104-62.766 17.709-24.094h326.113c45.125-0.069 81.68-36.665 81.68-81.799v-396.471c-0.042-27.788-13.947-52.311-35.156-67.064l-725.621 651.525c12.744 8.239 27.912 13.050 44.211 13.074zM115.25 725.406l687.184-617.014h-607.875c-45.083 0.068-81.61 36.598-81.678 81.674v515.861c0.010 6.714 0.834 13.236 2.369 19.479z" />
<glyph unicode="&#xe902;" glyph-name="whiteboard" horiz-adv-x="878" d="M65.524 945.762c-29.444 0-53.333-23.889-53.333-53.333v-888.857c0-29.444 23.889-53.333 53.333-53.333h746.667c29.444 0 53.333 23.889 53.333 53.333v640c0 29.444-17.206 70.54-37.762 91.095l-173.333 173.333c-20.556 20.556-61.698 37.762-91.143 37.762h-497.762zM83.286 874.667h426.667v-231.095c0-29.444 23.889-53.333 53.333-53.333h231.143v-568.905h-711.143v853.333zM581.095 870.238c9.444-3.333 18.873-8.349 22.762-12.238l173.905-173.905c3.889-3.889 8.857-13.317 12.19-22.762h-208.857v208.905zM446.333 524.286c-17.277 0.517-34.937-1.027-52.952-4.571-22.15-4.43-42.984-11.806-62.476-22.143-19.492-10.632-37.062-23.776-52.714-39.429-15.357-15.357-28.321-32.794-38.952-52.286-10.632-19.196-18.189-39.85-22.619-62-7.974-41.346-5.87-79.57 6.238-114.714 12.404-35.144 30.421-65.145 54.048-89.952 23.626-24.512 50.629-42.977 81.048-55.381 30.714-12.108 60.087-15.954 88.143-11.524 18.31 2.658 31.188 12.718 38.571 30.143 7.679 17.72 7.364 34.709-0.905 50.952-10.337 20.082-9.623 39.575 2.19 58.476 11.813 19.196 29.117 28.762 51.857 28.762h70.429c15.948 0 29.539 5.635 40.762 16.857 11.222 11.518 16.81 25.243 16.81 41.19 0 34.849-7.51 67.353-22.571 97.476-14.766 29.828-34.707 55.089-59.809 75.762-24.808 20.673-53.599 35.559-86.381 44.714-16.538 4.578-33.438 7.15-50.714 7.667zM439 467.476c7.974 0 14.636-2.817 19.952-8.429 5.611-5.316 8.429-11.979 8.429-19.952s-2.817-14.77-8.429-20.381c-5.316-5.316-11.978-7.952-19.952-7.952s-14.77 2.636-20.381 7.952c-5.316 5.611-7.952 12.407-7.952 20.381s2.636 14.636 7.952 19.952c5.611 5.611 12.407 8.429 20.381 8.429zM325.619 410.762c7.974 0 14.589-2.817 19.905-8.429 5.611-5.316 8.429-11.979 8.429-19.952s-2.817-14.77-8.429-20.381c-5.316-5.316-11.931-7.952-19.905-7.952s-14.77 2.636-20.381 7.952c-5.316 5.611-8 12.407-8 20.381s2.684 14.636 8 19.952c5.611 5.611 12.407 8.429 20.381 8.429zM552.429 410.762c7.974 0 14.636-2.817 19.952-8.429 5.611-5.316 8.381-11.979 8.381-19.952s-2.77-14.77-8.381-20.381c-5.316-5.316-11.978-7.952-19.952-7.952s-14.77 2.636-20.381 7.952c-5.316 5.611-7.952 12.407-7.952 20.381s2.636 14.636 7.952 19.952c5.611 5.611 12.407 8.429 20.381 8.429zM297.238 297.333c7.974 0 14.636-2.77 19.952-8.381 5.611-5.316 8.429-11.978 8.429-19.952s-2.817-14.77-8.429-20.381c-5.316-5.316-11.979-8-19.952-8s-14.722 2.684-20.333 8c-5.316 5.611-8 12.407-8 20.381s2.684 14.636 8 19.952c5.611 5.611 12.359 8.381 20.333 8.381z" />
<glyph unicode="&#xe903;" glyph-name="new-template" horiz-adv-x="878" d="M65.524 945.762c-29.444 0-53.333-23.889-53.333-53.333v-888.857c0-29.444 23.889-53.333 53.333-53.333h746.667c29.444 0 53.333 23.889 53.333 53.333v640c0 29.444-17.206 70.54-37.762 91.095l-173.333 173.333c-20.556 20.556-61.698 37.762-91.143 37.762h-497.762zM83.286 874.667h426.667v-231.095c0-29.444 23.889-53.333 53.333-53.333h231.143v-568.905h-711.143v853.333zM581.095 870.238c9.444-3.333 18.873-8.349 22.762-12.238l173.905-173.905c3.889-3.889 8.857-13.317 12.19-22.762h-208.857v208.905zM414.476 490.857c-12.963 0-23.476-10.514-23.476-23.476v-101.762h-101.762c-12.963 0-23.476-10.514-23.476-23.476v-46.952c0-12.963 10.514-23.476 23.476-23.476h101.762v-101.762c0-12.963 10.514-23.476 23.476-23.476h46.952c12.963 0 23.476 10.514 23.476 23.476v101.762h101.762c12.963 0 23.476 10.514 23.476 23.476v46.952c0 12.963-10.514 23.476-23.476 23.476h-101.762v101.762c0 12.963-10.514 23.476-23.476 23.476h-46.952z" />
<glyph unicode="&#xe904;" glyph-name="shared-folder" d="M829.44 727.251h-296.84l-47.104 62.886c-25.923 34.066-66.406 55.898-111.999 56.139h-178.938c-77.457-0.137-140.211-62.891-140.348-140.335v-515.868c0.137-77.457 62.891-140.211 140.335-140.348h634.893c77.457 0.137 140.211 62.891 140.348 140.335v396.482c0 0.036 0 0.078 0 0.121 0 77.561-62.807 140.452-140.335 140.589h-0.013zM911.119 190.072c-0.068-45.083-36.597-81.611-81.673-81.679h-634.887c-45.083 0.068-81.611 36.597-81.679 81.673v515.862c0.068 45.083 36.597 81.611 81.673 81.679h178.906c26.48-0.030 50.004-12.656 64.908-32.207l0.146-0.199 47.104-62.765 17.709-24.094h326.114c45.125-0.069 81.679-36.665 81.679-81.799 0 0 0 0 0 0v0zM614.4 451.132c0.071 0 0.156 0 0.24 0 34.132 0 61.801 27.669 61.801 61.801s-27.669 61.801-61.801 61.801c-34.047 0-61.664-27.532-61.801-61.547v-0.013c0-0.018 0-0.040 0-0.061 0-7.309 1.235-14.33 3.508-20.865l-0.135 0.446-103.966-60.235c-0.474 0.655-1.031 1.213-1.665 1.672l-0.021 0.015c-10.785 9.46-25.010 15.231-40.582 15.231-34.065 0-61.681-27.615-61.681-61.681 0-11.035 2.898-21.393 7.974-30.355l-0.16 0.307c11.046-18 30.619-29.824 52.953-29.824 16.92 0 32.255 6.786 43.431 17.785l-0.008-0.008 103.966-60.235c-2.138-5.921-3.374-12.754-3.374-19.876 0-0.085 0-0.171 0.001-0.256v0.013c-0.003-0.217-0.005-0.474-0.005-0.731 0-7.409 1.417-14.486 3.994-20.977l-0.135 0.384c8.944-23.66 31.407-40.178 57.728-40.178 33.999 0 61.56 27.562 61.56 61.56 0 28.833-19.822 53.036-46.582 59.725l-0.424 0.090c-4.366 1.539-9.418 2.572-14.664 2.884l-0.154 0.007c-19.639 0-37.082-9.398-48.078-23.943l-0.11-0.152-101.798 59.031c3.729 7.764 5.908 16.879 5.908 26.504s-2.179 18.74-6.070 26.88l0.162-0.376 101.798 58.79c11.336-14.332 28.681-23.481 48.167-23.612h0.022z" />
<glyph unicode="&#xe905;" glyph-name="file-upload" horiz-adv-x="878" d="M65.524 945.762c-29.444 0-53.333-23.889-53.333-53.333v-888.857c0-29.444 23.889-53.333 53.333-53.333h746.667c29.444 0 53.333 23.889 53.333 53.333v640c0 29.444-17.206 70.54-37.762 91.095l-173.333 173.333c-20.556 20.556-61.698 37.762-91.143 37.762h-497.762zM83.286 874.667h426.667v-231.095c0-29.444 23.889-53.333 53.333-53.333h231.143v-568.905h-711.143v853.333zM581.095 870.238c9.444-3.333 18.873-8.349 22.762-12.238l173.905-173.905c3.889-3.889 8.857-13.317 12.19-22.762h-208.857v208.905zM438.857 487.905c-8.019 0-15.814-3.102-21.238-8.762l-153.524-153.524c-5.66-5.66-8.952-13.457-8.952-21.476s3.292-15.53 8.952-21.19l17.667-17.714c5.424-5.66 13.219-8.952 21.238-8.952s15.814 3.292 21.238 8.952l69.333 69.095v-166c0-16.981 14.153-27.619 30.19-27.619h30.19c16.038 0 30.19 10.638 30.19 27.619v166l69.333-69.095c5.424-5.66 13.219-8.952 21.238-8.952s15.816 3.292 21.476 8.952l17.667 17.714c5.425 5.66 8.714 13.172 8.714 21.19s-3.29 15.816-8.714 21.476l-153.524 153.524c-5.66 5.66-13.457 8.762-21.476 8.762z" />
<glyph unicode="&#xe906;" glyph-name="template" horiz-adv-x="878" d="M65.524 945.762c-29.444 0-53.333-23.889-53.333-53.333v-888.857c0-29.444 23.889-53.333 53.333-53.333h746.667c29.444 0 53.333 23.889 53.333 53.333v640c0 29.444-17.206 70.54-37.762 91.095l-173.333 173.333c-20.556 20.556-61.698 37.762-91.143 37.762h-497.762zM83.286 874.667h426.667v-231.095c0-29.444 23.889-53.333 53.333-53.333h231.143v-568.905h-711.143v853.333zM581.095 870.238c9.444-3.333 18.873-8.349 22.762-12.238l173.905-173.905c3.889-3.889 8.857-13.317 12.19-22.762h-208.857v208.905zM535.524 513.905c-63.766 0-115.619-51.901-115.619-115.667s51.854-115.619 115.619-115.619c48.792 0 92.974 31.714 109.238 77.667 2.84 8.261 5.905 18.862 5.905 27.381 0 5.163-3.075 9.048-8.238 9.048s-65.052-37.714-73.571-42.619l-49.857 27.619v57.857l75.667 43.619c2.323 1.549 4.143 4.398 4.143 7.238 0 3.098-1.562 5.431-4.143 7.238-15.748 10.585-40.297 16.238-59.143 16.238zM412.667 349.714l-175.81-175.81c-6.196-6.196-9.81-14.699-9.81-23.476s3.614-17.3 9.81-23.238l27.333-27.905c6.196-5.938 14.746-9.524 23.524-9.524s17.3 3.586 23.238 9.524l176.048 176.095c-33.819 13.424-60.909 40.514-74.333 74.333zM304.238 183.476c9.036 0 16.524-7.488 16.524-16.524s-7.488-16.524-16.524-16.524c-9.036 0-16.524 7.488-16.524 16.524s7.488 16.524 16.524 16.524z" />
<glyph unicode="&#xe907;" glyph-name="poll" horiz-adv-x="878" d="M65.524 945.762c-29.444 0-53.333-23.889-53.333-53.333v-888.857c0-29.444 23.889-53.333 53.333-53.333h746.667c29.444 0 53.333 23.889 53.333 53.333v640c0 29.444-17.206 70.54-37.762 91.095l-173.333 173.333c-20.556 20.556-61.698 37.762-91.143 37.762h-497.762zM83.286 874.667h426.667v-231.095c0-29.444 23.889-53.333 53.333-53.333h231.143v-568.905h-711.143v853.333zM581.095 870.238c9.444-3.333 18.873-8.349 22.762-12.238l173.905-173.905c3.889-3.889 8.857-13.317 12.19-22.762h-208.857v208.905zM569.762 482.524v-349.238h162.714v349.238h-162.714zM358.238 385.476v-252.19h162.714v252.19h-162.714zM146.667 277.381v-144.095h162.762v144.095h-162.762z" />
<glyph unicode="&#xe908;" glyph-name="slide" horiz-adv-x="878" d="M65.524 945.762c-29.444 0-53.333-23.889-53.333-53.333v-888.857c0-29.444 23.889-53.333 53.333-53.333h746.667c29.444 0 53.333 23.889 53.333 53.333v640c0 29.444-17.206 70.54-37.762 91.095l-173.333 173.333c-20.556 20.556-61.698 37.762-91.143 37.762h-497.762zM83.286 874.667h426.667v-231.095c0-29.444 23.889-53.333 53.333-53.333h231.143v-568.905h-711.143v853.333zM581.095 870.238c9.444-3.333 18.873-8.349 22.762-12.238l173.905-173.905c3.889-3.889 8.857-13.317 12.19-22.762h-208.857v208.905zM142.286 550.714v-255.238h133.19v-109.762h133.143v-109.81h326.809v255.381h-133.143v109.81h-133.143v109.619h-326.857zM191.048 501.905h229.286v-60.81h-144.857v-96.81h-84.429v157.619zM324.238 392.333h229.286v-61.048h-144.905v-96.81h-84.381v157.857zM457.381 282.524h229.286v-157.81h-229.286v157.81z" />
<glyph unicode="&#xe909;" glyph-name="sheet" horiz-adv-x="878" d="M65.524 945.762c-29.444 0-53.333-23.889-53.333-53.333v-888.857c0-29.444 23.889-53.333 53.333-53.333h746.667c29.444 0 53.333 23.889 53.333 53.333v640c0 29.444-17.206 70.54-37.762 91.095l-173.333 173.333c-20.556 20.556-61.698 37.762-91.143 37.762h-497.762zM83.286 874.667h426.667v-231.095c0-29.444 23.889-53.333 53.333-53.333h231.143v-568.905h-711.143v853.333zM581.095 870.238c9.444-3.333 18.873-8.349 22.762-12.238l173.905-173.905c3.889-3.889 8.857-13.317 12.19-22.762h-208.857v208.905zM141.286 532.571v-463.81h598.429v463.81h-598.429zM190.048 483.762h134.429v-158.714h-134.429v158.714zM373.286 483.762h134.429v-158.714h-134.429v158.714zM556.524 483.762h134.429v-158.714h-134.429v158.714zM190.048 276.286h134.429v-158.762h-134.429v158.762zM373.286 276.286h134.429v-158.762h-134.429v158.762zM556.524 276.286h134.429v-158.762h-134.429v158.762z" />
<glyph unicode="&#xe90a;" glyph-name="folder-open" d="M100.232 590.035h828.717c-5.175 69.899-63.091 124.668-133.829 124.808h-283.843l-44.936 60.235c-24.766 32.712-63.599 53.649-107.326 53.73h-170.599c-0.036 0-0.078 0-0.121 0-73.968 0-133.946-59.894-134.084-133.83v-213.366l10.12 76.74c2.295 17.95 17.476 31.684 35.865 31.684 0.012 0 0.025 0 0.037 0h-0.002zM929.19 541.606h-805.948c-13.269-0.004-24.238-9.848-26.006-22.632l-0.016-0.137-43.008-317.801c-0.002-0.261-0.003-0.569-0.003-0.877 0-6.111 0.483-12.11 1.413-17.96l-0.085 0.646c0.904-6.888 2.169-12.966 3.837-18.875l-0.223 0.925c16.563-56.812 68.138-97.63 129.257-97.702h606.698c61.093 0.086 112.628 40.906 128.907 96.752l0.237 0.95c1.459 5.065 2.725 11.228 3.544 17.531l0.070 0.66c0.844 5.201 1.327 11.196 1.327 17.304 0 0.227-0.001 0.454-0.002 0.681v-0.035l40.237 295.755c0.219 1.556 0.344 3.354 0.344 5.18 0 21.624-17.529 39.153-39.153 39.153-0.036 0-0.073 0-0.109 0h0.006z" />
<glyph unicode="&#xe90b;" glyph-name="kanban" horiz-adv-x="878" d="M65.524 945.762c-29.444 0-53.333-23.889-53.333-53.333v-888.857c0-29.444 23.889-53.333 53.333-53.333h746.667c29.444 0 53.333 23.889 53.333 53.333v640c0 29.444-17.206 70.54-37.762 91.095l-173.333 173.333c-20.556 20.556-61.698 37.762-91.143 37.762h-497.762zM83.286 874.667h426.667v-231.095c0-29.444 23.889-53.333 53.333-53.333h231.143v-568.905h-711.143v853.333zM581.095 870.238c9.444-3.333 18.873-8.349 22.762-12.238l173.905-173.905c3.889-3.889 8.857-13.317 12.19-22.762h-208.857v208.905zM146.667 493.81v-90.143h162.762v90.143h-162.762zM358.238 493.81v-90.143h162.714v90.143h-162.714zM569.762 493.81v-90.143h162.714v90.143h-162.714zM146.667 358.619v-90.143h162.762v90.143h-162.762zM569.762 358.619v-90.143h162.714v90.143h-162.714zM146.667 223.429v-90.143h162.762v90.143h-162.762z" />
<glyph unicode="&#xe90c;" glyph-name="folder" d="M373.459 846.276h-178.899c-77.457-0.137-140.211-62.891-140.348-140.335v-515.868c0.137-77.457 62.891-140.211 140.335-140.348h634.893c77.457 0.137 140.211 62.891 140.348 140.335v396.482c0 0.036 0 0.078 0 0.121 0 77.561-62.807 140.452-140.335 140.589h-296.853l-47.104 62.886c-25.923 34.066-66.406 55.898-111.999 56.139h-0.039z" />
<glyph unicode="&#xe90d;" glyph-name="shared-folder-open" d="M98.424 593.288h797.274c-4.8 67.457-60.657 120.376-128.894 120.471h-272.876l-43.249 57.705c-23.816 31.47-61.17 51.611-103.232 51.682h-164.213c-0.036 0-0.079 0-0.121 0-71.191 0-128.904-57.712-128.904-128.904 0-0.17 0-0.339 0.001-0.508v0.026-204.8l9.638 73.487c2.062 17.437 16.753 30.833 34.574 30.84h0.001zM900.759 255.608l33.973 248.049c0.196 1.447 0.308 3.12 0.308 4.819 0 20.873-16.906 37.797-37.772 37.828h-776.797c-12.746-0.016-23.272-9.5-24.923-21.796l-0.014-0.129-41.321-304.791c-0.002-0.25-0.003-0.546-0.003-0.843 0-5.87 0.483-11.628 1.412-17.235l-0.083 0.609c0.793-6.689 1.977-12.655 3.576-18.449l-0.203 0.861c15.92-54.648 65.53-93.912 124.319-93.967h583.566c0.061 0 0.133 0 0.205 0 16.48 0 32.227 3.14 46.675 8.853l-0.86-0.3c16.639-15.985 39.283-25.829 64.225-25.829 51.231 0 92.762 41.531 92.762 92.762 0 42.798-28.984 78.827-68.394 89.528l-0.65 0.15zM766.795 148.51h-583.56c-32.265 0.073-59.5 21.523-68.297 50.935l-0.13 0.506c-0.742 2.66-1.376 5.889-1.775 9.19l-0.032 0.327v1.566c0 1.566 0 3.373 0 5.301l36.382 272.023h724.751l-32.407-236.845c-1.82-0.63-3.331-1.281-4.788-2.025l0.21 0.097c-16.682-8.067-30.192-20.454-39.403-35.727l-0.232-0.415c-1.574-2.381-3.028-5.115-4.218-7.987l-0.119-0.325c-5.551-11.368-8.797-24.735-8.797-38.86 0-0.23 0.001-0.46 0.003-0.689v0.035c0-0.017 0-0.037 0-0.057 0-5.166 0.394-10.241 1.154-15.195l-0.070 0.554c-5.405-1.532-11.612-2.412-18.026-2.412-0.228 0-0.455 0.001-0.682 0.003h0.035zM877.026 84.781c-20.129 0.108-38.483 7.622-52.493 19.954l0.089-0.077c-14.994 12.543-25.212 30.362-27.788 50.568l-0.041 0.392c-0.537 3.145-0.844 6.769-0.844 10.463 0 0.091 0 0.182 0.001 0.273v-0.014c-0.001 0.109-0.001 0.239-0.001 0.368 0 12.484 2.89 24.293 8.038 34.794l-0.207-0.466c1.278 2.771 2.523 5.062 3.896 7.265l-0.161-0.278c7.898 12.884 18.884 23.175 31.958 30.024l0.449 0.214c0.692 0.493 1.491 0.902 2.346 1.186l0.064 0.018c10.065 4.991 21.914 7.922 34.445 7.951h0.010c0.046 0 0.1 0 0.154 0 7.802 0 15.336-1.144 22.444-3.275l-0.553 0.142c35.119-9.412 60.555-40.954 60.555-78.437 0-44.777-36.299-81.077-81.077-81.077-0.451 0-0.902 0.004-1.351 0.011l0.068-0.001zM906.059 183.206c9.581 0 17.348 7.767 17.348 17.348s-7.767 17.348-17.348 17.348v0c-0.002 0-0.004 0-0.007 0-9.411 0-17.072-7.495-17.341-16.841l-0.001-0.025c-0.004-0.12-0.006-0.262-0.006-0.404 0-1.849 0.356-3.615 1.003-5.232l-0.034 0.095-29.274-16.986c-3.089 3.105-7.328 5.063-12.025 5.18h-0.022c-9.003-0.772-16.019-8.271-16.019-17.408s7.015-16.636 15.954-17.404l0.065-0.004c4.719 0.117 8.958 2.075 12.046 5.179l0.001 0.001 12.047-7.228 16.504-9.638c-0.536-1.568-0.846-3.375-0.846-5.255 0-0.101 0.001-0.202 0.003-0.302v0.015c0-9.581 7.767-17.348 17.348-17.348s17.348 7.767 17.348 17.348c0 9.581-7.767 17.348-17.348 17.348v0c-5.563-0.038-10.508-2.653-13.705-6.709l-0.028-0.037-16.143 9.397-12.047 7.228c1.007 2.155 1.621 4.672 1.686 7.326v0.023c-0.052 2.758-0.667 5.36-1.736 7.712l0.050-0.122 28.672 16.625c3.116-4.367 8.151-7.19 13.848-7.228h0.006z" />
<glyph unicode="&#xe90e;" glyph-name="code" horiz-adv-x="878" d="M827.746 734.667l-173.333 173.333c-20.556 20.556-61.667 37.778-91.111 37.778h-497.778c-29.444 0-53.333-23.889-53.333-53.333v-888.889c0-29.444 23.889-53.333 53.333-53.333h746.667c29.444 0 53.333 23.889 53.333 53.333v640c0 29.444-17.222 70.556-37.778 91.111zM581.079 870.222c9.444-3.333 18.889-8.333 22.778-12.222l173.889-173.889c3.889-3.889 8.889-13.333 12.222-22.778h-208.889zM794.413 21.333h-711.111v853.333h426.667v-231.111c0-29.444 23.889-53.333 53.333-53.333h231.111zM278.857 519.111l-125.556-167.222c-4.444-6.111-4.444-15 0-21.111l125.556-167.222c6.111-7.778 17.222-9.444 25-3.333l28.333 21.111c7.778 6.111 9.444 17.222 3.333 25l-101.111 135 101.111 135c6.111 7.778 4.444 18.889-3.333 25l-28.333 21.111c-7.777 6.111-18.889 4.444-25-3.333zM724.413 351.889l-125.556 167.222c-6.111 7.778-17.222 9.444-25 3.333l-28.333-21.111c-7.777-6.111-9.444-17.222-3.333-25l101.111-135-101.111-135c-6.111-7.778-4.444-18.889 3.333-25l28.333-21.111c7.778-6.111 18.889-4.444 25 3.333l125.556 167.222c4.444 6.111 4.444 15 0 21.111zM379.968 95.778l35-5.556c9.444-1.667 18.889 4.444 20.556 14.444l76.667 461.667c1.667 9.444-4.444 18.889-14.444 20.556l-35 5.556c-9.444 1.667-18.889-4.444-20.556-14.444l-76.667-461.667c-1.667-9.444 4.444-18.889 14.444-20.556z" />
<glyph unicode="&#xe90f;" glyph-name="richtext" horiz-adv-x="878" d="M827.746 734.667l-173.333 173.333c-20.556 20.556-61.667 37.778-91.111 37.778h-497.778c-29.444 0-53.333-23.889-53.333-53.333v-888.889c0-29.444 23.889-53.333 53.333-53.333h746.667c29.444 0 53.333 23.889 53.333 53.333v640c0 29.444-17.222 70.556-37.778 91.111zM581.079 870.222c9.444-3.333 18.889-8.333 22.778-12.222l173.889-173.889c3.889-3.889 8.889-13.333 12.222-22.778h-208.889zM794.413 21.333h-711.111v853.333h426.667v-231.111c0-29.444 23.889-53.333 53.333-53.333h231.111zM225.524 501.333v-35.556c0-10 7.778-17.778 17.778-17.778h391.111c10 0 17.778 7.778 17.778 17.778v35.556c0 10-7.778 17.778-17.778 17.778h-391.111c-10 0-17.778-7.778-17.778-17.778zM634.413 376.889h-391.111c-10 0-17.778-7.778-17.778-17.778v-35.556c0-10 7.778-17.778 17.778-17.778h391.111c10 0 17.778 7.778 17.778 17.778v35.556c0 10-7.778 17.778-17.778 17.778zM634.413 234.667h-391.111c-10 0-17.778-7.778-17.778-17.778v-35.556c0-10 7.778-17.778 17.778-17.778h391.111c10 0 17.778 7.778 17.778 17.778v35.556c0 10-7.778 17.778-17.778 17.778z" />
<glyph unicode="&#xe910;" glyph-name="form-poll" horiz-adv-x="1094" d="M667.572 771.752c0 3.87-1.548 7.739-4.335 10.525l-21.050 21.051c-2.787 2.786-6.655 4.334-10.525 4.334s-7.739-1.548-10.525-4.334l-101.54-101.694-45.507 45.662c-2.787 2.786-6.655 4.334-10.525 4.334s-7.739-1.548-10.525-4.334l-21.051-21.051c-2.787-2.786-4.335-6.656-4.335-10.525s1.548-7.739 4.335-10.525l77.083-77.083c2.787-2.786 6.655-4.334 10.525-4.334s7.739 1.548 10.525 4.334l133.116 133.116c2.787 2.786 4.335 6.656 4.335 10.525zM964.853 659.687c0 3.87-1.548 7.739-4.335 10.525l-45.506 45.507 45.507 45.507c2.787 2.786 4.335 6.656 4.335 10.525s-1.548 7.739-4.335 10.525l-21.051 21.051c-2.787 2.786-6.655 4.334-10.525 4.334s-7.739-1.548-10.525-4.334l-45.507-45.507-45.507 45.507c-2.787 2.786-6.655 4.334-10.525 4.334s-7.739-1.548-10.525-4.334l-21.051-21.051c-2.787-2.786-4.335-6.656-4.335-10.525s1.548-7.739 4.335-10.525l45.507-45.507-45.507-45.507c-2.787-2.786-4.335-6.656-4.335-10.525s1.548-7.739 4.335-10.525l21.051-21.051c2.787-2.786 6.655-4.334 10.525-4.334s7.739 1.548 10.525 4.334l45.507 45.507 45.507-45.507c2.787-2.786 6.655-4.334 10.525-4.334s7.739 1.548 10.525 4.334l21.051 21.051c2.787 2.786 4.335 6.656 4.335 10.525zM300.535 659.687c0 3.87-1.548 7.739-4.335 10.525l-45.506 45.507 45.507 45.507c2.787 2.786 4.335 6.656 4.335 10.525s-1.548 7.739-4.335 10.525l-21.051 21.051c-2.787 2.786-6.655 4.334-10.525 4.334s-7.739-1.548-10.525-4.334l-45.507-45.507-45.507 45.507c-2.787 2.786-6.655 4.334-10.525 4.334s-7.739-1.548-10.525-4.334l-21.051-21.051c-2.787-2.786-4.335-6.656-4.335-10.525s1.548-7.739 4.335-10.525l45.507-45.507-45.507-45.507c-2.787-2.786-4.335-6.656-4.335-10.525s1.548-7.739 4.335-10.525l21.051-21.051c2.787-2.786 6.655-4.334 10.525-4.334s7.739 1.548 10.525 4.334l45.507 45.507 45.507-45.507c2.787-2.786 6.655-4.334 10.525-4.334s7.739 1.548 10.525 4.334l21.051 21.051c2.787 2.786 4.335 6.656 4.335 10.525zM330.094 505.894c0 3.87-1.548 7.739-4.335 10.525l-21.050 21.051c-2.787 2.786-6.655 4.334-10.525 4.334s-7.739-1.548-10.525-4.334l-101.54-101.694-45.507 45.662c-2.787 2.786-6.655 4.334-10.525 4.334s-7.739-1.548-10.525-4.334l-21.051-21.051c-2.787-2.786-4.335-6.656-4.335-10.525s1.548-7.739 4.335-10.525l77.083-77.083c2.787-2.786 6.655-4.334 10.525-4.334s7.739 1.548 10.525 4.334l133.116 133.116c2.787 2.786 4.335 6.656 4.335 10.525zM665.995 505.894c0 3.87-1.548 7.739-4.335 10.525l-21.050 21.051c-2.787 2.786-6.655 4.334-10.525 4.334s-7.739-1.548-10.525-4.334l-101.54-101.694-45.507 45.662c-2.787 2.786-6.655 4.334-10.525 4.334s-7.739-1.548-10.525-4.334l-21.051-21.051c-2.787-2.786-4.335-6.656-4.335-10.525s1.548-7.739 4.335-10.525l77.083-77.083c2.787-2.786 6.655-4.334 10.525-4.334s7.739 1.548 10.525 4.334l133.116 133.116c2.787 2.786 4.335 6.656 4.335 10.525zM665.995 237.227c0 3.87-1.548 7.739-4.335 10.525l-21.050 21.051c-2.787 2.786-6.655 4.334-10.525 4.334s-7.739-1.548-10.525-4.334l-101.54-101.694-45.507 45.662c-2.787 2.786-6.655 4.334-10.525 4.334s-7.739-1.548-10.525-4.334l-21.051-21.051c-2.787-2.786-4.335-6.656-4.335-10.525s1.548-7.739 4.335-10.525l77.083-77.083c2.787-2.786 6.655-4.334 10.525-4.334s7.739 1.548 10.525 4.334l133.116 133.116c2.787 2.786 4.335 6.656 4.335 10.525zM999.093 237.227c0 3.87-1.548 7.739-4.335 10.525l-21.050 21.051c-2.787 2.786-6.655 4.334-10.525 4.334s-7.739-1.548-10.525-4.334l-101.54-101.694-45.507 45.662c-2.787 2.786-6.655 4.334-10.525 4.334s-7.739-1.548-10.525-4.334l-21.051-21.051c-2.787-2.786-4.335-6.656-4.335-10.525s1.548-7.739 4.335-10.525l77.083-77.083c2.787-2.786 6.655-4.334 10.525-4.334s7.739 1.548 10.525 4.334l133.116 133.116c2.787 2.786 4.335 6.656 4.335 10.525zM832.205 352.915h-31.571q-16.264 26.256-24.024 49.855-7.76 23.705-7.76 46.985t7.76 47.091q7.866 23.918 24.024 49.961h31.571q-13.606-25.193-20.41-49.323-6.803-24.024-6.803-47.516t6.697-47.623q6.803-24.13 20.516-49.43zM913.617 352.915q13.607 25.3 20.41 49.43t6.804 47.623-6.804 47.516q-6.803 24.13-20.41 49.323h31.571q16.158-26.044 23.918-49.961 7.866-23.811 7.866-47.091t-7.76-46.985q-7.76-23.599-24.024-49.855zM169.429 84.249h-31.571q-16.264 26.256-24.024 49.855-7.76 23.705-7.76 46.985t7.76 47.091q7.866 23.918 24.024 49.961h31.571q-13.606-25.193-20.41-49.323-6.803-24.024-6.803-47.516t6.697-47.623q6.803-24.13 20.516-49.43zM250.84 84.249q13.607 25.3 20.41 49.43t6.804 47.623-6.804 47.516q-6.803 24.13-20.41 49.323h31.571q16.158-26.044 23.918-49.961 7.866-23.811 7.866-47.091t-7.76-46.985q-7.76-23.599-24.024-49.855z" />
<glyph unicode="&#xe911;" glyph-name="file" horiz-adv-x="878" d="M827.745 734.666l-173.333 173.333c-20.556 20.556-61.667 37.778-91.111 37.778h-497.777c-29.444 0-53.333-23.889-53.333-53.333v-888.887c0-29.444 23.889-53.333 53.333-53.333h746.665c29.444 0 53.333 23.889 53.333 53.333v639.999c0 29.444-17.222 70.555-37.778 91.111zM581.079 870.221c9.444-3.333 18.889-8.333 22.778-12.222l173.889-173.889c3.889-3.889 8.889-13.333 12.222-22.778h-208.889zM794.412 21.334h-711.11v853.332h426.666v-231.111c0-29.444 23.889-53.333 53.333-53.333h231.111z" />
<glyph unicode="&#xe912;" glyph-name="palette" d="M408.6 950c-198.8-38.8-359-198.6-398.2-396.8-74-374 263.4-652.8 517.6-613.4 82.4 12.8 122.8 109.2 85 183.4-46.2 90.8 19.8 196.8 121.8 196.8h159.4c71.6 0 129.6 59.2 129.8 130.6-1 315.2-287.8 563.2-615.4 499.4zM192 320c-35.4 0-64 28.6-64 64s28.6 64 64 64 64-28.6 64-64-28.6-64-64-64zM256 576c-35.4 0-64 28.6-64 64s28.6 64 64 64 64-28.6 64-64-28.6-64-64-64zM512 704c-35.4 0-64 28.6-64 64s28.6 64 64 64 64-28.6 64-64-28.6-64-64-64zM768 576c-35.4 0-64 28.6-64 64s28.6 64 64 64 64-28.6 64-64-28.6-64-64-64z" />
<glyph unicode="&#xe913;" glyph-name="folder-upload" d="M829.44 727.251h-296.84l-47.104 62.886c-25.923 34.066-66.406 55.898-111.999 56.139h-178.938c-77.457-0.137-140.211-62.891-140.348-140.335v-515.868c0.137-77.457 62.891-140.211 140.335-140.348h634.893c77.457 0.137 140.211 62.891 140.348 140.335v396.482c0 0.036 0 0.078 0 0.121 0 77.561-62.807 140.452-140.335 140.589h-0.013zM911.119 190.072c-0.068-45.083-36.597-81.611-81.673-81.679h-634.887c-45.083 0.068-81.611 36.597-81.679 81.673v515.862c0.068 45.083 36.597 81.611 81.673 81.679h178.906c26.48-0.030 50.004-12.656 64.908-32.207l0.146-0.199 47.104-62.765 17.709-24.094h326.114c45.125-0.069 81.679-36.665 81.679-81.799 0 0 0 0 0 0v0zM562.838 166.883h-102.039v203.957h-72.523l123.723 214.076 123.723-214.076h-72.885v-203.957z" />
<glyph unicode="&#xe914;" glyph-name="add-bottom" d="M108.793 271.501c-15.312 0-27.996 12.684-27.996 27.996v55.992c0 15.312 12.684 28.006 27.996 28.006h225.414v-111.993zM108.793 495.478c-15.312 0-27.996 12.694-27.996 28.006v55.992c0 15.312 12.684 27.996 27.996 27.996h403.491v-111.993zM108.793 719.465c-15.312 0-27.996 12.694-27.996 28.006v55.992c0 15.312 12.684 27.996 27.996 27.996h615.968c15.312 0 27.996-12.684 27.996-27.996v-55.992c0-15.312-12.684-28.006-27.996-28.006zM943.202 287.839c0-19.465-15.792-35.257-35.258-35.257h-152.782v-152.782c0-19.465-15.792-35.257-35.258-35.257h-70.515c-19.465 0-35.257 15.792-35.257 35.257v152.782h-152.782c-19.465 0-35.257 15.792-35.257 35.257v70.515c0 19.465 15.792 35.258 35.257 35.258h152.782v152.782c0 19.465 15.792 35.258 35.257 35.258h70.515c19.465 0 35.258-15.792 35.258-35.258v-152.782h152.782c19.465 0 35.258-15.792 35.258-35.258z" />
<glyph unicode="&#xe915;" glyph-name="add-top" d="M108.793 624.499c-15.312 0-27.996-12.684-27.996-27.996v-55.992c0-15.312 12.684-28.006 27.996-28.006h225.414v111.993zM108.793 400.522c-15.312 0-27.996-12.694-27.996-28.006v-55.992c0-15.312 12.684-27.996 27.996-27.996h403.491v111.993zM108.793 176.535c-15.312 0-27.996-12.694-27.996-28.006v-55.992c0-15.312 12.684-27.996 27.996-27.996h615.968c15.312 0 27.996 12.684 27.996 27.996v55.992c0 15.312-12.684 28.006-27.996 28.006zM943.202 608.161c0 19.465-15.792 35.257-35.258 35.257h-152.782v152.782c0 19.465-15.792 35.257-35.258 35.257h-70.515c-19.465 0-35.257-15.792-35.257-35.257v-152.782h-152.782c-19.465 0-35.257-15.792-35.257-35.257v-70.515c0-19.465 15.792-35.258 35.257-35.258h152.782v-152.782c0-19.465 15.792-35.258 35.257-35.258h70.515c19.465 0 35.258 15.792 35.258 35.258v152.782h152.782c19.465 0 35.258 15.792 35.258 35.258z" />
<glyph unicode="&#xe916;" glyph-name="form-list-check" horiz-adv-x="1094" d="M1012.362 763.843c0 8.831-7.792 16.623-16.623 16.623h-631.687c-8.831 0-16.623-7.792-16.623-16.623v-99.74c0-8.831 7.792-16.623 16.623-16.623h631.687c8.831 0 16.623 7.792 16.623 16.623zM1012.362 497.87c0 8.831-7.792 16.623-16.623 16.623h-631.687c-8.831 0-16.623-7.792-16.623-16.623v-99.74c0-8.831 7.792-16.623 16.623-16.623h631.687c8.831 0 16.623 7.792 16.623 16.623zM1012.362 231.897c0 8.831-7.792 16.623-16.623 16.623h-631.687c-8.831 0-16.623-7.792-16.623-16.623v-99.74c0-8.831 7.792-16.623 16.623-16.623h631.687c8.831 0 16.623 7.792 16.623 16.623zM279.136 239.834c0 22.077-17.911 39.988-39.988 39.988h-115.521c-22.077 0-39.988-17.911-39.988-39.988v-115.521c0-22.077 17.911-39.988 39.988-39.988h115.521c22.077 0 39.988 17.911 39.988 39.988zM307.396 779.338c0 3.87-1.548 7.739-4.335 10.525l-21.050 21.051c-2.787 2.786-6.655 4.334-10.525 4.334s-7.739-1.548-10.525-4.334l-101.54-101.694-45.507 45.662c-2.787 2.786-6.655 4.334-10.525 4.334s-7.739-1.548-10.525-4.334l-21.051-21.051c-2.787-2.786-4.335-6.656-4.335-10.525s1.548-7.739 4.335-10.525l77.083-77.083c2.787-2.786 6.655-4.334 10.525-4.334s7.739 1.548 10.525 4.334l133.116 133.116c2.787 2.786 4.335 6.656 4.335 10.525zM307.396 513.228c0 3.87-1.548 7.739-4.335 10.525l-21.050 21.051c-2.787 2.786-6.655 4.334-10.525 4.334s-7.739-1.548-10.525-4.334l-101.54-101.694-45.507 45.662c-2.787 2.786-6.655 4.334-10.525 4.334s-7.739-1.548-10.525-4.334l-21.051-21.051c-2.787-2.786-4.335-6.656-4.335-10.525s1.548-7.739 4.335-10.525l77.083-77.083c2.787-2.786 6.655-4.334 10.525-4.334s7.739 1.548 10.525 4.334l133.116 133.116c2.787 2.786 4.335 6.656 4.335 10.525z" />
<glyph unicode="&#xe917;" glyph-name="form-grid-check" horiz-adv-x="1094" d="M645.063 506.257c0 22.077-17.911 39.988-39.988 39.988h-115.521c-22.077 0-39.988-17.911-39.988-39.988v-115.521c0-22.077 17.911-39.988 39.988-39.988h115.521c22.077 0 39.988 17.911 39.988 39.988zM1011.782 771.036c0 22.077-17.911 39.988-39.988 39.988h-115.521c-22.077 0-39.988-17.911-39.988-39.988v-115.521c0-22.077 17.911-39.988 39.988-39.988h115.521c22.077 0 39.988 17.911 39.988 39.988zM279.090 506.257c0 22.077-17.911 39.988-39.988 39.988h-115.521c-22.077 0-39.988-17.911-39.988-39.988v-115.521c0-22.077 17.911-39.988 39.988-39.988h115.521c22.077 0 39.988 17.911 39.988 39.988zM279.136 239.834c0 22.077-17.911 39.988-39.988 39.988h-115.521c-22.077 0-39.988-17.911-39.988-39.988v-115.521c0-22.077 17.911-39.988 39.988-39.988h115.521c22.077 0 39.988 17.911 39.988 39.988zM1011.753 239.834c0 22.077-17.911 39.988-39.988 39.988h-115.521c-22.077 0-39.988-17.911-39.988-39.988v-115.521c0-22.077 17.911-39.988 39.988-39.988h115.521c22.077 0 39.988 17.911 39.988 39.988zM1047.594 513.673c0 3.87-1.548 7.739-4.335 10.525l-21.050 21.051c-2.787 2.786-6.655 4.334-10.525 4.334s-7.739-1.548-10.525-4.334l-101.54-101.694-45.507 45.662c-2.787 2.786-6.655 4.334-10.525 4.334s-7.739-1.548-10.525-4.334l-21.051-21.051c-2.787-2.786-4.335-6.656-4.335-10.525s1.548-7.739 4.335-10.525l77.083-77.083c2.787-2.786 6.655-4.334 10.525-4.334s7.739 1.548 10.525 4.334l133.116 133.116c2.787 2.786 4.335 6.656 4.335 10.525zM676.789 238.106c0 3.87-1.548 7.739-4.335 10.525l-21.050 21.051c-2.787 2.786-6.655 4.334-10.525 4.334s-7.739-1.548-10.525-4.334l-101.54-101.694-45.507 45.662c-2.787 2.786-6.655 4.334-10.525 4.334s-7.739-1.548-10.525-4.334l-21.051-21.051c-2.787-2.786-4.335-6.656-4.335-10.525s1.548-7.739 4.335-10.525l77.083-77.083c2.787-2.786 6.655-4.334 10.525-4.334s7.739 1.548 10.525 4.334l133.116 133.116c2.787 2.786 4.335 6.656 4.335 10.525zM676.789 771.743c0 3.87-1.548 7.739-4.335 10.525l-21.050 21.051c-2.787 2.786-6.655 4.334-10.525 4.334s-7.739-1.548-10.525-4.334l-101.54-101.694-45.507 45.662c-2.787 2.786-6.655 4.334-10.525 4.334s-7.739-1.548-10.525-4.334l-21.051-21.051c-2.787-2.786-4.335-6.656-4.335-10.525s1.548-7.739 4.335-10.525l77.083-77.083c2.787-2.786 6.655-4.334 10.525-4.334s7.739 1.548 10.525 4.334l133.116 133.116c2.787 2.786 4.335 6.656 4.335 10.525zM318.428 771.743c0 3.87-1.548 7.739-4.335 10.525l-21.050 21.051c-2.787 2.786-6.655 4.334-10.525 4.334s-7.739-1.548-10.525-4.334l-101.54-101.694-45.507 45.662c-2.787 2.786-6.655 4.334-10.525 4.334s-7.739-1.548-10.525-4.334l-21.051-21.051c-2.787-2.786-4.335-6.656-4.335-10.525s1.548-7.739 4.335-10.525l77.083-77.083c2.787-2.786 6.655-4.334 10.525-4.334s7.739 1.548 10.525 4.334l133.116 133.116c2.787 2.786 4.335 6.656 4.335 10.525z" />
<glyph unicode="&#xe918;" glyph-name="form-grid-radio" horiz-adv-x="1094" d="M181.227 823.091c-60.1 0-109.091-48.991-109.091-109.091s48.991-109.091 109.091-109.091c60.1 0 108.955 48.991 108.955 109.091s-48.855 109.091-108.955 109.091zM545.091 823.091c-60.1 0-109.091-48.991-109.091-109.091s48.991-109.091 109.091-109.091c60.1 0 109.091 48.991 109.091 109.091s-48.991 109.091-109.091 109.091zM908.955 823.091c-60.1 0-109.091-48.991-109.091-109.091s48.991-109.091 109.091-109.091c60.1 0 109.091 48.991 109.091 109.091s-48.991 109.091-109.091 109.091zM181.227 747.318c19.623 0 33.364-13.695 33.364-33.318 0-19.583-13.943-33.5-33.364-33.5-19.381 0-33.5 14.119-33.5 33.5 0 19.421 13.917 33.318 33.5 33.318zM181.227 556.955c-60.1 0-109.091-48.809-109.091-108.909s48.991-109.091 109.091-109.091c60.1 0 108.955 48.991 108.955 109.091s-48.855 108.909-108.955 108.909zM545.091 556.955c-60.1 0-109.091-48.809-109.091-108.909s48.991-109.091 109.091-109.091c60.1 0 109.091 48.991 109.091 109.091s-48.991 108.909-109.091 108.909zM908.955 556.955c-60.1 0-109.091-48.809-109.091-108.909s48.991-109.091 109.091-109.091c60.1 0 109.091 48.991 109.091 109.091s-48.991 108.909-109.091 108.909zM909.045 481.364c19.623 0 33.318-13.74 33.318-33.364 0-19.583-13.897-33.5-33.318-33.5-19.381 0-33.5 14.119-33.5 33.5 0 19.421 13.917 33.364 33.5 33.364zM181.227 291.045c-60.1 0-109.091-48.855-109.091-108.955s48.991-109.091 109.091-109.091c60.1 0 108.955 48.991 108.955 109.091s-48.855 108.955-108.955 108.955zM545.091 291.045c-60.1 0-109.091-48.855-109.091-108.955s48.991-109.091 109.091-109.091c60.1 0 109.091 48.991 109.091 109.091s-48.991 108.955-109.091 108.955zM908.955 291.045c-60.1 0-109.091-48.855-109.091-108.955s48.991-109.091 109.091-109.091c60.1 0 109.091 48.991 109.091 109.091s-48.991 108.955-109.091 108.955zM545.318 214c19.623 0 33.318-13.695 33.318-33.318 0-19.583-13.897-33.5-33.318-33.5-19.381 0-33.5 14.119-33.5 33.5 0 19.421 13.917 33.318 33.5 33.318z" />
<glyph unicode="&#xe919;" glyph-name="form-list-radio" horiz-adv-x="1094" d="M1012.362 763.843c0 8.831-7.792 16.623-16.623 16.623h-631.687c-8.831 0-16.623-7.792-16.623-16.623v-99.74c0-8.831 7.792-16.623 16.623-16.623h631.687c8.831 0 16.623 7.792 16.623 16.623zM1012.362 497.87c0 8.831-7.792 16.623-16.623 16.623h-631.687c-8.831 0-16.623-7.792-16.623-16.623v-99.74c0-8.831 7.792-16.623 16.623-16.623h631.687c8.831 0 16.623 7.792 16.623 16.623zM181.227 823.091c-60.1 0-109.091-48.991-109.091-109.091s48.991-109.091 109.091-109.091c60.1 0 108.955 48.991 108.955 109.091s-48.855 109.091-108.955 109.091zM181.227 747.318c19.623 0 33.364-13.695 33.364-33.318 0-19.583-13.943-33.5-33.364-33.5-19.381 0-33.5 14.119-33.5 33.5 0 19.421 13.917 33.318 33.5 33.318zM181.227 556.955c-60.1 0-109.091-48.809-109.091-108.909s48.991-109.091 109.091-109.091c60.1 0 108.955 48.991 108.955 109.091s-48.855 108.909-108.955 108.909zM181.227 291.045c-60.1 0-109.091-48.855-109.091-108.955s48.991-109.091 109.091-109.091c60.1 0 108.955 48.991 108.955 109.091s-48.855 108.955-108.955 108.955zM1012.362 231.897c0 8.831-7.792 16.623-16.623 16.623h-631.687c-8.831 0-16.623-7.792-16.623-16.623v-99.74c0-8.831 7.792-16.623 16.623-16.623h631.687c8.831 0 16.623 7.792 16.623 16.623z" />
<glyph unicode="&#xe91a;" glyph-name="form-page-break" horiz-adv-x="1094" d="M190.545 923.136c-28.106 0-50.909-22.803-50.909-50.909v-410.318h67.864v393.364h407.273v-220.591c0-28.106 22.803-50.909 50.909-50.909h220.636v-121.864h67.864v172.773c0 28.106-16.424 67.333-36.045 86.955l-165.455 165.455c-19.621 19.621-58.894 36.045-87 36.045zM682.682 851.046c9.015-3.182 18.015-7.97 21.727-11.682l166-166c3.712-3.712 8.455-12.712 11.636-21.727h-199.364zM139.636 236.273v-212.5c0-28.106 22.803-50.909 50.909-50.909h712.727c28.106 0 50.909 22.803 50.909 50.909v212.5h-67.864v-195.545h-678.818v195.545zM66.394 387.23v-65.283h195.505v65.283zM327.009 387.23v-65.283h195.505v65.283zM587.797 387.23v-65.283h195.505v65.283zM848.412 387.23v-65.283h179.012v65.283z" />
<glyph unicode="&#xe91b;" glyph-name="form-paragraph" horiz-adv-x="1094" d="M1012.362 182.027c0 18.182-15.065 33.247-33.247 33.247h-864.413c-18.182 0-33.247-15.065-33.247-33.247v-66.493c0-18.182 15.065-33.247 33.247-33.247h864.413c18.182 0 33.247 15.065 33.247 33.247zM812.882 381.507c0 18.182-15.065 33.247-33.247 33.247h-664.933c-18.182 0-33.247-15.065-33.247-33.247v-66.493c0-18.182 15.065-33.247 33.247-33.247h664.933c18.182 0 33.247 15.065 33.247 33.247zM945.869 580.987c0 18.182-15.065 33.247-33.247 33.247h-797.92c-18.182 0-33.247-15.065-33.247-33.247v-66.493c0-18.182 15.065-33.247 33.247-33.247h797.92c18.182 0 33.247 15.065 33.247 33.247zM746.389 780.467c0 18.182-15.065 33.247-33.247 33.247h-598.44c-18.182 0-33.247-15.065-33.247-33.247v-66.493c0-18.182 15.065-33.247 33.247-33.247h598.44c18.182 0 33.247 15.065 33.247 33.247z" />
<glyph unicode="&#xe91c;" glyph-name="form-text" horiz-adv-x="1094" d="M1012.362 481.247c0 18.182-15.065 33.247-33.247 33.247h-864.413c-18.182 0-33.247-15.065-33.247-33.247v-66.493c0-18.182 15.065-33.247 33.247-33.247h864.413c18.182 0 33.247 15.065 33.247 33.247z" />
<glyph unicode="&#xe91d;" glyph-name="form-list-ordered" horiz-adv-x="1094" d="M279.377 71.897c0 35.844-22.857 62.857-57.662 71.169l49.351 59.74v45.714h-172.987v-78.961h55.065v27.532c16.623 0 33.766 1.039 50.389 1.039v-0.52c-22.338-20.259-39.48-46.753-58.182-70.649l13.506-29.091c21.299 1.558 54.545 0 54.545-29.091 0-20.779-19.221-29.61-37.402-29.61-19.74 0-41.039 10.39-55.065 23.376l-29.61-45.714c23.377-23.377 56.623-34.286 89.35-34.286 54.026 0 98.701 32.208 98.701 89.35zM280.416 397.611h-54.545v-31.169h-65.974c1.558 40.519 114.285 57.662 114.285 134.545 0 51.428-41.558 80-89.87 80-39.48 0-74.805-20.26-91.948-56.104l44.156-30.649c8.831 14.545 23.896 30.13 42.078 30.13 17.143 0 28.052-9.351 28.052-27.013 0-43.636-117.402-58.182-117.402-154.285 0-9.351 1.558-18.701 3.117-28.052h188.051zM1012.362 231.897c0 9.351-7.792 16.623-16.623 16.623h-631.687c-9.351 0-16.623-7.273-16.623-16.623v-99.74c0-8.831 7.273-16.623 16.623-16.623h631.687c8.831 0 16.623 7.792 16.623 16.623zM280.936 698.908h-56.104v209.87h-55.065l-70.649-65.974 36.883-39.48c9.87 8.831 20.26 16.623 25.974 28.052h1.039v-6.234c0-42.078-0.52-84.156-0.52-126.233h-55.584v-51.428h174.025zM1012.362 497.87c0 9.351-7.792 16.623-16.623 16.623h-631.687c-9.351 0-16.623-7.273-16.623-16.623v-99.74c0-8.831 7.273-16.623 16.623-16.623h631.687c8.831 0 16.623 7.792 16.623 16.623zM1012.362 763.843c0 8.831-7.792 16.623-16.623 16.623h-631.687c-9.351 0-16.623-7.792-16.623-16.623v-99.74c0-8.831 7.273-16.623 16.623-16.623h631.687c8.831 0 16.623 7.792 16.623 16.623z" />
<glyph unicode="&#xe91e;" glyph-name="form-poll-maybe" horiz-adv-x="1094" d="M856.492 569.333c0 9.987-3.996 19.973-11.187 27.163l-54.325 54.327c-7.191 7.191-17.175 11.185-27.163 11.185s-19.972-3.995-27.163-11.185l-262.048-262.447-117.442 117.841c-7.191 7.19-17.175 11.185-27.163 11.185s-19.972-3.995-27.163-11.185l-54.327-54.327c-7.191-7.191-11.187-17.177-11.187-27.163s3.995-19.973 11.187-27.163l198.932-198.932c7.191-7.191 17.175-11.185 27.163-11.185s19.972 3.995 27.163 11.185l343.538 343.537c7.192 7.191 11.187 17.177 11.187 27.163zM65.903 444.364q0 120.454 35 225.454 35.454 105 101.818 184.090h73.636q-65.454-87.727-98.636-192.727-32.727-105-32.727-215.908 0-109.091 33.636-213.181t96.818-189.999h-72.727q-66.818 77.273-101.818 180.454t-35 221.818zM1027.916 444.364q0-119.545-35.454-222.727-35-103.182-101.363-179.545h-72.727q63.182 85.454 96.818 189.545 33.636 104.545 33.636 213.636 0 110.909-33.182 215.908-32.727 105-98.182 192.727h73.636q66.818-79.545 101.818-184.999 35-105 35-224.545z" />
<glyph unicode="&#xe91f;" glyph-name="destroy" horiz-adv-x="1094" d="M191.671 946.511c-28.024 0-50.742-22.731-50.742-50.756v-399.384h-74.822c-29.561-0.003-53.524-23.966-53.527-53.527 0.025-29.545 23.982-53.484 53.527-53.487h174.773l-88.853-95.929 95.929-104.66-95.835-104.524 121.3-132.182 43.855 55.423-70.369 76.813 95.781 104.471-95.687 104.364 89.122 96.225h190.445l-88.853-95.929 95.929-104.66-95.781-104.524 121.246-132.182 43.855 55.423-70.369 76.813 95.781 104.471-95.687 104.364 89.122 96.225h190.445l-88.853-95.929 95.983-104.66-95.835-104.524 121.286-132.182 43.815 55.423-70.383 76.759 95.835 104.524-95.727 104.417 89.122 96.171h117.318c29.55-0.004 53.515 23.936 53.54 53.487-0.003 29.566-23.974 53.531-53.54 53.527h-71.728v162.501c0 28.024-16.394 67.15-35.958 86.714l-164.966 164.966c-19.564 19.564-58.69 35.958-86.714 35.958zM208.607 878.832h406.073v-219.96c0-28.024 22.745-50.769 50.769-50.769h219.96v-111.732h-676.802zM682.359 874.608c8.989-3.172 17.984-7.936 21.685-11.636l165.505-165.505c3.702-3.7 8.463-12.696 11.636-21.685h-198.826z" />
<glyph unicode="&#xe920;" glyph-name="drive" horiz-adv-x="878" d="M586.884 124.372c0 23.946-19.592 43.537-43.537 43.537s-43.537-19.592-43.537-43.537c0-23.946 19.592-43.537 43.537-43.537s43.537 19.592 43.537 43.537zM726.203 124.372c0 23.946-19.592 43.537-43.537 43.537s-43.537-19.592-43.537-43.537c0-23.946 19.592-43.537 43.537-43.537s43.537 19.592 43.537 43.537zM787.155 37.298c0-9.252-8.163-17.415-17.415-17.415h-661.767c-9.252 0-17.415 8.163-17.415 17.415v174.149c0 9.252 8.163 17.415 17.415 17.415h661.767c9.252 0 17.415-8.163 17.415-17.415zM117.77 298.521l85.442 262.312c2.721 9.252 13.061 16.326 22.857 16.326h425.577c9.796 0 20.136-7.075 22.857-16.326l85.442-262.312zM856.815 211.447c0 14.694-4.354 27.211-8.707 40.816l-107.211 329.795c-12.517 38.095-48.979 64.762-89.251 64.762h-425.577c-40.272 0-76.734-26.667-89.251-64.762l-107.211-329.795c-4.354-13.605-8.707-26.122-8.707-40.816v-174.149c0-47.891 39.184-87.075 87.075-87.075h661.767c47.891 0 87.075 39.184 87.075 87.075z" />
<glyph unicode="&#xe921;" glyph-name="diagram" horiz-adv-x="878" d="M827.746 734.667l-173.333 173.333c-20.556 20.556-61.667 37.778-91.111 37.778h-497.778c-29.444 0-53.333-23.889-53.333-53.333v-888.889c0-29.444 23.889-53.333 53.333-53.333h746.667c29.444 0 53.333 23.889 53.333 53.333v640c0 29.444-17.222 70.556-37.778 91.111zM581.079 870.222c9.444-3.333 18.889-8.333 22.778-12.222l173.889-173.889c3.889-3.889 8.889-13.333 12.222-22.778h-208.889zM794.413 21.333h-711.111v853.333h426.667v-231.111c0-29.444 23.889-53.333 53.333-53.333h231.111zM142.19 699.381v-233.667h242.476l103.19-129.667-66.571 7.571c-0.464 0.060-1 0.095-1.544 0.095-6.469 0-11.802-4.862-12.545-11.13l-0.006-0.060c-0.043-0.393-0.068-0.848-0.068-1.309 0-6.459 4.847-11.786 11.103-12.542l0.060-0.006 119.095-13.714 13.667 119.095c0.059 0.459 0.093 0.99 0.093 1.529 0 6.519-4.937 11.884-11.276 12.562l-0.055 0.005c-0.401 0.045-0.865 0.071-1.336 0.071-6.528 0-11.899-4.95-12.564-11.302l-0.005-0.055-7.571-66.571-101.952 128.143v210.952h-274.19zM190.952 650.619h176.667v-136.143h-176.667v136.143zM628.143 307.952c-64.030 0-117.525-47.559-126.857-109.095l-73.095 0.762 47.857 46.81c2.398 2.303 3.888 5.536 3.888 9.117 0 3.487-1.413 6.645-3.698 8.931v0c-2.288 2.295-5.452 3.714-8.947 3.714-0.018 0-0.037 0-0.055 0h0.003c-0.058 0.001-0.127 0.002-0.196 0.002-3.425 0-6.532-1.363-8.807-3.576l0.003 0.003-85.524-83.81 83.809-85.714c2.293-2.327 5.478-3.768 9.001-3.768 3.427 0 6.536 1.365 8.812 3.58l-0.003-0.003c2.327 2.293 3.768 5.478 3.768 9.001 0 3.427-1.365 6.536-3.58 8.812l0.003-0.003-46.952 47.857 73.81-0.714c9.614-61.186 62.962-108.286 126.762-108.286 70.545 0 128.095 57.551 128.095 128.095s-57.551 128.286-128.095 128.286zM626.095 259.19c0.686 0.017 1.357 0 2.048 0 44.192 0 79.333-35.332 79.333-79.524s-35.141-79.524-79.333-79.524c-44.192 0-79.524 35.332-79.524 79.524 0 43.501 34.254 78.443 77.476 79.524zM244.048 438.143l-85.381-84.048c-2.384-2.301-3.864-5.525-3.864-9.094 0-3.475 1.403-6.623 3.674-8.907l-0.001 0.001c2.295-2.341 5.49-3.792 9.024-3.792s6.729 1.451 9.022 3.79l0.002 0.002 47.571 46.762-0.952-117.667h-80.952v-191.286h202.381v191.286h-82.381l0.905 117.571 47.143-47.81c2.29-2.312 5.466-3.744 8.977-3.744 3.439 0 6.557 1.374 8.835 3.603l-0.002-0.002c2.384 2.301 3.864 5.525 3.864 9.094 0 3.475-1.403 6.623-3.674 8.907l0.001-0.001-84.19 85.333zM190.952 216.429h104.857v-93.762h-104.857v93.762z" />
</font>
</defs>
</svg>
