<svg width="40" height="40" fill="none" xmlns="http://www.w3.org/2000/svg"><style>svg&gt;g{display:none}:target{display:inline}</style><g id="attention"><path d="M3.2525 31.1904L18.366 4.9428c.7238-1.257 2.5442-1.257 3.268 0l15.1135 26.2476C37.4678 32.4412 36.5612 34 35.1136 34H4.8864c-1.4476 0-2.3542-1.5588-1.634-2.8096z" fill="#FFD112"/><path fill-rule="evenodd" clip-rule="evenodd" d="M21 25h-2l-1-7v-6h4v6l-1 7zm1 6h-4v-4h4v4z" fill="#fff"/></g><g id="done"><circle cx="20" cy="20" r="16" fill="#090"/><path d="M12 20l6 6 11-11" stroke="#fff" stroke-width="4"/></g><g id="info"><circle cx="20" cy="20" r="16" fill="#007DF1"/><path fill-rule="evenodd" clip-rule="evenodd" d="M22 10h-4v4h4v-4zm0 7h-4v13h4V17z" fill="#fff"/></g><g id="warning"><circle cx="20" cy="20" r="16" fill="#F62211"/><path fill="#fff" d="M10 17h20v6H10z"/></g></svg>