<svg xmlns="http://www.w3.org/2000/svg" width="28" height="60"><symbol id="svg-icon-crypted" viewBox="0 0 20 20"><path fill-rule="evenodd" clip-rule="evenodd" d="M10 3.0005c-3.0001 1.999-6 1.9997-6 1.9997v3.5c0 1.9999.5628 7.4765 5.9996 8.4999C15.4364 15.9767 16 10.5001 16 8.5002v-3.5s-2.9999-.0007-6-1.9997zm4.0232 4.9648l-1.0464-.9301-3.5495 3.9932-2.4792-2.066-.8962 1.0756 3.5208 2.934 4.4505-5.0067z" fill="#fff"/></symbol><symbol id="svg-icon-users" viewBox="0 0 28 20"><path fill-rule="evenodd" clip-rule="evenodd" d="M27 10c0 4.9706-4.0294 9-9 9s-9-4.0294-9-9 4.0294-9 9-9 9 4.0294 9 9zm1 0c0 5.5228-4.4772 10-10 10-2.6253 0-5.0143-1.0116-6.7984-2.6664C10.2212 17.7622 9.1384 18 8 18c-4.4183 0-8-3.5817-8-8s3.5817-8 8-8c1.1384 0 2.2212.2378 3.2016.6664C12.9857 1.0116 15.3747 0 18 0c5.5228 0 10 4.4771 10 10zM10.4512 3.4412A6.9851 6.9851 0 008 3c-3.866 0-7 3.134-7 7 0 1.5218.4856 2.9302 1.3103 4.0786a10.8167 10.8167 0 011.1237-.7596C4.5435 12.6664 6.1317 12 8 12c.0672 0 .134.0009.2006.0026a9.9847 9.9847 0 01-.1513-1.003A2.7009 2.7009 0 018 11c-1.6569 0-3-1.3431-3-3s1.3431-3 3-3c.426 0 .8314.0888 1.1985.249a10.0216 10.0216 0 011.2527-1.8078zM8.767 6.1524A1.9939 1.9939 0 008 6c-1.1046 0-2 .8954-2 2s.8954 2 2 2c0-1.3635.2729-2.6632.767-3.8476zm-.3043 6.8632A6.9148 6.9148 0 008 13c-1.6317 0-3.0435.5836-4.059 1.181a9.8046 9.8046 0 00-.9906.6668C4.2242 16.1743 6.0157 17 8 17a6.9835 6.9835 0 002.4512-.4412 9.9832 9.9832 0 01-1.9885-3.5432z"/></symbol></svg>