<svg fill="none" height="96" width="96" xmlns="http://www.w3.org/2000/svg"><path d="M94 9.5c.8284 0 1.5.6716 1.5 1.5v74c0 .8284-.6716 1.5-1.5 1.5H2c-.8284 0-1.5-.6716-1.5-1.5V11c0-.8284.6716-1.5 1.5-1.5h92z" fill="#fff" stroke="#BFBFBF"/><rect opacity=".4" x="16" y="25" width="64" height="8" rx="1" fill="#444"/><rect opacity=".4" x="54" y="45" width="4" height="4" rx="1" fill="#444"/><rect opacity=".4" x="54" y="53" width="4" height="4" rx="1" fill="#444"/><rect opacity=".4" x="54" y="61" width="4" height="4" rx="1" fill="#444"/><rect opacity=".2" x="60" y="45" width="20" height="4" rx="1" fill="#444"/><rect opacity=".2" x="60" y="53" width="20" height="4" rx="1" fill="#444"/><rect opacity=".2" x="60" y="61" width="20" height="4" rx="1" fill="#444"/><path opacity=".2" d="M44 56a14.0005 14.0005 0 01-8.6424 12.9343 14.0004 14.0004 0 01-15.2571-3.0348 14.0002 14.0002 0 012.1215-21.5401A14.0005 14.0005 0 0130 42v14h14z" fill="#444"/><path opacity=".4" d="M32 40a13.9997 13.9997 0 0114 14H32V40z" fill="#444"/></svg>