<svg width="245" height="45" fill="none" xmlns="http://www.w3.org/2000/svg"><path fill-rule="evenodd" clip-rule="evenodd" d="M64.7249 13.8022c-2.2965 1.8805-3.4076 4.7735-3.4076 8.6067 0 3.8333 1.1111 6.7263 3.4076 8.6791 2.2964 1.9528 4.8891 2.893 7.9263 2.893 2.9631 0 5.63-.9402 7.8523-2.893 2.2223-1.8805 3.3335-4.7735 3.3335-8.6067 0-3.9056-1.1112-6.7263-3.3335-8.6791-2.2223-1.9528-4.8151-2.893-7.8523-2.893-3.0372 0-5.704.9402-7.9263 2.893zM67.688 28.195c-.963-1.2296-1.4816-3.11-1.4816-5.7861 0-2.6037.5186-4.5565 1.4816-5.6414 1.0371-1.2295 2.1482-2.0251 3.3335-2.3144.2963-.0723.5926-.1446.8149-.1446.2222-.0723.4444-.0723.7407-.0723.1482 0 .2778.018.4075.0361.1296.0181.2592.0362.4074.0362.2222 0 .5185.0723.8149.1446 1.1852.2893 2.2964 1.0849 3.2594 2.3144.963 1.2296 1.4816 3.11 1.4816 5.7138 0 2.5313-.5186 4.4841-1.4816 5.7137-.963 1.2295-2.0742 2.0251-3.2594 2.3144-.0508.0124-.0994.0248-.1465.0368h-.0003c-.228.0582-.4226.1078-.6681.1078-.2963.0724-.5186.0724-.8149.0724-.1111 0-.2407-.0181-.3704-.0362-.1296-.0181-.2592-.0362-.3703-.0362-.2455 0-.4402-.0496-.6682-.1078h-.0002l-.0004-.0001c-.047-.012-.0955-.0244-.1461-.0367-1.1853-.2893-2.2964-1.0849-3.3335-2.3144zm24.668-17.0688h-6.0744v22.5656h4.6669V20.3839l-.074-3.9779h.074l1.1853 2.5314 8.0002 14.7544h6.075V11.1262h-4.667v13.2356l.074 4.0502h-.074l-1.186-3.11-8-14.1758zm18.668 0h4.667v18.7323h9.185v3.8333h-13.852V11.1262zm16.371 0h-5.408l8.519 13.3079v9.2577h4.667v-9.1854l8.371-13.3802h-4.963l-4.815 7.8835-.741 1.5912h-.148l-.741-1.5912-4.741-7.8835zm15.556 11.2827c0-3.8332 1.112-6.7262 3.408-8.6067 2.222-1.9528 4.889-2.893 7.926-2.893 3.038 0 5.63.9402 7.853 2.893 2.222 1.9528 3.333 4.7735 3.333 8.679 0 3.8333-1.111 6.7263-3.333 8.6068-2.223 1.9528-4.89 2.893-7.853 2.893-3.037 0-5.63-.9402-7.926-2.893-2.222-1.9528-3.408-4.8458-3.408-8.6791zm4.89 0c0 2.6761.518 4.5565 1.481 5.7861 1.037 1.2295 2.074 2.0251 3.334 2.3144.041.0102.082.0204.121.0304l.025.0064c.228.0582.423.1078.669.1078.111 0 .24.0181.37.0362s.259.0362.37.0362c.297 0 .519 0 .815-.0724.246 0 .44-.0496.668-.1078l.001-.0001c.047-.012.095-.0244.146-.0367 1.185-.2893 2.296-1.0849 3.259-2.3144.963-1.2296 1.482-3.1824 1.482-5.7138 0-2.6037-.519-4.4841-1.482-5.7137-.963-1.2295-2.074-2.0251-3.259-2.3144-.296-.0723-.593-.1446-.815-.1446-.148 0-.278-.0181-.407-.0362-.13-.0181-.26-.0362-.408-.0362-.296 0-.518.0001-.74.0724-.223 0-.519.0723-.815.1446-1.186.2893-2.297 1.0849-3.334 2.3144-.963 1.0849-1.481 3.0377-1.481 5.6414zm33.779-11.2827h-12.89v22.5656h4.667v-9.4747h7.853v-3.8332h-7.853v-5.4968h8.223v-3.7609zm3.482 0h12.889v3.7609h-8.222v5.4968h7.852v3.8332h-7.852v9.4747h-4.667V11.1262zm15.63 0v22.5656h4.667V11.1262h-4.667zm25.231.5061v3.9056c-.815-.2893-1.63-.5063-2.519-.6509-.889-.1447-1.926-.217-2.963-.217-2.445 0-4.297.7232-5.63 2.2421-1.333 1.4465-2 3.3269-2 5.569 0 2.1698.592 3.9779 1.852 5.4244 1.259 1.4465 3.037 2.2421 5.333 2.2421.705 0 1.409-.054 2.209-.1153.125-.0097.253-.0195.384-.0293.963-.1447 1.926-.3617 2.963-.7956l.297 3.8332c-.149.0724-.371.1447-.593.217-.296.0724-.593.1447-.963.217-.383.0934-.827.1566-1.333.2287-.278.0395-.574.0817-.889.1329-.889.0724-1.778.1447-2.741.1447h-.741c-2.667-.1447-5.111-1.1572-7.334-2.893-2.222-1.8082-3.333-4.6289-3.333-8.3898 0-3.6886 1.111-6.5816 3.259-8.6067 2.148-2.0251 5.112-3.0377 8.741-3.0377.963 0 1.852 0 2.593.0723.705.0626 1.355.1794 2.045.3035l.001.0001c.107.0192.215.0386.325.0581.074.0361.166.0542.259.0723.092.0181.185.0362.259.0723.095-.0461.189-.0334.303-.0182.064.0087.135.0182.216.0182zm17.556-.5061h-13.852v22.5656h13.852v-3.544h-9.111v-6.3646h8.222v-3.4716h-8.222v-5.6414h9.111v-3.544z" fill="#333"/><path fill-rule="evenodd" clip-rule="evenodd" d="M21.4402 44.448l-20.152-9.2683c-1.7167-.8091-1.7167-2.0596 0-2.7952l7.0159-3.2366 13.0615 6.0318c1.7167.8092 4.4782.8092 6.1203 0l13.0615-6.0318 7.0159 3.2366c1.7166.8091 1.7166 2.0596 0 2.7952L27.4112 44.448c-1.5674.7356-4.3289.7356-5.971 0z" fill="#FF6F3D"/><path fill-rule="evenodd" clip-rule="evenodd" d="M21.4402 33.0471l-20.152-9.2683c-1.7167-.8092-1.7167-2.0597 0-2.7952l6.8666-3.163 13.2854 6.1053c1.7167.8091 4.4782.8091 6.1203 0l13.2854-6.1053 6.8666 3.163c1.7167.8091 1.7167 2.0596 0 2.7952l-20.152 9.2683c-1.7167.8091-4.4783.8091-6.1203 0z" fill="#95C038"/><path fill-rule="evenodd" clip-rule="evenodd" d="M21.4396 21.9387L1.2875 12.6704c-1.7167-.8092-1.7167-2.0596 0-2.7952L21.4396.6069c1.7166-.8092 4.4782-.8092 6.1202 0l20.1521 9.2683c1.7166.8091 1.7166 2.0596 0 2.7952l-20.1521 9.2683c-1.7166.7356-4.4782.7356-6.1202 0z" fill="#5DC0E8"/></svg>