<?xml version="1.0" encoding="UTF-8" standalone="no"?>
<svg
   width="512"
   height="512"
   version="1.1"
   viewBox="0 0 135.46606 135.46728"
   id="svg942"
   sodipodi:docname="favicon_source.svg"
   inkscape:version="1.1.1 (1:1.1+202109281949+c3084ef5ed)"
   inkscape:export-filename="/home/david/cryptpad/customize.dist/favicon/alt-favicon-document.png"
   inkscape:export-xdpi="96"
   inkscape:export-ydpi="96"
   xmlns:inkscape="http://www.inkscape.org/namespaces/inkscape"
   xmlns:sodipodi="http://sodipodi.sourceforge.net/DTD/sodipodi-0.dtd"
   xmlns:xlink="http://www.w3.org/1999/xlink"
   xmlns="http://www.w3.org/2000/svg"
   xmlns:svg="http://www.w3.org/2000/svg"
   xmlns:rdf="http://www.w3.org/1999/02/22-rdf-syntax-ns#"
   xmlns:cc="http://creativecommons.org/ns#"
   xmlns:dc="http://purl.org/dc/elements/1.1/">
  <metadata
     id="metadata948">
    <rdf:RDF>
      <cc:Work
         rdf:about="">
        <dc:format>image/svg+xml</dc:format>
        <dc:type
           rdf:resource="http://purl.org/dc/dcmitype/StillImage" />
        <dc:title />
      </cc:Work>
    </rdf:RDF>
  </metadata>
  <defs
     id="defs946">
    <linearGradient
       id="linearGradient943"
       inkscape:swatch="solid">
      <stop
         style="stop-color:#0087ff;stop-opacity:1;"
         offset="0"
         id="stop941" />
    </linearGradient>
    <linearGradient
       id="linearGradient947"
       inkscape:swatch="solid">
      <stop
         style="stop-color:#2467cf;stop-opacity:1;"
         offset="0"
         id="stop945" />
    </linearGradient>
    <linearGradient
       id="linearGradient939"
       inkscape:swatch="solid">
      <stop
         style="stop-color:#99b4dd;stop-opacity:1;"
         offset="0"
         id="stop937" />
    </linearGradient>
    <linearGradient
       id="linearGradient934"
       inkscape:swatch="solid">
      <stop
         style="stop-color:#0087ff;stop-opacity:1;"
         offset="0"
         id="stop932" />
    </linearGradient>
    <linearGradient
       id="linearGradient917"
       inkscape:swatch="solid">
      <stop
         style="stop-color:#0087ff;stop-opacity:1;"
         offset="0"
         id="stop915" />
    </linearGradient>
    <linearGradient
       inkscape:collect="always"
       xlink:href="#linearGradient947"
       id="linearGradient949"
       x1="53.544922"
       y1="256.63477"
       x2="458.45312"
       y2="256.63477"
       gradientUnits="userSpaceOnUse" />
  </defs>
  <sodipodi:namedview
     pagecolor="#ffffff"
     bordercolor="#666666"
     borderopacity="1"
     objecttolerance="10"
     gridtolerance="10"
     guidetolerance="10"
     inkscape:pageopacity="0"
     inkscape:pageshadow="2"
     inkscape:window-width="1832"
     inkscape:window-height="1133"
     id="namedview944"
     showgrid="false"
     inkscape:zoom="0.819555"
     inkscape:cx="60.398631"
     inkscape:cy="380.6944"
     inkscape:window-x="26"
     inkscape:window-y="23"
     inkscape:window-maximized="0"
     inkscape:current-layer="g952"
     inkscape:document-rotation="0"
     inkscape:pagecheckerboard="0" />
  <g
     inkscape:groupmode="layer"
     id="layer3"
     inkscape:label="[fixed] white BG"
     style="display:inline"
     sodipodi:insensitive="true">
    <g
       transform="matrix(1.4853714,0,0,1.4853714,-938.46279,-257.57186)"
       style="fill:#ffffff"
       id="g922">
      <g
         style="fill:#ffffff"
         id="g916">
        <path
           d="m 644.02,176.9 h 44.386 l 22.414,20.826 v 24.899 c 0,26.166 -21.414,32.228 -33.117,38.409 -12.815,-5.8945 -32.794,-12.329 -33.117,-38.409 z"
           style="fill:#ffffff"
           id="path914" />
      </g>
      <g
         style="fill:#ffffff"
         id="g920">
        <path
           d="m 644.02,176.9 h 44.386 l 22.414,20.826 v 24.899 c 0,26.166 -21.414,32.228 -33.117,38.409 -12.815,-5.8945 -32.794,-12.329 -33.117,-38.409 z"
           style="fill:#ffffff"
           id="path918" />
      </g>
    </g>
  </g>
  <g
     inkscape:groupmode="layer"
     id="layer1"
     inkscape:label="[export] shield [brand/drive]"
     style="display:none">
    <g
       id="g940"
       transform="matrix(1.4853714,0,0,1.4853714,12.798765,-0.61151946)">
      <g
         transform="translate(-125.38,-26.449)"
         id="g938">
        <path
           d="m 128.98,30.355 0.55499,39.644 h 33.141 l 0.004,-39.644 z"
           style="fill:#0087ff;fill-opacity:0.39608"
           id="path924" />
        <path
           d="m 162.69,70 0.003,43.946 c 12.825,-5.8796 32.762,-17.077 33.127,-43.157 l 0.0108,-0.78911 z"
           style="fill:#0087ff;fill-opacity:0.39608"
           id="path926" />
        <path
           d="m 128.98,30.355 h 44.386 L 195.78,51.181 V 76.08 c 0,26.166 -21.414,32.228 -33.117,38.409 -12.815,-5.8945 -32.794,-12.329 -33.117,-38.409 z"
           style="fill:none;stroke:#0087ff;stroke-width:5.2922"
           id="path928" />
        <path
           d="m 171.32,29.811 v 23.04 h 24.575"
           style="fill:none;stroke:#0087ff;stroke-width:5.2917"
           id="path930" />
        <g
           transform="matrix(1.1107,0,0,1.1107,18.926,21.932)"
           style="fill:#0087ff"
           id="g936">
          <path
             d="m 137.23,42.719 a 8.1185,8.1185 0 0 1 -8.1185,8.1185 8.1185,8.1185 0 0 1 -8.1185,-8.1185 8.1185,8.1185 0 0 1 8.1185,-8.1185 8.1185,8.1185 0 0 1 8.1185,8.1185 z"
             style="fill:#0087ff"
             id="path932" />
          <path
             d="m 127,42.651 h 4.2265 l 4.2333,22.354 h -12.693 z"
             style="fill:#0087ff"
             id="path934" />
        </g>
      </g>
    </g>
  </g>
  <g
     inkscape:groupmode="layer"
     id="g1113"
     inkscape:label="[export] shield docs [brand/drive] "
     style="display:none">
    <g
       id="g1111"
       transform="matrix(1.4853714,0,0,1.4853714,12.798765,-0.61151946)">
      <g
         transform="translate(-125.38,-26.449)"
         id="g1109">
        <path
           d="m 128.98,30.355 0.55499,39.644 h 33.141 l 0.004,-39.644 z"
           style="fill:#0087ff;fill-opacity:0.39608"
           id="path1095" />
        <path
           d="m 162.69,70 0.003,43.946 c 12.825,-5.8796 32.762,-17.077 33.127,-43.157 l 0.0108,-0.78911 z"
           style="fill:#0087ff;fill-opacity:0.39608"
           id="path1097" />
        <path
           d="m 128.98,30.355 h 44.386 L 195.78,51.181 V 76.08 c 0,26.166 -21.414,32.228 -33.117,38.409 -12.815,-5.8945 -32.794,-12.329 -33.117,-38.409 z"
           style="fill:none;stroke:#0087ff;stroke-width:5.2922"
           id="path1099" />
        <path
           d="m 171.32,29.811 v 23.04 h 24.575"
           style="fill:none;stroke:#0087ff;stroke-width:5.2917"
           id="path1101" />
        <g
           id="g965"
           transform="matrix(1.1297397,0,0,1.1297397,121.24721,22.018239)">
          <path
             style="fill:#ffffff;fill-opacity:1;stroke:none;stroke-width:0.264585px;stroke-linecap:butt;stroke-linejoin:miter;stroke-opacity:1"
             d="m 37.067506,37.355653 -6.537479,-0.233393 -4.039679,13.886454 6.303748,6.870213 3.519546,6.980957 8.17709,-0.206244 2.43004,-2.218716 6.279927,-21.07965 -10.586591,-3.474437 z"
             id="path960" />
          <g
             aria-label=""
             id="text955"
             style="font-size:30.4621px;line-height:1.25;font-family:sans-serif;word-spacing:0px;stroke-width:0.761554"
             transform="matrix(1.2249963,0,0,1.2249963,-93.797952,5.4547355)">
            <path
               d="m 119.99926,29.306649 c -0.25498,-0.339979 -0.61196,-0.577964 -1.00294,-0.730954 0.017,0.305981 0.017,0.645959 -0.085,0.968939 l -5.09968,16.777953 c -0.18699,0.611962 -0.91794,0.96894 -1.54691,0.96894 H 96.574722 c -0.93494,0 -2.10787,-0.203987 -2.44785,-1.189926 -0.13599,-0.373977 -0.11899,-0.526967 0.017,-0.730954 0.15299,-0.203988 0.42498,-0.254984 0.64596,-0.254984 h 14.772078 c 2.15887,0 2.60084,-0.577964 3.39979,-3.195801 l 4.65771,-15.401039 c 0.23799,-0.79895 0.13599,-1.5979 -0.30598,-2.209862 -0.42497,-0.594963 -1.13893,-0.951941 -1.93788,-0.951941 h -12.93619 c -0.28898,0 -0.57797,0.085 -0.86695,0.152991 l 0.017,-0.051 c -2.158868,-0.611962 -2.294858,1.716893 -3.008808,2.770827 -0.27199,0.390976 -0.67996,0.730954 -0.74796,1.053934 -0.051,0.305981 0.119,0.594963 0.085,0.883945 -0.10199,0.900944 -0.78195,2.515843 -1.18992,3.076808 -0.25499,0.339979 -0.62896,0.509968 -0.74796,0.900944 -0.10199,0.271983 0.068,0.662959 0.034,1.019936 -0.085,0.79895 -0.67995,2.311856 -1.13892,3.093807 -0.16999,0.305981 -0.49297,0.543966 -0.57797,0.866946 -0.085,0.288982 0.085,0.662959 0,0.985939 -0.18699,0.883944 -0.76495,2.260859 -1.27492,3.110805 -0.27198,0.458972 -0.62896,0.747954 -0.69696,1.155928 -0.034,0.203988 0.119,0.424974 0.102,0.696957 -0.017,0.407974 -0.085,0.747953 -0.11899,1.087932 -0.23799,0.64596 -0.23799,1.393913 0.034,2.158865 0.62896,1.76789 2.48184,3.144804 4.21573,3.144804 h 15.690028 c 1.4619,0 2.95781,-1.12193 3.38278,-2.56684 l 4.67471,-15.401039 c 0.23799,-0.781951 0.119,-1.580901 -0.30598,-2.192863 z m -18.08687,0.034 0.35698,-1.087932 c 0.10199,-0.305981 0.42497,-0.543966 0.71395,-0.543966 h 10.33536 c 0.30598,0 0.47597,0.237985 0.37398,0.543966 l -0.35698,1.087932 c -0.102,0.305981 -0.42498,0.543966 -0.71396,0.543966 h -10.33535 c -0.30598,0 -0.47597,-0.237985 -0.37398,-0.543966 z m -1.41091,4.351728 0.35698,-1.087932 c 0.10199,-0.305981 0.42497,-0.543966 0.71395,-0.543966 h 10.33536 c 0.30598,0 0.47597,0.237985 0.37397,0.543966 l -0.35697,1.087932 c -0.102,0.305981 -0.42498,0.543966 -0.71396,0.543966 h -10.33535 c -0.30599,0 -0.47598,-0.237985 -0.37398,-0.543966 z"
               style="font-style:normal;font-variant:normal;font-weight:normal;font-stretch:normal;font-size:30.4621px;font-family:FontAwesome;-inkscape-font-specification:'FontAwesome, Normal';font-variant-ligatures:normal;font-variant-caps:normal;font-variant-numeric:normal;font-variant-east-asian:normal;fill:#424242;fill-opacity:1;stroke-width:0.761554"
               id="path957" />
          </g>
        </g>
      </g>
    </g>
  </g>
  <g
     inkscape:groupmode="layer"
     id="g939"
     inkscape:label="[export] shield [teams]"
     style="display:none">
    <g
       id="g937"
       transform="matrix(1.4853714,0,0,1.4853714,12.798765,-0.61151946)">
      <g
         transform="translate(-125.38,-26.449)"
         id="g934">
        <path
           d="m 128.98,30.355 0.55499,39.644 h 33.141 l 0.004,-39.644 z"
           style="fill:#4839b7;fill-opacity:0.396078"
           id="path912" />
        <path
           d="m 162.69,70 0.003,43.946 c 12.825,-5.8796 32.762,-17.077 33.127,-43.157 l 0.0108,-0.78911 z"
           style="fill:#4839b7;fill-opacity:0.396078"
           id="path915" />
        <path
           d="m 128.98,30.355 h 44.386 L 195.78,51.181 V 76.08 c 0,26.166 -21.414,32.228 -33.117,38.409 -12.815,-5.8945 -32.794,-12.329 -33.117,-38.409 z"
           style="fill:none;stroke:#4839b7;stroke-width:5.2922;stroke-opacity:1"
           id="path917" />
        <path
           d="m 171.32,29.811 v 23.04 h 24.575"
           style="fill:none;stroke:#4839b7;stroke-width:5.2917;stroke-opacity:1"
           id="path920" />
        <g
           transform="matrix(1.1107,0,0,1.1107,18.926,21.932)"
           style="fill:#4839b7;fill-opacity:1"
           id="g932">
          <path
             d="m 137.23,42.719 a 8.1185,8.1185 0 0 1 -8.1185,8.1185 8.1185,8.1185 0 0 1 -8.1185,-8.1185 8.1185,8.1185 0 0 1 8.1185,-8.1185 8.1185,8.1185 0 0 1 8.1185,8.1185 z"
             style="fill:#4839b7;fill-opacity:1"
             id="path922" />
          <path
             d="m 127,42.651 h 4.2265 l 4.2333,22.354 h -12.693 z"
             style="fill:#4839b7;fill-opacity:1"
             id="path929" />
        </g>
      </g>
    </g>
  </g>
  <g
     inkscape:groupmode="layer"
     id="g373"
     inkscape:label="[export] shield [OO_doc]"
     style="display:inline">
    <g
       id="g371"
       transform="matrix(1.4853714,0,0,1.4853714,12.798765,-0.61151946)">
      <g
         transform="translate(-125.38,-26.449)"
         id="g369">
        <path
           d="m 128.98,30.355 0.55499,39.644 h 33.141 l 0.004,-39.644 z"
           style="fill:#5170b5;fill-opacity:0.396078"
           id="path355" />
        <path
           d="m 162.69,70 0.003,43.946 c 12.825,-5.8796 32.762,-17.077 33.127,-43.157 l 0.0108,-0.78911 z"
           style="fill:#5170b5;fill-opacity:0.396078"
           id="path357" />
        <path
           d="m 128.98,30.355 h 44.386 L 195.78,51.181 V 76.08 c 0,26.166 -21.414,32.228 -33.117,38.409 -12.815,-5.8945 -32.794,-12.329 -33.117,-38.409 z"
           style="fill:none;stroke:#5170b5;stroke-width:5.2922;stroke-opacity:1"
           id="path359" />
        <path
           d="m 171.32,29.811 v 23.04 h 24.575"
           style="fill:none;stroke:#5170b5;stroke-width:5.2917;stroke-opacity:1"
           id="path361" />
        <g
           transform="matrix(1.1107,0,0,1.1107,18.926,21.932)"
           style="fill:#4839b7;fill-opacity:1"
           id="g367">
          <path
             d="m 137.23,42.719 a 8.1185,8.1185 0 0 1 -8.1185,8.1185 8.1185,8.1185 0 0 1 -8.1185,-8.1185 8.1185,8.1185 0 0 1 8.1185,-8.1185 8.1185,8.1185 0 0 1 8.1185,8.1185 z"
             style="fill:#5170b5;fill-opacity:1"
             id="path363" />
          <path
             d="m 127,42.651 h 4.2265 l 4.2333,22.354 h -12.693 z"
             style="fill:#5170b5;fill-opacity:1"
             id="path365" />
        </g>
      </g>
    </g>
  </g>
  <g
     inkscape:groupmode="layer"
     id="g956"
     inkscape:label="[export] shield [OO_pres]"
     style="display:none">
    <g
       id="g954"
       transform="matrix(1.4853714,0,0,1.4853714,12.798765,-0.61151946)">
      <g
         transform="translate(-125.38,-26.449)"
         id="g952">
        <path
           d="m 128.98,30.355 0.55499,39.644 h 33.141 l 0.004,-39.644 z"
           style="fill:#c65d27;fill-opacity:0.396078"
           id="path937" />
        <path
           d="m 162.69,70 0.003,43.946 c 12.825,-5.8796 32.762,-17.077 33.127,-43.157 l 0.0108,-0.78911 z"
           style="fill:#c65d27;fill-opacity:0.396078"
           id="path939" />
        <path
           d="m 128.98,30.355 h 44.386 L 195.78,51.181 V 76.08 c 0,26.166 -21.414,32.228 -33.117,38.409 -12.815,-5.8945 -32.794,-12.329 -33.117,-38.409 z"
           style="fill:none;stroke:#c65d27;stroke-width:5.2922;stroke-opacity:1"
           id="path941" />
        <path
           d="m 171.32,29.811 v 23.04 h 24.575"
           style="fill:none;stroke:#c65d27;stroke-width:5.2917;stroke-opacity:1"
           id="path943" />
        <g
           transform="matrix(1.1107,0,0,1.1107,18.926,21.932)"
           style="fill:#c65d27;fill-opacity:1"
           id="g950">
          <path
             d="m 137.23,42.719 a 8.1185,8.1185 0 0 1 -8.1185,8.1185 8.1185,8.1185 0 0 1 -8.1185,-8.1185 8.1185,8.1185 0 0 1 8.1185,-8.1185 8.1185,8.1185 0 0 1 8.1185,8.1185 z"
             style="fill:#c65d27;fill-opacity:1"
             id="path946" />
          <path
             d="m 127,42.651 h 4.2265 l 4.2333,22.354 h -12.693 z"
             style="fill:#c65d27;fill-opacity:1"
             id="path948" />
        </g>
      </g>
    </g>
  </g>
  <g
     inkscape:groupmode="layer"
     id="g913"
     inkscape:label="[export] shield [rich text]"
     style="display:none">
    <g
       id="g911"
       transform="matrix(1.4853714,0,0,1.4853714,12.798765,-0.61151946)">
      <g
         transform="translate(-125.38,-26.449)"
         id="g909">
        <path
           d="m 128.98,30.355 0.55499,39.644 h 33.141 l 0.004,-39.644 z"
           style="fill:#2467cf;fill-opacity:0.4"
           id="path895" />
        <path
           d="m 162.69,70 0.003,43.946 c 12.825,-5.8796 32.762,-17.077 33.127,-43.157 l 0.0108,-0.78911 z"
           style="fill:#2467cf;fill-opacity:0.4"
           id="path897" />
        <path
           id="path925"
           style="color:#000000;font-style:normal;font-variant:normal;font-weight:normal;font-stretch:normal;font-size:medium;line-height:normal;font-family:sans-serif;font-variant-ligatures:normal;font-variant-position:normal;font-variant-caps:normal;font-variant-numeric:normal;font-variant-alternates:normal;font-variant-east-asian:normal;font-feature-settings:normal;font-variation-settings:normal;text-indent:0;text-align:start;text-decoration:none;text-decoration-line:none;text-decoration-style:solid;text-decoration-color:#000000;letter-spacing:normal;word-spacing:normal;text-transform:none;writing-mode:lr-tb;direction:ltr;text-orientation:mixed;dominant-baseline:auto;baseline-shift:baseline;text-anchor:start;white-space:normal;shape-padding:0;shape-margin:0;inline-size:0;clip-rule:nonzero;display:inline;overflow:visible;visibility:visible;opacity:1;isolation:auto;mix-blend-mode:normal;color-interpolation:sRGB;color-interpolation-filters:linearRGB;solid-color:#000000;solid-opacity:1;vector-effect:none;fill:url(#linearGradient949);fill-opacity:1;fill-rule:nonzero;stroke:none;stroke-width:29.7103;stroke-linecap:butt;stroke-linejoin:miter;stroke-miterlimit:4;stroke-dasharray:none;stroke-dashoffset:0;stroke-opacity:1;color-rendering:auto;image-rendering:auto;shape-rendering:auto;text-rendering:auto;enable-background:accumulate;stop-color:#000000;stop-opacity:1"
           d="m 53.544922,4.7617188 0.185547,15.0449222 3.179687,256.695309 c 0.953422,76.9836 32.1134,127.84094 71.929684,161.46875 39.81629,33.62784 87.45761,51.28822 122.63086,67.4668 l 6.66602,3.07031 6.48047,-3.43359 c 31.31498,-16.53917 79.28982,-34.11259 120.05273,-67.35547 40.76297,-33.24293 73.7832,-83.90225 73.7832,-161.40234 V 130.05664 L 323.60742,4.7617188 Z M 83.621094,34.476562 H 291.42578 V 160.75781 H 428.75 v 115.5586 c 0,69.39522 -27.09036,109.2031 -62.86133,138.375 -33.66112,27.45122 -74.94064,43.84038 -108.41015,60.82226 C 221.97696,459.48582 180.81444,442.98268 148.00586,415.27344 113.30228,385.96366 87.475071,345.55977 86.615234,276.13086 Z m 237.519526,8.556641 94.7461,88.021487 h -94.7461 z"
           transform="matrix(0.17812685,0,0,0.17812685,116.76305,26.860695)" />
        <g
           transform="matrix(1.1107,0,0,1.1107,18.926,21.932)"
           style="fill:#0087ff"
           id="g907">
          <path
             id="path903"
             style="fill:#2467cf;fill-opacity:1;stroke-width:6.23544"
             d="m 255.8125,188.08008 a 50.622452,50.622452 0 0 0 -50.62305,50.62304 50.622452,50.622452 0 0 0 28.73243,45.64258 L 216.25,377.66602 h 79.14648 l -17.67382,-93.33008 a 50.622452,50.622452 0 0 0 28.71289,-45.63282 50.622452,50.622452 0 0 0 -50.62305,-50.62304 z"
             transform="matrix(0.1603735,0,0,0.1603735,88.085934,4.437467)" />
        </g>
      </g>
    </g>
  </g>
  <g
     inkscape:groupmode="layer"
     id="g935"
     inkscape:label="[export] shield [code]"
     style="display:none">
    <g
       id="g933"
       transform="matrix(1.4853714,0,0,1.4853714,12.798765,-0.61151946)">
      <g
         transform="translate(-125.38,-26.449)"
         id="g931"
         style="fill:#e39b00;fill-opacity:1">
        <path
           d="m 128.98,30.355 0.55499,39.644 h 33.141 l 0.004,-39.644 z"
           style="fill:#eaa000;fill-opacity:0.4"
           id="path919" />
        <path
           d="m 162.69,70 0.003,43.946 c 12.825,-5.8796 32.762,-17.077 33.127,-43.157 l 0.0108,-0.78911 z"
           style="fill:#eaa000;fill-opacity:0.4"
           id="path921" />
        <path
           id="path923"
           style="color:#000000;font-style:normal;font-variant:normal;font-weight:normal;font-stretch:normal;font-size:medium;line-height:normal;font-family:sans-serif;font-variant-ligatures:normal;font-variant-position:normal;font-variant-caps:normal;font-variant-numeric:normal;font-variant-alternates:normal;font-variant-east-asian:normal;font-feature-settings:normal;font-variation-settings:normal;text-indent:0;text-align:start;text-decoration:none;text-decoration-line:none;text-decoration-style:solid;text-decoration-color:#000000;letter-spacing:normal;word-spacing:normal;text-transform:none;writing-mode:lr-tb;direction:ltr;text-orientation:mixed;dominant-baseline:auto;baseline-shift:baseline;text-anchor:start;white-space:normal;shape-padding:0;shape-margin:0;inline-size:0;clip-rule:nonzero;display:inline;overflow:visible;visibility:visible;opacity:1;isolation:auto;mix-blend-mode:normal;color-interpolation:sRGB;color-interpolation-filters:linearRGB;solid-color:#000000;solid-opacity:1;vector-effect:none;fill:#eaa000;fill-opacity:1;fill-rule:nonzero;stroke:none;stroke-width:29.7103;stroke-linecap:butt;stroke-linejoin:miter;stroke-miterlimit:4;stroke-dasharray:none;stroke-dashoffset:0;stroke-opacity:1;color-rendering:auto;image-rendering:auto;shape-rendering:auto;text-rendering:auto;enable-background:accumulate;stop-color:#000000;stop-opacity:1"
           d="m 53.544922,4.7617188 0.185547,15.0449222 3.179687,256.695309 c 0.953422,76.9836 32.1134,127.84094 71.929684,161.46875 39.81629,33.62784 87.45761,51.28822 122.63086,67.4668 l 6.66602,3.07031 6.48047,-3.43359 c 31.31498,-16.53917 79.28982,-34.11259 120.05273,-67.35547 40.76297,-33.24293 73.7832,-83.90225 73.7832,-161.40234 V 130.05664 L 323.60742,4.7617188 Z M 83.621094,34.476562 H 291.42578 V 160.75781 H 428.75 v 115.5586 c 0,69.39522 -27.09036,109.2031 -62.86133,138.375 -33.66112,27.45122 -74.94064,43.84038 -108.41015,60.82226 C 221.97696,459.48582 180.81444,442.98268 148.00586,415.27344 113.30228,385.96366 87.475071,345.55977 86.615234,276.13086 Z m 237.519526,8.556641 94.7461,88.021487 h -94.7461 z"
           transform="matrix(0.17812685,0,0,0.17812685,116.76305,26.860695)" />
        <g
           transform="matrix(1.1107,0,0,1.1107,18.926,21.932)"
           style="fill:#e39b00;fill-opacity:1"
           id="g929">
          <path
             id="path927"
             style="fill:#e39b00;fill-opacity:1;stroke-width:6.23544"
             d="m 255.8125,188.08008 a 50.622452,50.622452 0 0 0 -50.62305,50.62304 50.622452,50.622452 0 0 0 28.73243,45.64258 L 216.25,377.66602 h 79.14648 l -17.67382,-93.33008 a 50.622452,50.622452 0 0 0 28.71289,-45.63282 50.622452,50.622452 0 0 0 -50.62305,-50.62304 z"
             transform="matrix(0.1603735,0,0,0.1603735,88.085934,4.437467)" />
        </g>
      </g>
    </g>
  </g>
  <g
     inkscape:groupmode="layer"
     id="g959"
     inkscape:label="[export] shield [slide] "
     style="display:none">
    <g
       id="g957"
       transform="matrix(1.4853714,0,0,1.4853714,12.798765,-0.61151946)">
      <g
         transform="translate(-125.38,-26.449)"
         id="g955"
         style="fill:#e57614;fill-opacity:1">
        <path
           d="m 128.98,30.355 0.55499,39.644 h 33.141 l 0.004,-39.644 z"
           style="fill:#e57614;fill-opacity:0.4"
           id="path945" />
        <path
           d="m 162.69,70 0.003,43.946 c 12.825,-5.8796 32.762,-17.077 33.127,-43.157 l 0.0108,-0.78911 z"
           style="fill:#e57614;fill-opacity:0.4"
           id="path947" />
        <path
           id="path949"
           style="color:#000000;font-style:normal;font-variant:normal;font-weight:normal;font-stretch:normal;font-size:medium;line-height:normal;font-family:sans-serif;font-variant-ligatures:normal;font-variant-position:normal;font-variant-caps:normal;font-variant-numeric:normal;font-variant-alternates:normal;font-variant-east-asian:normal;font-feature-settings:normal;font-variation-settings:normal;text-indent:0;text-align:start;text-decoration:none;text-decoration-line:none;text-decoration-style:solid;text-decoration-color:#000000;letter-spacing:normal;word-spacing:normal;text-transform:none;writing-mode:lr-tb;direction:ltr;text-orientation:mixed;dominant-baseline:auto;baseline-shift:baseline;text-anchor:start;white-space:normal;shape-padding:0;shape-margin:0;inline-size:0;clip-rule:nonzero;display:inline;overflow:visible;visibility:visible;opacity:1;isolation:auto;mix-blend-mode:normal;color-interpolation:sRGB;color-interpolation-filters:linearRGB;solid-color:#000000;solid-opacity:1;vector-effect:none;fill:#e57614;fill-opacity:1;fill-rule:nonzero;stroke:none;stroke-width:29.7103;stroke-linecap:butt;stroke-linejoin:miter;stroke-miterlimit:4;stroke-dasharray:none;stroke-dashoffset:0;stroke-opacity:1;color-rendering:auto;image-rendering:auto;shape-rendering:auto;text-rendering:auto;enable-background:accumulate;stop-color:#000000;stop-opacity:1"
           d="m 53.544922,4.7617188 0.185547,15.0449222 3.179687,256.695309 c 0.953422,76.9836 32.1134,127.84094 71.929684,161.46875 39.81629,33.62784 87.45761,51.28822 122.63086,67.4668 l 6.66602,3.07031 6.48047,-3.43359 c 31.31498,-16.53917 79.28982,-34.11259 120.05273,-67.35547 40.76297,-33.24293 73.7832,-83.90225 73.7832,-161.40234 V 130.05664 L 323.60742,4.7617188 Z M 83.621094,34.476562 H 291.42578 V 160.75781 H 428.75 v 115.5586 c 0,69.39522 -27.09036,109.2031 -62.86133,138.375 -33.66112,27.45122 -74.94064,43.84038 -108.41015,60.82226 C 221.97696,459.48582 180.81444,442.98268 148.00586,415.27344 113.30228,385.96366 87.475071,345.55977 86.615234,276.13086 Z m 237.519526,8.556641 94.7461,88.021487 h -94.7461 z"
           transform="matrix(0.17812685,0,0,0.17812685,116.76305,26.860695)" />
        <g
           transform="matrix(1.1107,0,0,1.1107,18.926,21.932)"
           style="fill:#e57614;fill-opacity:1"
           id="g953">
          <path
             id="path951"
             style="fill:#e57614;fill-opacity:1;stroke-width:6.23544"
             d="m 255.8125,188.08008 a 50.622452,50.622452 0 0 0 -50.62305,50.62304 50.622452,50.622452 0 0 0 28.73243,45.64258 L 216.25,377.66602 h 79.14648 l -17.67382,-93.33008 a 50.622452,50.622452 0 0 0 28.71289,-45.63282 50.622452,50.622452 0 0 0 -50.62305,-50.62304 z"
             transform="matrix(0.1603735,0,0,0.1603735,88.085934,4.437467)" />
        </g>
      </g>
    </g>
  </g>
  <g
     inkscape:groupmode="layer"
     id="g975"
     inkscape:label="[export] shield [sheets] "
     style="display:none">
    <g
       id="g973"
       transform="matrix(1.4853714,0,0,1.4853714,12.798765,-0.61151946)">
      <g
         transform="translate(-125.38,-26.449)"
         id="g971"
         style="fill:#e57614;fill-opacity:1">
        <path
           d="m 128.98,30.355 0.55499,39.644 h 33.141 l 0.004,-39.644 z"
           style="fill:#40865c;fill-opacity:0.4"
           id="path961" />
        <path
           d="m 162.69,70 0.003,43.946 c 12.825,-5.8796 32.762,-17.077 33.127,-43.157 l 0.0108,-0.78911 z"
           style="fill:#40865c;fill-opacity:0.4"
           id="path963" />
        <path
           id="path965"
           style="color:#000000;font-style:normal;font-variant:normal;font-weight:normal;font-stretch:normal;font-size:medium;line-height:normal;font-family:sans-serif;font-variant-ligatures:normal;font-variant-position:normal;font-variant-caps:normal;font-variant-numeric:normal;font-variant-alternates:normal;font-variant-east-asian:normal;font-feature-settings:normal;font-variation-settings:normal;text-indent:0;text-align:start;text-decoration:none;text-decoration-line:none;text-decoration-style:solid;text-decoration-color:#000000;letter-spacing:normal;word-spacing:normal;text-transform:none;writing-mode:lr-tb;direction:ltr;text-orientation:mixed;dominant-baseline:auto;baseline-shift:baseline;text-anchor:start;white-space:normal;shape-padding:0;shape-margin:0;inline-size:0;clip-rule:nonzero;display:inline;overflow:visible;visibility:visible;opacity:1;isolation:auto;mix-blend-mode:normal;color-interpolation:sRGB;color-interpolation-filters:linearRGB;solid-color:#000000;solid-opacity:1;vector-effect:none;fill:#40865c;fill-opacity:1;fill-rule:nonzero;stroke:none;stroke-width:29.7103;stroke-linecap:butt;stroke-linejoin:miter;stroke-miterlimit:4;stroke-dasharray:none;stroke-dashoffset:0;stroke-opacity:1;color-rendering:auto;image-rendering:auto;shape-rendering:auto;text-rendering:auto;enable-background:accumulate;stop-color:#000000;stop-opacity:1"
           d="m 53.544922,4.7617188 0.185547,15.0449222 3.179687,256.695309 c 0.953422,76.9836 32.1134,127.84094 71.929684,161.46875 39.81629,33.62784 87.45761,51.28822 122.63086,67.4668 l 6.66602,3.07031 6.48047,-3.43359 c 31.31498,-16.53917 79.28982,-34.11259 120.05273,-67.35547 40.76297,-33.24293 73.7832,-83.90225 73.7832,-161.40234 V 130.05664 L 323.60742,4.7617188 Z M 83.621094,34.476562 H 291.42578 V 160.75781 H 428.75 v 115.5586 c 0,69.39522 -27.09036,109.2031 -62.86133,138.375 -33.66112,27.45122 -74.94064,43.84038 -108.41015,60.82226 C 221.97696,459.48582 180.81444,442.98268 148.00586,415.27344 113.30228,385.96366 87.475071,345.55977 86.615234,276.13086 Z m 237.519526,8.556641 94.7461,88.021487 h -94.7461 z"
           transform="matrix(0.17812685,0,0,0.17812685,116.76305,26.860695)" />
        <g
           transform="matrix(1.1107,0,0,1.1107,18.926,21.932)"
           style="fill:#40865c;fill-opacity:1"
           id="g969">
          <path
             id="path967"
             style="fill:#40865c;fill-opacity:1;stroke-width:6.23544"
             d="m 255.8125,188.08008 a 50.622452,50.622452 0 0 0 -50.62305,50.62304 50.622452,50.622452 0 0 0 28.73243,45.64258 L 216.25,377.66602 h 79.14648 l -17.67382,-93.33008 a 50.622452,50.622452 0 0 0 28.71289,-45.63282 50.622452,50.622452 0 0 0 -50.62305,-50.62304 z"
             transform="matrix(0.1603735,0,0,0.1603735,88.085934,4.437467)" />
        </g>
      </g>
    </g>
  </g>
  <g
     inkscape:groupmode="layer"
     id="g991"
     inkscape:label="[export] shield [kanban]"
     style="display:none">
    <g
       id="g989"
       transform="matrix(1.4853714,0,0,1.4853714,12.798765,-0.61151946)">
      <g
         transform="translate(-125.38,-26.449)"
         id="g987"
         style="fill:#88cc44;fill-opacity:1">
        <path
           d="m 128.98,30.355 0.55499,39.644 h 33.141 l 0.004,-39.644 z"
           style="fill:#88cc44;fill-opacity:0.4"
           id="path977" />
        <path
           d="m 162.69,70 0.003,43.946 c 12.825,-5.8796 32.762,-17.077 33.127,-43.157 l 0.0108,-0.78911 z"
           style="fill:#88cc44;fill-opacity:0.4"
           id="path979" />
        <path
           id="path981"
           style="color:#000000;font-style:normal;font-variant:normal;font-weight:normal;font-stretch:normal;font-size:medium;line-height:normal;font-family:sans-serif;font-variant-ligatures:normal;font-variant-position:normal;font-variant-caps:normal;font-variant-numeric:normal;font-variant-alternates:normal;font-variant-east-asian:normal;font-feature-settings:normal;font-variation-settings:normal;text-indent:0;text-align:start;text-decoration:none;text-decoration-line:none;text-decoration-style:solid;text-decoration-color:#000000;letter-spacing:normal;word-spacing:normal;text-transform:none;writing-mode:lr-tb;direction:ltr;text-orientation:mixed;dominant-baseline:auto;baseline-shift:baseline;text-anchor:start;white-space:normal;shape-padding:0;shape-margin:0;inline-size:0;clip-rule:nonzero;display:inline;overflow:visible;visibility:visible;opacity:1;isolation:auto;mix-blend-mode:normal;color-interpolation:sRGB;color-interpolation-filters:linearRGB;solid-color:#000000;solid-opacity:1;vector-effect:none;fill:#88cc44;fill-opacity:1;fill-rule:nonzero;stroke:none;stroke-width:29.7103;stroke-linecap:butt;stroke-linejoin:miter;stroke-miterlimit:4;stroke-dasharray:none;stroke-dashoffset:0;stroke-opacity:1;color-rendering:auto;image-rendering:auto;shape-rendering:auto;text-rendering:auto;enable-background:accumulate;stop-color:#000000;stop-opacity:1"
           d="m 53.544922,4.7617188 0.185547,15.0449222 3.179687,256.695309 c 0.953422,76.9836 32.1134,127.84094 71.929684,161.46875 39.81629,33.62784 87.45761,51.28822 122.63086,67.4668 l 6.66602,3.07031 6.48047,-3.43359 c 31.31498,-16.53917 79.28982,-34.11259 120.05273,-67.35547 40.76297,-33.24293 73.7832,-83.90225 73.7832,-161.40234 V 130.05664 L 323.60742,4.7617188 Z M 83.621094,34.476562 H 291.42578 V 160.75781 H 428.75 v 115.5586 c 0,69.39522 -27.09036,109.2031 -62.86133,138.375 -33.66112,27.45122 -74.94064,43.84038 -108.41015,60.82226 C 221.97696,459.48582 180.81444,442.98268 148.00586,415.27344 113.30228,385.96366 87.475071,345.55977 86.615234,276.13086 Z m 237.519526,8.556641 94.7461,88.021487 h -94.7461 z"
           transform="matrix(0.17812685,0,0,0.17812685,116.76305,26.860695)" />
        <g
           transform="matrix(1.1107,0,0,1.1107,18.926,21.932)"
           style="fill:#88cc44;fill-opacity:1"
           id="g985">
          <path
             id="path983"
             style="fill:#88cc44;fill-opacity:1;stroke-width:6.23544"
             d="m 255.8125,188.08008 a 50.622452,50.622452 0 0 0 -50.62305,50.62304 50.622452,50.622452 0 0 0 28.73243,45.64258 L 216.25,377.66602 h 79.14648 l -17.67382,-93.33008 a 50.622452,50.622452 0 0 0 28.71289,-45.63282 50.622452,50.622452 0 0 0 -50.62305,-50.62304 z"
             transform="matrix(0.1603735,0,0,0.1603735,88.085934,4.437467)" />
        </g>
      </g>
    </g>
  </g>
  <g
     inkscape:groupmode="layer"
     id="g1007"
     inkscape:label="[export] shield [poll]"
     style="display:none">
    <g
       id="g1005"
       transform="matrix(1.4853714,0,0,1.4853714,12.798765,-0.61151946)">
      <g
         transform="translate(-125.38,-26.449)"
         id="g1003"
         style="fill:#2c9e98;fill-opacity:1">
        <path
           d="m 128.98,30.355 0.55499,39.644 h 33.141 l 0.004,-39.644 z"
           style="fill:#2c9e98;fill-opacity:0.4"
           id="path993" />
        <path
           d="m 162.69,70 0.003,43.946 c 12.825,-5.8796 32.762,-17.077 33.127,-43.157 l 0.0108,-0.78911 z"
           style="fill:#2c9e98;fill-opacity:0.4"
           id="path995" />
        <path
           id="path997"
           style="color:#000000;font-style:normal;font-variant:normal;font-weight:normal;font-stretch:normal;font-size:medium;line-height:normal;font-family:sans-serif;font-variant-ligatures:normal;font-variant-position:normal;font-variant-caps:normal;font-variant-numeric:normal;font-variant-alternates:normal;font-variant-east-asian:normal;font-feature-settings:normal;font-variation-settings:normal;text-indent:0;text-align:start;text-decoration:none;text-decoration-line:none;text-decoration-style:solid;text-decoration-color:#000000;letter-spacing:normal;word-spacing:normal;text-transform:none;writing-mode:lr-tb;direction:ltr;text-orientation:mixed;dominant-baseline:auto;baseline-shift:baseline;text-anchor:start;white-space:normal;shape-padding:0;shape-margin:0;inline-size:0;clip-rule:nonzero;display:inline;overflow:visible;visibility:visible;opacity:1;isolation:auto;mix-blend-mode:normal;color-interpolation:sRGB;color-interpolation-filters:linearRGB;solid-color:#000000;solid-opacity:1;vector-effect:none;fill:#2c9e98;fill-opacity:1;fill-rule:nonzero;stroke:none;stroke-width:29.7103;stroke-linecap:butt;stroke-linejoin:miter;stroke-miterlimit:4;stroke-dasharray:none;stroke-dashoffset:0;stroke-opacity:1;color-rendering:auto;image-rendering:auto;shape-rendering:auto;text-rendering:auto;enable-background:accumulate;stop-color:#000000;stop-opacity:1"
           d="m 53.544922,4.7617188 0.185547,15.0449222 3.179687,256.695309 c 0.953422,76.9836 32.1134,127.84094 71.929684,161.46875 39.81629,33.62784 87.45761,51.28822 122.63086,67.4668 l 6.66602,3.07031 6.48047,-3.43359 c 31.31498,-16.53917 79.28982,-34.11259 120.05273,-67.35547 40.76297,-33.24293 73.7832,-83.90225 73.7832,-161.40234 V 130.05664 L 323.60742,4.7617188 Z M 83.621094,34.476562 H 291.42578 V 160.75781 H 428.75 v 115.5586 c 0,69.39522 -27.09036,109.2031 -62.86133,138.375 -33.66112,27.45122 -74.94064,43.84038 -108.41015,60.82226 C 221.97696,459.48582 180.81444,442.98268 148.00586,415.27344 113.30228,385.96366 87.475071,345.55977 86.615234,276.13086 Z m 237.519526,8.556641 94.7461,88.021487 h -94.7461 z"
           transform="matrix(0.17812685,0,0,0.17812685,116.76305,26.860695)" />
        <g
           transform="matrix(1.1107,0,0,1.1107,18.926,21.932)"
           style="fill:#2c9e98;fill-opacity:1"
           id="g1001">
          <path
             id="path999"
             style="fill:#2c9e98;fill-opacity:1;stroke-width:6.23544"
             d="m 255.8125,188.08008 a 50.622452,50.622452 0 0 0 -50.62305,50.62304 50.622452,50.622452 0 0 0 28.73243,45.64258 L 216.25,377.66602 h 79.14648 l -17.67382,-93.33008 a 50.622452,50.622452 0 0 0 28.71289,-45.63282 50.622452,50.622452 0 0 0 -50.62305,-50.62304 z"
             transform="matrix(0.1603735,0,0,0.1603735,88.085934,4.437467)" />
        </g>
      </g>
    </g>
  </g>
  <g
     inkscape:groupmode="layer"
     id="g1023"
     inkscape:label="[export] shield [whiteboard]"
     style="display:none">
    <g
       id="g1021"
       transform="matrix(1.4853714,0,0,1.4853714,12.798765,-0.61151946)">
      <g
         transform="translate(-125.38,-26.449)"
         id="g1019"
         style="fill:#2c9e98;fill-opacity:1">
        <path
           d="m 128.98,30.355 0.55499,39.644 h 33.141 l 0.004,-39.644 z"
           style="fill:#a72ba7;fill-opacity:0.4"
           id="path1009" />
        <path
           d="m 162.69,70 0.003,43.946 c 12.825,-5.8796 32.762,-17.077 33.127,-43.157 l 0.0108,-0.78911 z"
           style="fill:#a72ba7;fill-opacity:0.4"
           id="path1011" />
        <path
           id="path1013"
           style="color:#000000;font-style:normal;font-variant:normal;font-weight:normal;font-stretch:normal;font-size:medium;line-height:normal;font-family:sans-serif;font-variant-ligatures:normal;font-variant-position:normal;font-variant-caps:normal;font-variant-numeric:normal;font-variant-alternates:normal;font-variant-east-asian:normal;font-feature-settings:normal;font-variation-settings:normal;text-indent:0;text-align:start;text-decoration:none;text-decoration-line:none;text-decoration-style:solid;text-decoration-color:#000000;letter-spacing:normal;word-spacing:normal;text-transform:none;writing-mode:lr-tb;direction:ltr;text-orientation:mixed;dominant-baseline:auto;baseline-shift:baseline;text-anchor:start;white-space:normal;shape-padding:0;shape-margin:0;inline-size:0;clip-rule:nonzero;display:inline;overflow:visible;visibility:visible;opacity:1;isolation:auto;mix-blend-mode:normal;color-interpolation:sRGB;color-interpolation-filters:linearRGB;solid-color:#000000;solid-opacity:1;vector-effect:none;fill:#a72ba7;fill-opacity:1;fill-rule:nonzero;stroke:none;stroke-width:29.7103;stroke-linecap:butt;stroke-linejoin:miter;stroke-miterlimit:4;stroke-dasharray:none;stroke-dashoffset:0;stroke-opacity:1;color-rendering:auto;image-rendering:auto;shape-rendering:auto;text-rendering:auto;enable-background:accumulate;stop-color:#000000;stop-opacity:1"
           d="m 53.544922,4.7617188 0.185547,15.0449222 3.179687,256.695309 c 0.953422,76.9836 32.1134,127.84094 71.929684,161.46875 39.81629,33.62784 87.45761,51.28822 122.63086,67.4668 l 6.66602,3.07031 6.48047,-3.43359 c 31.31498,-16.53917 79.28982,-34.11259 120.05273,-67.35547 40.76297,-33.24293 73.7832,-83.90225 73.7832,-161.40234 V 130.05664 L 323.60742,4.7617188 Z M 83.621094,34.476562 H 291.42578 V 160.75781 H 428.75 v 115.5586 c 0,69.39522 -27.09036,109.2031 -62.86133,138.375 -33.66112,27.45122 -74.94064,43.84038 -108.41015,60.82226 C 221.97696,459.48582 180.81444,442.98268 148.00586,415.27344 113.30228,385.96366 87.475071,345.55977 86.615234,276.13086 Z m 237.519526,8.556641 94.7461,88.021487 h -94.7461 z"
           transform="matrix(0.17812685,0,0,0.17812685,116.76305,26.860695)" />
        <g
           transform="matrix(1.1107,0,0,1.1107,18.926,21.932)"
           style="fill:#a72ba7;fill-opacity:1"
           id="g1017">
          <path
             id="path1015"
             style="fill:#a72ba7;fill-opacity:1;stroke-width:6.23544"
             d="m 255.8125,188.08008 a 50.622452,50.622452 0 0 0 -50.62305,50.62304 50.622452,50.622452 0 0 0 28.73243,45.64258 L 216.25,377.66602 h 79.14648 l -17.67382,-93.33008 a 50.622452,50.622452 0 0 0 28.71289,-45.63282 50.622452,50.622452 0 0 0 -50.62305,-50.62304 z"
             transform="matrix(0.1603735,0,0,0.1603735,88.085934,4.437467)" />
        </g>
      </g>
    </g>
  </g>
  <g
     inkscape:groupmode="layer"
     id="layer2"
     inkscape:label="dot"
     style="display:inline">
    <circle
       style="fill:#ff0000;fill-opacity:1;stroke-width:7.93754"
       id="path968"
       cx="106.3063"
       cy="106.45006"
       r="22.907322" />
  </g>
</svg>
