<svg xmlns="http://www.w3.org/2000/svg" width="100" height="127"><path d="M95 23v96c0 .796-.3161 1.559-.8787 2.121A2.9987 2.9987 0 0192 122H8a2.9987 2.9987 0 01-2.1213-.879A2.9976 2.9976 0 015 119V8a3 3 0 013-3h69l18 18z" fill="#646464"/><path opacity=".2" d="M95 23H80a3 3 0 01-3-3V5l18 18z"/><path d="M43.6868 106.822c-.6836 0-1.2129.258-1.5879.774-.375.511-.5625 1.226-.5625 2.144 0 1.91.7168 2.865 2.1504 2.865.6015 0 1.33-.15 2.1855-.451v1.524c-.7031.293-1.4883.439-2.3555.439-1.246 0-2.1992-.377-2.8593-1.131-.6602-.757-.9903-1.843-.9903-3.257 0-.891.1621-1.67.4864-2.338.3242-.672.789-1.186 1.3945-1.541.6094-.36 1.3223-.539 2.1387-.539.832 0 1.6679.201 2.5078.603l-.586 1.477a9.4774 9.4774 0 00-.9668-.399c-.3242-.113-.6425-.17-.955-.17zm9.0703 4.799c0 .774-.2793 1.383-.8379 1.828-.5547.446-1.3281.668-2.3203.668-.9141 0-1.7227-.172-2.4258-.515v-1.688c.5781.258 1.0664.44 1.4648.545.4024.105.7696.158 1.1016.158.3984 0 .7031-.076.9141-.228.2148-.153.3222-.379.3222-.68 0-.168-.0468-.316-.1406-.445-.0937-.133-.2324-.26-.416-.381-.1797-.121-.5488-.315-1.1074-.58-.5235-.246-.916-.483-1.1778-.709-.2617-.227-.4707-.49-.6269-.791-.1563-.301-.2344-.653-.2344-1.055 0-.758.2559-1.353.7676-1.787.5156-.434 1.2265-.65 2.1328-.65.4453 0 .8691.052 1.2715.158.4062.105.8301.254 1.2715.445l-.586 1.412c-.457-.187-.8359-.318-1.1367-.392-.2969-.075-.5898-.112-.8789-.112-.3437 0-.6074.08-.791.24-.1836.161-.2754.37-.2754.627 0 .161.0371.301.1113.422.0742.118.1914.233.3516.346.164.109.5488.309 1.1543.598.8008.383 1.3496.767 1.6465 1.154.2968.383.4453.853.4453 1.412zm6.4394-6.187h1.834L58.1184 114h-1.9805l-2.9062-8.566h1.834l1.6113 5.097c.0898.301.1816.653.2754 1.055.0976.398.1582.676.1816.832.043-.359.1895-.988.4395-1.887l1.623-5.097zM38 90H21v2h17v-2zM38 83H21v2h17v-2zM38 76H21v2h17v-2zM38 69H21v2h17v-2zM38 62H21v2h17v-2zM38 55H21v2h17v-2zM38 48H21v2h17v-2zM38 41H21v2h17v-2zM38 34H21v2h17v-2zM59 90H42v2h17v-2zM59 83H42v2h17v-2zM59 76H42v2h17v-2zM59 69H42v2h17v-2zM59 62H42v2h17v-2zM59 55H42v2h17v-2zM59 48H42v2h17v-2zM59 41H42v2h17v-2zM59 34H42v2h17v-2zM80 90H63v2h17v-2zM80 83H63v2h17v-2zM80 76H63v2h17v-2zM80 69H63v2h17v-2zM80 62H63v2h17v-2zM80 55H63v2h17v-2zM80 48H63v2h17v-2zM80 41H63v2h17v-2zM80 34H63v2h17v-2z" fill="#fff"/></svg>