<svg style="position:absolute;width:0;height:0" xmlns="http://www.w3.org/2000/svg" width="100" height="127" overflow="hidden"><path d="M95 23v96c0 .796-.3161 1.559-.8787 2.121A2.9987 2.9987 0 0192 122H8a2.9987 2.9987 0 01-2.1213-.879A2.9976 2.9976 0 015 119V8a3 3 0 013-3h69l18 18z" fill="#BC8C18"/><path opacity=".2" d="M95 23H80a3 3 0 01-3-3V5l18 18z"/><path d="M44.5845 109.635c0 1.41-.4024 2.49-1.2071 3.24-.8007.75-1.9589 1.125-3.4746 1.125h-2.4257v-8.566h2.6894c1.3984 0 2.4844.369 3.2578 1.107.7735.738 1.1602 1.77 1.1602 3.094zm-1.8867.047c0-1.84-.8125-2.76-2.4375-2.76h-.9668v5.578h.7793c1.75 0 2.625-.939 2.625-2.818zm2.9941 7.201c-.457 0-.8496-.049-1.1777-.147v-1.406c.2734.074.5527.111.8379.111.3007 0 .5195-.084.6562-.252.1406-.168.2109-.416.2109-.744v-6.996h1.7871v7.26c0 .695-.2011 1.23-.6035 1.605-.4023.379-.9726.569-1.7109.569zm.4512-11.127c0-.582.3242-.873.9726-.873.6485 0 .9727.291.9727.873 0 .277-.0821.494-.2461.65-.1602.153-.4024.229-.7266.229-.6484 0-.9726-.293-.9726-.879zm8.7715-.322h1.8339L53.8364 114H51.856l-2.9063-8.566h1.834l1.6113 5.097c.0899.301.1817.653.2754 1.055.0977.398.1582.676.1817.832.0429-.359.1894-.988.4394-1.887l1.6231-5.097zM62.3325 114l-.2402-.838h-.0938c-.1914.305-.4629.541-.8144.709-.3516.164-.752.246-1.2012.246-.7695 0-1.3496-.205-1.7402-.615-.3906-.414-.586-1.008-.586-1.781v-4.272h1.7871v3.826c0 .473.084.829.252 1.067.168.234.4355.351.8027.351.5 0 .8614-.166 1.084-.498.2227-.336.334-.89.334-1.664v-3.082h1.7871V114h-1.3711z" fill="#fff"/><path fill-rule="evenodd" clip-rule="evenodd" d="M27 58v-8h25v8h-2v-6h-6v22h5v2H30v-2h5V52h-6v6h-2z" fill="#fff"/><path fill-rule="evenodd" clip-rule="evenodd" d="M27 58v-8h25v8h-2v-6h-6v22h5v2H30v-2h5V52h-6v6h-2z" fill="#fff"/><path fill="#fff" d="M55 50h19v2H55z"/><path fill="#fff" d="M55 50h19v2H55zM55 58h19v2H55z"/><path fill="#fff" d="M55 58h19v2H55zM55 66h19v2H55z"/><path fill="#fff" d="M55 66h19v2H55zM55 74h19v2H55z"/><path fill="#fff" d="M55 74h19v2H55z"/><path fill-rule="evenodd" clip-rule="evenodd" d="M80 43.4348H21v39.1305h59V43.4348zm-61-2v43.1305h63V41.4348H19z" fill="#fff"/></svg>