<svg style="position:absolute;width:0;height:0" width="100" height="127" fill="none" xmlns="http://www.w3.org/2000/svg" overflow="hidden"><path d="M95 23v96c0 .796-.3161 1.559-.8787 2.121A2.9987 2.9987 0 0192 122H8a2.9987 2.9987 0 01-2.1213-.879A2.9976 2.9976 0 015 119V8a3 3 0 013-3h69l18 18z" fill="#214479"/><path opacity=".2" d="M95 23H80a3 3 0 01-3-3V5l18 18z" fill="#000"/><path d="M39.4824 109.635c0 1.41-.4023 2.49-1.207 3.24-.8008.75-1.959 1.125-3.4746 1.125H32.375v-8.566h2.6895c1.3984 0 2.4843.369 3.2578 1.107.7734.738 1.1601 1.77 1.1601 3.094zm-1.8867.047c0-1.84-.8125-2.76-2.4375-2.76h-.9668v5.578h.7793c1.75 0 2.625-.939 2.625-2.818zm11.4375.023c0 1.418-.3516 2.508-1.0547 3.27-.7031.761-1.7109 1.142-3.0234 1.142s-2.3203-.381-3.0235-1.142c-.7031-.762-1.0546-1.856-1.0546-3.282 0-1.425.3515-2.513 1.0546-3.263.7071-.754 1.7188-1.131 3.0352-1.131s2.3223.379 3.0176 1.137c.6992.757 1.0488 1.847 1.0488 3.269zm-6.252 0c0 .957.1817 1.678.545 2.162.3633.485.9062.727 1.6289.727 1.4492 0 2.1738-.963 2.1738-2.889 0-1.93-.7207-2.894-2.1621-2.894-.7227 0-1.2676.244-1.6348.732-.3672.484-.5508 1.205-.5508 2.162zm11.6661-2.883c-.6836 0-1.2129.258-1.5879.774-.375.511-.5625 1.226-.5625 2.144 0 1.91.7168 2.865 2.1504 2.865.6015 0 1.33-.15 2.1855-.451v1.524c-.7031.293-1.4883.439-2.3555.439-1.2461 0-2.1992-.377-2.8593-1.131-.6602-.757-.9903-1.843-.9903-3.257 0-.891.1621-1.67.4864-2.338.3242-.672.789-1.186 1.3945-1.541.6094-.36 1.3223-.539 2.1387-.539.832 0 1.6679.201 2.5078.603l-.586 1.477a9.4774 9.4774 0 00-.9668-.399c-.3242-.113-.6425-.17-.955-.17zM62.0879 114l-2.0625-6.721h-.0527c.0742 1.367.1113 2.28.1113 2.737V114h-1.6231v-8.566h2.4727l2.0273 6.55h.0352l2.1504-6.55h2.4726V114h-1.6933v-4.055c0-.191.0019-.412.0058-.662.0079-.25.0352-.914.0821-1.992h-.0528L63.752 114h-1.6641zM67.8 48l-6.3 27-7-27h-6l-7 27-6.3-27h-5.8l8.5 34h6.4l7.2-27.9L58.7 82h6.4l8.5-34h-5.8zM15 17c0-1.1046.8954-2 2-2h12c1.1046 0 2 .8954 2 2v9c0 1.1046-.8954 2-2 2H17c-1.1046 0-2-.8954-2-2v-9z" fill="#fff"/><path d="M22.2969 26l-2.4844-7.1543h-.0469c.0664 1.0625.0996 2.0586.0996 2.9883V26h-1.2714v-8.5664h1.9746l2.3789 6.8144h.0351l2.4492-6.8144h1.9805V26h-1.3476v-4.2363c0-.4258.0097-.9805.0293-1.6641.0234-.6836.0429-1.0976.0585-1.2422h-.0468L23.5332 26h-1.2363z" fill="#214479"/></svg>