<svg width="100" height="127" fill="none" xmlns="http://www.w3.org/2000/svg"><path id="Vector" d="M95 23v96c0 .796-.3161 1.559-.8787 2.121A2.9987 2.9987 0 0192 122H8a2.9987 2.9987 0 01-2.1213-.879A2.9976 2.9976 0 015 119V8a3 3 0 013-3h69l18 18z" fill="#27ABA3"/><path id="Vector_2" opacity=".2" d="M95 23H80a3 3 0 01-3-3V5l18 18z" fill="#000"/><g id="DOCXF" fill="#fff"><path d="M38.3176 109.635c0 1.41-.4023 2.49-1.207 3.24-.8008.75-1.959 1.125-3.4746 1.125h-2.4258v-8.566h2.6895c1.3984 0 2.4843.369 3.2578 1.107.7734.738 1.1601 1.77 1.1601 3.094zm-1.8867.047c0-1.84-.8125-2.76-2.4375-2.76h-.9668v5.578h.7793c1.75 0 2.625-.939 2.625-2.818zM47.8684 109.705c0 1.418-.3516 2.508-1.0547 3.27-.7031.761-1.7109 1.142-3.0234 1.142s-2.3203-.381-3.0235-1.142c-.7031-.762-1.0546-1.856-1.0546-3.282 0-1.425.3515-2.513 1.0546-3.263.7071-.754 1.7188-1.131 3.0352-1.131s2.3223.379 3.0176 1.137c.6992.757 1.0488 1.847 1.0488 3.269zm-6.2519 0c0 .957.1816 1.678.5449 2.162.3633.485.9062.727 1.6289.727 1.4492 0 2.1738-.963 2.1738-2.889 0-1.93-.7207-2.894-2.1621-2.894-.7227 0-1.2676.244-1.6348.732-.3672.484-.5507 1.205-.5507 2.162zM53.2825 106.822c-.6836 0-1.2129.258-1.5879.774-.375.511-.5625 1.226-.5625 2.144 0 1.91.7168 2.865 2.1504 2.865.6015 0 1.33-.15 2.1855-.451v1.524c-.7031.293-1.4883.439-2.3555.439-1.246 0-2.1992-.377-2.8593-1.131-.6602-.757-.9903-1.843-.9903-3.257 0-.891.1621-1.67.4864-2.338.3242-.672.789-1.186 1.3945-1.541.6094-.36 1.3223-.539 2.1387-.539.832 0 1.6679.201 2.5078.603l-.586 1.477a9.4774 9.4774 0 00-.9668-.399c-.3242-.113-.6425-.17-.955-.17zM64.2219 114h-2.0742l-1.9922-3.24-1.9922 3.24H56.218l2.8418-4.418-2.6601-4.148h2.0039l1.8457 3.082 1.8105-3.082h1.957l-2.6894 4.248L64.2219 114zM67.0872 114H65.3v-8.566h4.9102v1.488h-3.123v2.209h2.9062v1.482h-2.9062V114z"/></g><path id="Rectangle 381 (Stroke)" fill-rule="evenodd" clip-rule="evenodd" d="M22 58h56V44H22v14zm-2-16v18h60V42H20z" fill="#fff"/><path id="Rectangle 387 (Stroke)" fill-rule="evenodd" clip-rule="evenodd" d="M22 82h56V68H22v14zm-2-16v18h60V66H20z" fill="#fff"/></svg>