<svg xmlns="http://www.w3.org/2000/svg" width="100" height="127"><path d="M95 23v96c0 .796-.3161 1.559-.8787 2.121A2.9987 2.9987 0 0192 122H8a2.9987 2.9987 0 01-2.1213-.879A2.9976 2.9976 0 015 119V8a3 3 0 013-3h69l18 18z" fill="#214479"/><path opacity=".2" d="M95 23H80a3 3 0 01-3-3V5l18 18z"/><path d="M41.1855 109.635c0 1.41-.4023 2.49-1.207 3.24-.8008.75-1.959 1.125-3.4746 1.125h-2.4258v-8.566h2.6895c1.3984 0 2.4844.369 3.2578 1.107.7734.738 1.1601 1.77 1.1601 3.094zm-1.8867.047c0-1.84-.8125-2.76-2.4375-2.76h-.9668v5.578h.7793c1.75 0 2.625-.939 2.625-2.818zm11.4375.023c0 1.418-.3515 2.508-1.0547 3.27-.7031.761-1.7109 1.142-3.0234 1.142s-2.3203-.381-3.0234-1.142c-.7032-.762-1.0547-1.856-1.0547-3.282 0-1.425.3515-2.513 1.0547-3.263.707-.754 1.7187-1.131 3.0351-1.131s2.3223.379 3.0176 1.137c.6992.757 1.0488 1.847 1.0488 3.269zm-6.2519 0c0 .957.1816 1.678.5449 2.162.3633.485.9062.727 1.6289.727 1.4492 0 2.1738-.963 2.1738-2.889 0-1.93-.7207-2.894-2.1621-2.894-.7226 0-1.2676.244-1.6347.732-.3672.484-.5508 1.205-.5508 2.162zM55.8164 114H54v-7.055h-2.3262v-1.511h6.4688v1.511h-2.3262V114zm10.5703 0h-2.0742l-1.9922-3.24-1.9922 3.24h-1.9453l2.8418-4.418-2.6601-4.148h2.0039l1.8457 3.082 1.8105-3.082h1.957l-2.6894 4.248L66.3867 114zM67.8 48l-6.3 27-7-27h-6l-7 27-6.3-27h-5.8l8.5 34h6.4l7.2-27.9L58.7 82h6.4l8.5-34h-5.8z" fill="#fff"/><rect x="15" y="15" width="16" height="14" rx="2" fill="#fff"/><path d="M23.0898 26h-1.4003v-7.3652h-2.5196v-1.2012h6.4395v1.2012h-2.5196V26z" fill="#214479"/></svg>