<svg width="100" height="127" fill="none" xmlns="http://www.w3.org/2000/svg"><path d="M95 23v96c0 .796-.3161 1.559-.8787 2.121A2.9987 2.9987 0 0192 122H8a2.9987 2.9987 0 01-2.1213-.879A2.9976 2.9976 0 015 119V8a3 3 0 013-3h69l18 18z" fill="#5892B6"/><path opacity=".2" d="M95 23H80a3 3 0 01-3-3V5l18 18z" fill="#000"/><path d="M40.3217 114h-4.9336v-8.566h4.9336v1.488h-3.1172v1.881h2.9004v1.488h-2.9004v2.209h3.1172v1.5zm3.6094-4.535h.5976c.5586 0 .9766-.11 1.254-.328.2773-.223.416-.545.416-.967 0-.426-.1172-.74-.3516-.943-.2305-.204-.5937-.305-1.0898-.305h-.8262v2.543zm4.1016-1.36c0 .922-.2891 1.627-.8672 2.116-.5743.488-1.3926.732-2.4551.732h-.7793V114h-1.8164v-8.566h2.7363c1.0391 0 1.8281.224 2.3672.673.543.446.8145 1.112.8145 1.998zm8.5898-2.671v5.543c0 .632-.1426 1.187-.4277 1.664-.2813.476-.6895.841-1.2246 1.095-.5352.254-1.168.381-1.8985.381-1.1015 0-1.957-.281-2.5664-.844-.6094-.566-.9141-1.339-.9141-2.32v-5.519h1.8106v5.244c0 .66.1328 1.144.3984 1.453.2657.308.7051.463 1.3184.463.5937 0 1.0234-.155 1.2891-.463.2695-.313.4043-.801.4043-1.465v-5.232h1.8105zm2.0977 0h2.666c1.2148 0 2.0957.173 2.6425.521.5508.344.8262.893.8262 1.647 0 .511-.1211.931-.3633 1.259-.2382.328-.5566.526-.955.592v.059c.5429.121.9336.347 1.1718.679.2422.332.3633.774.3633 1.325 0 .781-.2832 1.39-.8496 1.828-.5625.437-1.3281.656-2.2969.656h-3.205v-8.566zm1.8164 3.392h1.0546c.4922 0 .8477-.076 1.0665-.228.2226-.153.3339-.405.3339-.756 0-.328-.1211-.563-.3632-.703-.2383-.145-.6172-.217-1.1368-.217h-.955v1.904zm0 1.442v2.232h1.1836c.5 0 .8691-.096 1.1074-.287.2383-.192.3574-.484.3574-.879 0-.711-.5078-1.066-1.5234-1.066h-1.125zM49 84V49s-9-6-24-7v33s17 1 24 9zM75 75V42c-15 1-24 7-24 7v35c7-8 24-9 24-9z" fill="#fff"/><path d="M77 47v32s-15 0-27 8.3C38 79 23 79 23 79V47h-3v35s13-2 30 6c17-8 30-6 30-6V47h-3z" fill="#fff"/></svg>