<svg width="100" height="127" fill="none" xmlns="http://www.w3.org/2000/svg"><path d="M95 23v96c0 .796-.3161 1.559-.8787 2.121A2.9987 2.9987 0 0192 122H8a2.9987 2.9987 0 01-2.1213-.879A2.9976 2.9976 0 015 119V8a3 3 0 013-3h69l18 18z" fill="#B07408"/><path opacity=".2" d="M95 23H80a3 3 0 01-3-3V5l18 18z" fill="#000"/><path d="M41.8652 114h-1.7871v-8.566h4.9102v1.488h-3.1231v2.209h2.9063v1.482h-2.9063V114zm4.7989-8.566h2.666c1.2148 0 2.0957.173 2.6426.521.5507.344.8261.893.8261 1.647 0 .511-.1211.931-.3633 1.259-.2382.328-.5566.526-.955.592v.059c.5429.121.9336.347 1.1718.679.2422.332.3633.774.3633 1.325 0 .781-.2832 1.39-.8496 1.828-.5625.437-1.3281.656-2.2969.656h-3.205v-8.566zm1.8164 3.392h1.0547c.4921 0 .8476-.076 1.0664-.228.2226-.153.3339-.405.3339-.756 0-.328-.121-.563-.3632-.703-.2383-.145-.6172-.217-1.1368-.217h-.955v1.904zm0 1.442v2.232h1.1836c.5 0 .8691-.096 1.1074-.287.2383-.192.3574-.484.3574-.879 0-.711-.5078-1.066-1.5234-1.066h-1.125zM60.1172 114h-5.9883v-1.26l2.1504-2.174c.6367-.652 1.0527-1.103 1.248-1.353.1954-.254.336-.488.4219-.703a1.784 1.784 0 00.1289-.668c0-.344-.0957-.6-.2871-.768-.1875-.168-.4394-.252-.7558-.252-.3321 0-.6543.076-.9668.229-.3125.152-.6387.369-.9786.65l-.9843-1.166c.4218-.359.7715-.613 1.0488-.762.2773-.148.5801-.261.9082-.339.3281-.082.6953-.123 1.1016-.123.5351 0 1.0078.097 1.4179.293.4102.195.7285.468.9551.82.2266.351.3399.754.3399 1.207 0 .394-.0704.765-.211 1.113-.1367.344-.3515.697-.6445 1.061-.2891.363-.8008.881-1.5352 1.552l-1.1015 1.038v.082h3.7324V114zM49 84V49s-9-6-24-7v33s17 1 24 9zM75 75V42c-15 1-24 7-24 7v35c7-8 24-9 24-9z" fill="#fff"/><path d="M77 47v32s-15 0-27 8.3C38 79 23 79 23 79V47h-3v35s13-2 30 6c17-8 30-6 30-6V47h-3z" fill="#fff"/></svg>