<svg width="100" height="127" fill="none" xmlns="http://www.w3.org/2000/svg"><path d="M95 23v96c0 .796-.3161 1.559-.8787 2.121A2.9987 2.9987 0 0192 122H8a2.9987 2.9987 0 01-2.1213-.879A2.9976 2.9976 0 015 119V8a3 3 0 013-3h69l18 18z" fill="#7C9A34"/><path opacity=".2" d="M95 23H80a3 3 0 01-3-3V5l18 18z" fill="#000"/><path d="M40.9877 114h-1.8106v-3.697h-3.3926V114h-1.8164v-8.566h1.8164v3.357h3.3926v-3.357h1.8106V114zm5.4726 0h-1.8164v-7.055h-2.3262v-1.511h6.4688v1.511h-2.3262V114zm7.2715 0l-2.0625-6.721h-.0527c.0742 1.367.1113 2.28.1113 2.737V114h-1.623v-8.566h2.4726l2.0274 6.55h.0351l2.1504-6.55h2.4727V114h-1.6934v-4.055c0-.191.002-.412.0059-.662.0078-.25.0351-.914.082-1.992h-.0527L55.3959 114h-1.6641zm7.6934 0v-8.566h1.8164v7.066h3.4746v1.5h-5.291zM62 53v4.8l13.5 4.7L62 67.2V72l18-7.8v-3.4L62 53zM40 75h5.5l14-25H54L40 75zM19 64.2L37 72v-4.8l-13.5-4.7L37 57.8V53l-18 7.8v3.4z" fill="#fff"/></svg>