<svg width="100" height="127" fill="none" xmlns="http://www.w3.org/2000/svg"><path d="M95 22v96c0 .796-.3161 1.559-.8787 2.121A2.9987 2.9987 0 0192 121H8a2.9987 2.9987 0 01-2.1213-.879A2.9976 2.9976 0 015 118V7a3 3 0 013-3h69l18 18z" fill="#7371D8"/><g fill="#fff"><path d="M39.5801 115.52c-.4102 0-.7676-.043-1.0723-.129v-1.512c.3125.078.5977.117.8555.117.3984 0 .6836-.125.8555-.375.1718-.246.2578-.633.2578-1.16v-8.027h1.8164v8.015c0 1-.2285 1.762-.6856 2.285-.457.524-1.1328.786-2.0273.786zM46.2656 108.465h.5977c.5586 0 .9765-.11 1.2539-.328.2773-.223.416-.545.416-.967 0-.426-.1172-.74-.3516-.943-.2304-.204-.5937-.305-1.0898-.305h-.8262v2.543zm4.1016-1.36c0 .922-.2891 1.627-.8672 2.116-.5742.488-1.3926.732-2.4551.732h-.7793V113h-1.8164v-8.566h2.7363c1.0391 0 1.8282.224 2.3672.673.543.446.8145 1.112.8145 1.998zM55.2363 108.189h3.3985v4.442c-.5508.18-1.0703.305-1.5586.375a9.8426 9.8426 0 01-1.4883.111c-1.293 0-2.2813-.379-2.9649-1.137-.6796-.761-1.0195-1.853-1.0195-3.275 0-1.383.3945-2.461 1.1836-3.234.793-.774 1.8906-1.16 3.293-1.16.8789 0 1.7265.175 2.5429.527l-.6035 1.453c-.625-.312-1.2754-.469-1.9511-.469-.7852 0-1.4141.264-1.8868.791-.4726.528-.7089 1.237-.7089 2.127 0 .93.1894 1.641.5683 2.133.3828.488.9375.732 1.6641.732.3789 0 .7637-.039 1.1543-.117v-1.787h-1.6231v-1.512z"/></g><path d="M56 51.869L73.183 79H27.7869L39.5 59.912l4.774 7.7799.839 1.3671.8582-1.3551L56 51.869zM36 51.5c0 2.4853-2.0147 4.5-4.5 4.5S27 53.9853 27 51.5s2.0147-4.5 4.5-4.5 4.5 2.0147 4.5 4.5z" fill="#fff" stroke="#fff" stroke-width="2"/><path opacity=".2" d="M95 22H80a3 3 0 01-3-3V4l18 18z" fill="#000"/></svg>