<svg xmlns="http://www.w3.org/2000/svg" width="100" height="127"><path d="M95 23v96c0 .796-.3161 1.559-.8787 2.121A2.9987 2.9987 0 0192 122H8a2.9987 2.9987 0 01-2.1213-.879A2.9976 2.9976 0 015 119V8a3 3 0 013-3h69l18 18z" fill="#DD9426"/><path opacity=".2" d="M95 23H80a3 3 0 01-3-3V5l18 18z"/><path d="M45.8735 109.705c0 1.418-.3515 2.508-1.0547 3.27-.7031.761-1.7109 1.142-3.0234 1.142s-2.3203-.381-3.0234-1.142c-.7032-.762-1.0547-1.856-1.0547-3.282 0-1.425.3515-2.513 1.0547-3.263.707-.754 1.7187-1.131 3.0351-1.131s2.3223.379 3.0176 1.137c.6992.757 1.0488 1.847 1.0488 3.269zm-6.2519 0c0 .957.1816 1.678.5449 2.162.3633.485.9063.727 1.6289.727 1.4492 0 2.1738-.963 2.1738-2.889 0-1.93-.7207-2.894-2.1621-2.894-.7226 0-1.2675.244-1.6347.732-.3672.484-.5508 1.205-.5508 2.162zm15.1347-.07c0 1.41-.4023 2.49-1.207 3.24-.8008.75-1.959 1.125-3.4746 1.125h-2.4258v-8.566h2.6895c1.3984 0 2.4844.369 3.2578 1.107.7734.738 1.1601 1.77 1.1601 3.094zm-1.8867.047c0-1.84-.8125-2.76-2.4375-2.76h-.9668v5.578h.7793c1.75 0 2.625-.939 2.625-2.818zm5.4785-.217h.5977c.5586 0 .9766-.11 1.2539-.328.2774-.223.416-.545.416-.967 0-.426-.1172-.74-.3515-.943-.2305-.204-.5938-.305-1.0899-.305h-.8262v2.543zm4.1016-1.36c0 .922-.2891 1.627-.8672 2.116-.5742.488-1.3926.732-2.4551.732h-.7793V114h-1.8164v-8.566h2.7364c1.039 0 1.8281.224 2.3672.673.5429.446.8144 1.112.8144 1.998zM78 52.74l-.29-.15a14.9994 14.9994 0 00-14 .53 14.9293 14.9293 0 00-14.3-.24h-.08a.2491.2491 0 00-.1.2c0 .069.0274.1351.0761.1839a.2603.2603 0 00.1839.0761h.06a14.6174 14.6174 0 014.14-.18c4 .37 7.43 1.6 9.86 4.36.13.13.24.12.37 0C67 54 71.68 52.6 76.72 53.07c.28 0 .56.06.83.11h.33a.2302.2302 0 00.26-.25.25.25 0 00-.14-.19zM72.16 65.21A25.9997 25.9997 0 0047.19 68a26 26 0 00-25.09 2.19h-.05a.4101.4101 0 00-.14.3.3903.3903 0 00.38.39h.08a26.09 26.09 0 017.49-1.1c6.93 0 13.1 1.64 17.74 6a.38.38 0 00.25.09.3697.3697 0 00.3-.14l.22-.31c4.72-6.45 12.5-9.63 21.16-9.63.62 0 1.23 0 1.84.06h.55a.3998.3998 0 00.39-.39.3805.3805 0 00-.15-.25z" fill="#fff"/></svg>