<svg width="100" height="127" fill="none" xmlns="http://www.w3.org/2000/svg"><path d="M95 23v96c0 .796-.3161 1.559-.8787 2.121A2.9987 2.9987 0 0192 122H8a2.9987 2.9987 0 01-2.1213-.879A2.9976 2.9976 0 015 119V8a3 3 0 013-3h69l18 18z" fill="#2CA498"/><path opacity=".2" d="M95 23H80a3 3 0 01-3-3V5l18 18z" fill="#000"/><path d="M36.8535 109.705c0 1.418-.3515 2.508-1.0547 3.27-.7031.761-1.7109 1.142-3.0234 1.142s-2.3203-.381-3.0234-1.142c-.7032-.762-1.0547-1.856-1.0547-3.282 0-1.425.3515-2.513 1.0547-3.263.707-.754 1.7187-1.131 3.0351-1.131s2.3223.379 3.0176 1.137c.6992.757 1.0488 1.847 1.0488 3.269zm-6.2519 0c0 .957.1816 1.678.5449 2.162.3633.485.9062.727 1.6289.727 1.4492 0 2.1738-.963 2.1738-2.889 0-1.93-.7207-2.894-2.1621-2.894-.7226 0-1.2676.244-1.6348.732-.3671.484-.5507 1.205-.5507 2.162zM40.416 114h-1.7871v-8.566h4.9102v1.488H40.416v2.209h2.9063v1.482H40.416V114zM52.9902 109.705c0 1.418-.3515 2.508-1.0547 3.27-.7031.761-1.7109 1.142-3.0234 1.142s-2.3203-.381-3.0234-1.142c-.7032-.762-1.0547-1.856-1.0547-3.282 0-1.425.3515-2.513 1.0547-3.263.707-.754 1.7187-1.131 3.0351-1.131s2.3223.379 3.0176 1.137c.6992.757 1.0488 1.847 1.0488 3.269zm-6.2519 0c0 .957.1816 1.678.5449 2.162.3633.485.9063.727 1.6289.727 1.4492 0 2.1738-.963 2.1738-2.889 0-1.93-.7207-2.894-2.1621-2.894-.7226 0-1.2676.244-1.6347.732-.3672.484-.5508 1.205-.5508 2.162zM56.582 109.236h.586c.5742 0 .998-.095 1.2715-.287.2734-.191.4101-.492.4101-.902 0-.406-.1406-.695-.4219-.867-.2773-.172-.7089-.258-1.2949-.258h-.5508v2.314zm0 1.477V114h-1.8164v-8.566h2.4961c1.1641 0 2.0254.212 2.584.638.5586.422.8379 1.065.8379 1.928 0 .504-.1387.953-.416 1.348-.2774.39-.6699.697-1.1778.92 1.2891 1.925 2.129 3.17 2.5196 3.732h-2.0156l-2.045-3.287h-.9668zM66.3145 114l-2.0625-6.721h-.0528c.0742 1.367.1113 2.28.1113 2.737V114h-1.623v-8.566h2.4727l2.0273 6.55h.0352l2.1503-6.55h2.4727V114h-1.6934v-4.055c0-.191.002-.412.0059-.662.0078-.25.0352-.914.082-1.992h-.0527L67.9785 114h-1.664z" fill="#fff"/><path fill-rule="evenodd" clip-rule="evenodd" d="M19 85h62V41H19v44zm-2-46v48h66V39H17z" fill="#fff"/><path fill="#41ADA2" d="M19 41h62v44H19z"/><path fill="#fff" d="M29 50h5v2h-5zM36 50h5v2h-5zM29 74h5v2h-5zM36 74h5v2h-5zM34 52v22h2V52z"/></svg>