<svg xmlns="http://www.w3.org/2000/svg" width="100" height="127"><path d="M95 23v96c0 .796-.3161 1.559-.8787 2.121A2.9987 2.9987 0 0192 122H8a2.9987 2.9987 0 01-2.1213-.879A2.9976 2.9976 0 015 119V8a3 3 0 013-3h69l18 18z" fill="#3C6D88"/><path opacity=".2" d="M95 23H80a3 3 0 01-3-3V5l18 18z"/><path d="M46.1636 109.705c0 1.418-.3516 2.508-1.0547 3.27-.7031.761-1.711 1.142-3.0235 1.142-1.3125 0-2.3203-.381-3.0234-1.142-.7031-.762-1.0547-1.856-1.0547-3.282 0-1.425.3516-2.513 1.0547-3.263.707-.754 1.7188-1.131 3.0352-1.131s2.3222.379 3.0175 1.137c.6993.757 1.0489 1.847 1.0489 3.269zm-6.252 0c0 .957.1817 1.678.5449 2.162.3633.485.9063.727 1.6289.727 1.4493 0 2.1739-.963 2.1739-2.889 0-1.93-.7207-2.894-2.1621-2.894-.7227 0-1.2676.244-1.6348.732-.3672.484-.5508 1.205-.5508 2.162zM51.2437 114h-1.8165v-7.055h-2.3261v-1.511h6.4687v1.511h-2.3261V114zm6.9492 0h-1.8164v-7.055h-2.3262v-1.511h6.4687v1.511h-2.3261V114zM78 52.74l-.29-.15a14.9994 14.9994 0 00-14 .53 14.9293 14.9293 0 00-14.3-.24h-.08a.2491.2491 0 00-.1.2.26.26 0 00.26.26h.06a14.6174 14.6174 0 014.14-.18c4 .37 7.43 1.6 9.86 4.36.13.13.24.12.37 0C67 54 71.68 52.6 76.72 53.07c.28 0 .56.06.83.11h.33a.2302.2302 0 00.26-.25.2506.2506 0 00-.14-.19zM72.1602 65.21a25.9999 25.9999 0 00-24.97 2.79 25.9993 25.9993 0 00-25.09 2.19h-.05a.409.409 0 00-.14.3.3897.3897 0 00.38.39h.08a26.0895 26.0895 0 017.49-1.1c6.93 0 13.1 1.64 17.74 6a.3796.3796 0 00.25.09.3696.3696 0 00.3-.14l.22-.31c4.72-6.45 12.5-9.63 21.16-9.63.62 0 1.23 0 1.84.06h.55a.3997.3997 0 00.39-.39.3804.3804 0 00-.15-.25z" fill="#fff"/><rect x="15" y="15" width="16" height="14" rx="2" fill="#fff"/><path d="M23.0898 26h-1.4003v-7.3652h-2.5196v-1.2012h6.4395v1.2012h-2.5196V26z" fill="#3C6D88"/></svg>