<svg style="position:absolute;width:0;height:0" xmlns="http://www.w3.org/2000/svg" width="100" height="127" overflow="hidden"><path d="M95 23v96c0 .796-.3161 1.559-.8787 2.121A2.9987 2.9987 0 0192 122H8a2.9987 2.9987 0 01-2.1213-.879A2.9976 2.9976 0 015 119V8a3 3 0 013-3h69l18 18z" fill="#51968F"/><circle cx="44.5" cy="62.5" r="2.5" fill="#fff"/><circle cx="54.5" cy="62.5" r="2.5" fill="#fff"/><path opacity=".2" d="M95 23H80a3 3 0 01-3-3V5l18 18z"/><path d="M42.894 109.705c0 1.418-.3515 2.508-1.0546 3.27-.7032.761-1.711 1.142-3.0235 1.142-1.3125 0-2.3203-.381-3.0234-1.142-.7031-.762-1.0547-1.856-1.0547-3.282 0-1.425.3516-2.513 1.0547-3.263.707-.754 1.7187-1.131 3.0351-1.131s2.3223.379 3.0176 1.137c.6992.757 1.0488 1.847 1.0488 3.269zm-6.2519 0c0 .957.1816 1.678.5449 2.162.3633.485.9063.727 1.6289.727 1.4492 0 2.1738-.963 2.1738-2.889 0-1.93-.7207-2.894-2.1621-2.894-.7226 0-1.2675.244-1.6347.732-.3672.484-.5508 1.205-.5508 2.162zM51.5952 114H49.521l-1.9922-3.24-1.9922 3.24h-1.9453l2.8418-4.418-2.6602-4.148h2.004l1.8457 3.082 1.8105-3.082h1.957l-2.6894 4.248L51.5952 114zm2.8945-4.535h.5977c.5586 0 .9766-.11 1.2539-.328.2774-.223.416-.545.416-.967 0-.426-.1172-.74-.3515-.943-.2305-.204-.5938-.305-1.0899-.305h-.8262v2.543zm4.1016-1.36c0 .922-.2891 1.627-.8672 2.116-.5742.488-1.3926.732-2.4551.732h-.7793V114h-1.8164v-8.566h2.7364c1.039 0 1.8281.224 2.3672.673.5429.446.8144 1.112.8144 1.998zm6.6738 3.516c0 .774-.2793 1.383-.8379 1.828-.5546.446-1.3281.668-2.3203.668-.914 0-1.7226-.172-2.4257-.515v-1.688c.5781.258 1.0664.44 1.4648.545.4023.105.7695.158 1.1016.158.3984 0 .7031-.076.914-.228.2149-.153.3223-.379.3223-.68 0-.168-.0469-.316-.1406-.445-.0938-.133-.2325-.26-.4161-.381-.1796-.121-.5488-.315-1.1074-.58-.5234-.246-.916-.483-1.1777-.709-.2617-.227-.4707-.49-.627-.791-.1562-.301-.2343-.653-.2343-1.055 0-.758.2558-1.353.7675-1.787.5157-.434 1.2266-.65 2.1329-.65.4453 0 .8691.052 1.2714.158.4063.105.8301.254 1.2715.445l-.5859 1.412c-.457-.187-.836-.318-1.1367-.392-.2969-.075-.5899-.112-.8789-.112-.3438 0-.6075.08-.7911.24-.1836.161-.2753.37-.2753.627 0 .161.0371.301.1113.422.0742.118.1914.233.3515.346.1641.109.5489.309 1.1543.598.8008.383 1.3496.767 1.6465 1.154.2969.383.4453.853.4453 1.412zM62 53v4.8l13.5 4.7L62 67.2V72l18-7.8v-3.4L62 53zM19 64.2L37 72v-4.8l-13.5-4.7L37 57.8V53l-18 7.8v3.4z" fill="#fff"/></svg>