<svg xmlns="http://www.w3.org/2000/svg" width="100" height="127"><path d="M95 23v96c0 .796-.3161 1.559-.8787 2.121A2.9987 2.9987 0 0192 122H8a2.9987 2.9987 0 01-2.1213-.879A2.9976 2.9976 0 015 119V8a3 3 0 013-3h69l18 18z" fill="#BA4C3F"/><path opacity=".2" d="M95 23H80a3 3 0 01-3-3V5l18 18z"/><path d="M34.8945 109.465h.5977c.5586 0 .9766-.11 1.2539-.328.2773-.223.416-.545.416-.967 0-.426-.1172-.74-.3516-.943-.2304-.204-.5937-.305-1.0898-.305h-.8262v2.543zm4.1016-1.36c0 .922-.2891 1.627-.8672 2.116-.5742.488-1.3926.732-2.4551.732h-.7793V114h-1.8164v-8.566h2.7364c1.039 0 1.8281.224 2.3671.673.543.446.8145 1.112.8145 1.998zm8.7246 1.53c0 1.41-.4023 2.49-1.207 3.24-.8008.75-1.959 1.125-3.4746 1.125h-2.4258v-8.566h2.6894c1.3985 0 2.4844.369 3.2578 1.107.7735.738 1.1602 1.77 1.1602 3.094zm-1.8867.047c0-1.84-.8125-2.76-2.4375-2.76h-.9668v5.578h.7793c1.75 0 2.625-.939 2.625-2.818zM51.2832 114h-1.7871v-8.566h4.9101v1.488h-3.123v2.209h2.9063v1.482h-2.9063V114zm8.6191-8.566L56.709 114h-1.6231l3.1934-8.566h1.623zM66.2832 114l-.6211-2.039h-3.123L61.918 114h-1.9571l3.0235-8.602h2.2207L68.2402 114h-1.957zm-1.0547-3.562c-.5742-1.848-.8984-2.893-.9726-3.135-.0704-.242-.1211-.434-.1524-.574-.1289.5-.498 1.736-1.1074 3.709h2.2324zM40.42 66.69C42 63.55 43.84 60 45.3 56.46l.58-1.4c-1.9-7.25-3.05-13.07-2-16.83a2.5897 2.5897 0 012.62-1.57h.88c1.66 0 2.44 2.09 2.53 2.91a13.1248 13.1248 0 01-.48 3.68 9.11 9.11 0 00-.56-3.75c-.71-1.5-1.37-2.4-1.96-2.5a1.8194 1.8194 0 00-.68 1.4 19.6565 19.6565 0 00-.23 3.19A36.0017 36.0017 0 0047.45 51c.18-.54.34-1 .48-1.54.2-.76 1.49-5.81 1.49-5.81s-.33 6.72-.78 8.76c-.1.43-.21.86-.32 1.29a29.59 29.59 0 007.37 11.52 23.7535 23.7535 0 004.31 2.9 57.7233 57.7233 0 018.65-.65c3.28 0 5.69.53 6.66 1.49a2.55 2.55 0 01.69 1.66 5.9257 5.9257 0 01-.14 1c0-.18 0-1-2.6-1.88-2.07-.66-6-.64-10.61-.15 5.39 2.64 10.64 4 12.3 3.16a3.481 3.481 0 00.9-.87 9.45 9.45 0 01-.51 1.66 2.5406 2.5406 0 01-1.29.88c-2.63.71-9.46-.92-15.42-4.32a124.9922 124.9922 0 00-19.83 4.69C33 84.88 28.71 89.51 25.19 87.75l-1.29-.65a1.5003 1.5003 0 01-.49-1.63c.41-2 2.93-5 8-8.06.55-.33 3-1.61 3-1.61s-1.79 1.74-2.21 2.08c-4 3.31-7 7.47-6.95 9.09v.14c3.43-.49 8.57-7.48 15.19-20.42h-.02zm2.12 1.07c-1.11 2.08-2.19 4-3.19 5.79a84.5997 84.5997 0 0117.1-4.84c-.76-.53-1.49-1.08-2.19-1.67A29.2799 29.2799 0 0147 57.66a81.0119 81.0119 0 01-4.52 10.1" fill="#fff"/><rect x="15" y="15" width="16" height="14" rx="2" fill="#fff"/><path d="M25.4453 26l-.8555-2.3789h-3.2753L20.4766 26H19l3.2051-8.6016h1.5234L26.9336 26h-1.4883zm-1.2246-3.5859l-.8027-2.3321c-.0586-.1562-.1407-.4023-.2461-.7382-.1016-.336-.1719-.5821-.211-.7383-.1054.4804-.2597 1.0058-.4629 1.5761l-.7734 2.2325h2.4961z" fill="#BA4C3F"/></svg>