<svg width="100" height="127" fill="none" xmlns="http://www.w3.org/2000/svg"><path d="M95 23v96c0 .796-.3161 1.559-.8787 2.121A2.9987 2.9987 0 0192 122H8a2.9987 2.9987 0 01-2.1213-.879A2.9976 2.9976 0 015 119V8a3 3 0 013-3h69l18 18z" fill="#D871D6"/><g fill="#fff"><path d="M39.8984 109.465h.5977c.5586 0 .9766-.11 1.2539-.328.2773-.223.416-.545.416-.967 0-.426-.1172-.74-.3515-.943-.2305-.204-.5938-.305-1.0899-.305h-.8262v2.543zM44 108.105c0 .922-.2891 1.627-.8672 2.116-.5742.488-1.3926.732-2.4551.732h-.7793V114H38.082v-8.566h2.7364c1.039 0 1.8281.224 2.3671.673.543.446.8145 1.112.8145 1.998zM53.2168 114h-2.3086l-3.7266-6.48h-.0527c.0742 1.144.1113 1.96.1113 2.449V114h-1.623v-8.566h2.291l3.7207 6.416h.041c-.0586-1.114-.0879-1.901-.0879-2.362v-4.054h1.6348V114zM58.6309 109.189h3.3984v4.442c-.5508.18-1.0703.305-1.5586.375a9.8426 9.8426 0 01-1.4883.111c-1.2929 0-2.2812-.379-2.9648-1.137-.6797-.761-1.0196-1.853-1.0196-3.275 0-1.383.3946-2.461 1.1836-3.234.793-.774 1.8907-1.16 3.293-1.16.8789 0 1.7266.175 2.543.527l-.6035 1.453c-.625-.312-1.2754-.469-1.9512-.469-.7852 0-1.4141.264-1.8867.791-.4727.528-.709 1.237-.709 2.127 0 .93.1894 1.641.5683 2.133.3829.488.9375.732 1.6641.732.3789 0 .7637-.039 1.1543-.117v-1.787h-1.623v-1.512z"/></g><path d="M56 51.869L73.183 79H27.7869L39.5 59.912l4.774 7.7799.839 1.3671.8582-1.3551L56 51.869zM36 51.5c0 2.4853-2.0147 4.5-4.5 4.5S27 53.9853 27 51.5s2.0147-4.5 4.5-4.5 4.5 2.0147 4.5 4.5z" fill="#fff" stroke="#fff" stroke-width="2"/><path opacity=".2" d="M95 23H80a3 3 0 01-3-3V5l18 18z" fill="#000"/></svg>