<svg xmlns="http://www.w3.org/2000/svg" width="100" height="127"><path d="M95 23v96c0 .796-.3161 1.559-.8787 2.121A2.9987 2.9987 0 0192 122H8a2.9987 2.9987 0 01-2.1213-.879A2.9976 2.9976 0 015 119V8a3 3 0 013-3h69l18 18z" fill="#DD682B"/><path opacity=".2" d="M95 23H80a3 3 0 01-3-3V5l18 18z"/><path d="M37.8845 109.465h.5977c.5586 0 .9765-.11 1.2539-.328.2773-.223.416-.545.416-.967 0-.426-.1172-.74-.3516-.943-.2304-.204-.5937-.305-1.0898-.305h-.8262v2.543zm4.1016-1.36c0 .922-.2891 1.627-.8672 2.116-.5742.488-1.3926.732-2.4551.732h-.7793V114h-1.8164v-8.566h2.7363c1.0391 0 1.8282.224 2.3672.673.543.446.8145 1.112.8145 1.998zm9.3926 1.6c0 1.418-.3516 2.508-1.0547 3.27-.7032.761-1.711 1.142-3.0235 1.142-1.3125 0-2.3203-.381-3.0234-1.142-.7031-.762-1.0547-1.856-1.0547-3.282 0-1.425.3516-2.513 1.0547-3.263.707-.754 1.7187-1.131 3.0352-1.131 1.3164 0 2.3222.379 3.0175 1.137.6993.757 1.0489 1.847 1.0489 3.269zm-6.252 0c0 .957.1816 1.678.5449 2.162.3633.485.9063.727 1.6289.727 1.4493 0 2.1739-.963 2.1739-2.889 0-1.93-.7207-2.894-2.1621-2.894-.7227 0-1.2676.244-1.6348.732-.3672.484-.5508 1.205-.5508 2.162zM56.4587 114h-1.8164v-7.055h-2.3261v-1.511h6.4687v1.511h-2.3262V114zm10.5704 0h-2.0743l-1.9922-3.24-1.9921 3.24h-1.9454l2.8418-4.418-2.6601-4.148h2.0039l1.8457 3.082 1.8105-3.082h1.9571l-2.6895 4.248L67.0291 114zM50 69a15.9999 15.9999 0 0016-16H50V37a15.9999 15.9999 0 00-11.3137 27.3137A15.9999 15.9999 0 0050 69z" fill="#fff"/><path d="M53 34v16h16a15.9999 15.9999 0 00-16-16zM75 89H25v2h50v-2zM75 83H25v2h50v-2zM75 77H25v2h50v-2z" fill="#fff"/><rect x="15" y="15" width="16" height="14" rx="2" fill="#fff"/><path d="M23.0898 26h-1.4003v-7.3652h-2.5196v-1.2012h6.4395v1.2012h-2.5196V26z" fill="#DD682B"/></svg>