<svg width="100" height="127" fill="none" xmlns="http://www.w3.org/2000/svg"><path id="Vector" d="M95 23v96c0 .796-.3161 1.559-.8787 2.121A2.9987 2.9987 0 0192 122H8a2.9987 2.9987 0 01-2.1213-.879A2.9976 2.9976 0 015 119V8a3 3 0 013-3h69l18 18z" fill="#E87616"/><path id="Vector_2" opacity=".2" d="M95 23H80a3 3 0 01-3-3V5l18 18z" fill="#000"/><g fill="#fff"><path d="M38.0527 109.465h.5977c.5586 0 .9766-.11 1.2539-.328.2773-.223.416-.545.416-.967 0-.426-.1172-.74-.3515-.943-.2305-.204-.5938-.305-1.0899-.305h-.8262v2.543zm4.1016-1.36c0 .922-.2891 1.627-.8672 2.116-.5742.488-1.3926.732-2.4551.732h-.7793V114h-1.8164v-8.566h2.7364c1.039 0 1.8281.224 2.3671.673.543.446.8145 1.112.8145 1.998zM45.5879 109.465h.5976c.5586 0 .9766-.11 1.254-.328.2773-.223.416-.545.416-.967 0-.426-.1172-.74-.3516-.943-.2305-.204-.5937-.305-1.0898-.305h-.8262v2.543zm4.1016-1.36c0 .922-.2891 1.627-.8672 2.116-.5743.488-1.3926.732-2.4551.732h-.7793V114h-1.8164v-8.566h2.7363c1.0391 0 1.8281.224 2.3672.673.543.446.8145 1.112.8145 1.998zM56.3633 111.621c0 .774-.2793 1.383-.8379 1.828-.5547.446-1.3281.668-2.3203.668-.9141 0-1.7227-.172-2.4258-.515v-1.688c.5781.258 1.0664.44 1.4648.545.4024.105.7696.158 1.1016.158.3984 0 .7031-.076.9141-.228.2148-.153.3222-.379.3222-.68 0-.168-.0468-.316-.1406-.445-.0937-.133-.2324-.26-.416-.381-.1797-.121-.5488-.315-1.1074-.58-.5235-.246-.916-.483-1.1778-.709-.2617-.227-.4707-.49-.6269-.791-.1563-.301-.2344-.653-.2344-1.055 0-.758.2559-1.353.7676-1.787.5156-.434 1.2265-.65 2.1328-.65.4453 0 .8691.052 1.2715.158.4062.105.8301.254 1.2715.445l-.586 1.412c-.457-.187-.8359-.318-1.1367-.392-.2969-.075-.5898-.112-.8789-.112-.3437 0-.6074.08-.791.24-.1836.161-.2754.37-.2754.627 0 .161.0371.301.1113.422.0742.118.1914.233.3516.346.164.109.5488.309 1.1543.598.8008.383 1.3496.767 1.6465 1.154.2968.383.4453.853.4453 1.412zM64.8418 114h-2.0742l-1.9922-3.24-1.9922 3.24h-1.9453l2.8418-4.418-2.6602-4.148h2.0039l1.8457 3.082 1.8106-3.082h1.957l-2.6894 4.248L64.8418 114z"/></g><path id="Vector_3" d="M50 69a15.9999 15.9999 0 0016-16H50V37a15.9999 15.9999 0 00-11.3137 27.3137A15.9999 15.9999 0 0050 69z" fill="#fff"/><path id="Vector_4" d="M53 34v16h16a15.9999 15.9999 0 00-16-16z" fill="#fff"/><path id="Vector_5" d="M75 89H25v2h50v-2z" fill="#fff"/><path id="Vector_6" d="M75 83H25v2h50v-2z" fill="#fff"/><path id="Vector_7" d="M75 77H25v2h50v-2z" fill="#fff"/></svg>