<svg xmlns="http://www.w3.org/2000/svg" width="100" height="127"><path d="M95 23v96c0 .796-.3161 1.559-.8787 2.121A2.9987 2.9987 0 0192 122H8a2.9987 2.9987 0 01-2.1213-.879A2.9976 2.9976 0 015 119V8a3 3 0 013-3h69l18 18z" fill="#DD682B"/><path opacity=".2" d="M95 23H80a3 3 0 01-3-3V5l18 18z"/><path d="M37.8845 109.465h.5977c.5586 0 .9765-.11 1.2539-.328.2773-.223.416-.545.416-.967 0-.426-.1172-.74-.3516-.943-.2304-.204-.5937-.305-1.0898-.305h-.8262v2.543zm4.1016-1.36c0 .922-.2891 1.627-.8672 2.116-.5742.488-1.3926.732-2.4551.732h-.7793V114h-1.8164v-8.566h2.7363c1.0391 0 1.8282.224 2.3672.673.543.446.8145 1.112.8145 1.998zm3.4336 1.36h.5976c.5586 0 .9766-.11 1.2539-.328.2774-.223.4161-.545.4161-.967 0-.426-.1172-.74-.3516-.943-.2305-.204-.5938-.305-1.0899-.305h-.8261v2.543zm4.1015-1.36c0 .922-.289 1.627-.8671 2.116-.5743.488-1.3926.732-2.4551.732h-.7793V114h-1.8164v-8.566h2.7363c1.0391 0 1.8281.224 2.3672.673.543.446.8144 1.112.8144 1.998zM54.4431 114h-1.8164v-7.055h-2.3262v-1.511h6.4688v1.511h-2.3262V114zm10.5703 0h-2.0742l-1.9922-3.24-1.9922 3.24h-1.9453l2.8418-4.418-2.6601-4.148h2.0039l1.8457 3.082 1.8105-3.082h1.957l-2.6894 4.248L65.0134 114zM50 69a15.9999 15.9999 0 0016-16H50V37a15.9999 15.9999 0 00-11.3137 27.3137A15.9999 15.9999 0 0050 69z" fill="#fff"/><path d="M53 34v16h16a15.9999 15.9999 0 00-16-16zM75 89H25v2h50v-2zM75 83H25v2h50v-2zM75 77H25v2h50v-2z" fill="#fff"/></svg>