<svg xmlns="http://www.w3.org/2000/svg" width="100" height="127"><path d="M95 23v96c0 .796-.3161 1.559-.8787 2.121A2.9987 2.9987 0 0192 122H8a2.9987 2.9987 0 01-2.1213-.879A2.9976 2.9976 0 015 119V8a3 3 0 013-3h69l18 18z" fill="#7C7C7D"/><path opacity=".2" d="M95 23H80a3 3 0 01-3-3V5l18 18z"/><path d="M43.4329 114h-1.8164v-7.055h-2.3262v-1.511h6.4687v1.511h-2.3261V114zm10.5703 0H51.929l-1.9922-3.24-1.9922 3.24h-1.9453l2.8418-4.418-2.6602-4.148h2.0039l1.8457 3.082 1.8106-3.082h1.957l-2.6895 4.248L54.0032 114zm4.3828 0h-1.8164v-7.055h-2.3262v-1.511h6.4688v1.511H58.386V114zM74 38H25v2h49v-2zM74 44H25v2h49v-2zM74 50H25v2h49v-2zM74 56H25v2h49v-2zM74 62H25v2h49v-2zM74 68H25v2h49v-2zM74 74H25v2h49v-2zM74 80H25v2h49v-2zM74 86H25v2h49v-2z" fill="#fff"/></svg>