<svg width="100" height="127" fill="none" xmlns="http://www.w3.org/2000/svg"><path d="M95 23v96c0 .796-.3161 1.559-.8787 2.121A2.9987 2.9987 0 0192 122H8a2.9987 2.9987 0 01-2.1213-.879A2.9976 2.9976 0 015 119V8a3 3 0 013-3h69l18 18z" fill="#1F7244"/><path opacity=".2" d="M95 23H80a3 3 0 01-3-3V5l18 18z" fill="#000"/><path d="M42.4446 114h-2.0742l-1.9922-3.24L36.386 114h-1.9453l2.8418-4.418-2.6602-4.148h2.0039l1.8457 3.082 1.8106-3.082h1.957l-2.6895 4.248L42.4446 114zm1.0781 0v-8.566h1.8164v7.066h3.4746v1.5h-5.291zm11.8418-2.379c0 .774-.2793 1.383-.8379 1.828-.5547.446-1.3281.668-2.3203.668-.9141 0-1.7227-.172-2.4258-.515v-1.688c.5781.258 1.0664.44 1.4649.545.4023.105.7695.158 1.1015.158.3985 0 .7031-.076.9141-.228.2148-.153.3223-.379.3223-.68 0-.168-.0469-.316-.1407-.445-.0937-.133-.2324-.26-.416-.381-.1797-.121-.5488-.315-1.1074-.58-.5234-.246-.916-.483-1.1777-.709-.2618-.227-.4707-.49-.627-.791-.1562-.301-.2344-.653-.2344-1.055 0-.758.2559-1.353.7676-1.787.5156-.434 1.2266-.65 2.1328-.65.4453 0 .8692.052 1.2715.158.4063.105.8301.254 1.2715.445l-.586 1.412c-.457-.187-.8359-.318-1.1367-.392-.2968-.075-.5898-.112-.8789-.112-.3437 0-.6074.08-.791.24-.1836.161-.2754.37-.2754.627 0 .161.0371.301.1113.422.0743.118.1915.233.3516.346.1641.109.5488.309 1.1543.598.8008.383 1.3496.767 1.6465 1.154.2969.383.4453.853.4453 1.412zM60.5442 114l-2.0625-6.721h-.0527c.0742 1.367.1113 2.28.1113 2.737V114h-1.6231v-8.566h2.4727l2.0273 6.55h.0352l2.1504-6.55h2.4726V114h-1.6933v-4.055c0-.191.0019-.412.0058-.662.0079-.25.0352-.914.0821-1.992h-.0528L62.2083 114h-1.6641zM52.75 61.63L64 45h-5.5L50 57.56 41.5 45H36l11.25 16.63L35.5 79H41l9-13.3L59 79h5.5L52.75 61.63zM15 15c0-1.1046.8954-2 2-2h12c1.1046 0 2 .8954 2 2v9c0 1.1046-.8954 2-2 2H17c-1.1046 0-2-.8954-2-2v-9z" fill="#fff"/><path d="M22.2969 24l-2.4844-7.1543h-.0469c.0664 1.0625.0996 2.0586.0996 2.9883V24h-1.2714v-8.5664h1.9746l2.3789 6.8144h.0351l2.4492-6.8144h1.9805V24h-1.3476v-4.2363c0-.4258.0097-.9805.0293-1.6641.0234-.6836.0429-1.0976.0585-1.2422h-.0468L23.5332 24h-1.2363z" fill="#1F7244"/></svg>