<svg xmlns="http://www.w3.org/2000/svg" width="100" height="127"><path d="M95 23v96c0 .796-.3161 1.559-.8787 2.121A2.9987 2.9987 0 0192 122H8a2.9987 2.9987 0 01-2.1213-.879A2.9976 2.9976 0 015 119V8a3 3 0 013-3h69l18 18z" fill="#1F7244"/><path opacity=".2" d="M95 23H80a3 3 0 01-3-3V5l18 18z"/><path d="M43.304 114h-2.0743l-1.9922-3.24-1.9921 3.24H35.3l2.8418-4.418-2.6601-4.148h2.0039l1.8457 3.082 1.8105-3.082h1.9571l-2.6895 4.248L43.304 114zm1.0781 0v-8.566h1.8164v7.066h3.4746v1.5h-5.291zm10.0898 0h-1.8164v-7.055h-2.3262v-1.511h6.4688v1.511h-2.3262V114zm10.5703 0H62.968l-1.9922-3.24-1.9922 3.24h-1.9453l2.8418-4.418-2.6601-4.148h2.0039l1.8457 3.082 1.8105-3.082h1.9571l-2.6895 4.248L65.0422 114zM52.75 61.63L64 45h-5.5L50 57.56 41.5 45H36l11.25 16.63L35.5 79H41l9-13.3L59 79h5.5L52.75 61.63z" fill="#fff"/><rect x="15" y="15" width="16" height="14" rx="2" fill="#fff"/><path d="M23.0898 26h-1.4003v-7.3652h-2.5196v-1.2012h6.4395v1.2012h-2.5196V26z" fill="#1F7244"/></svg>