<svg aria-hidden="true" style="position:absolute;width:0;height:0" xmlns="http://www.w3.org/2000/svg" overflow="hidden"><symbol id="bar-solid-blue" viewBox="0 0 25 25"><path id="Rectangle 874" fill="#fff" stroke="#888" d="M2.5 2.5h20v5h-20z"/><path id="Rectangle 878" fill="#fff" stroke="#888" d="M2.5 7.5h20v5h-20z"/><path id="Rectangle 882" fill="#fff" stroke="#888" d="M2.5 12.5h20v5h-20z"/><path id="Rectangle 879" fill="#4D82B8" d="M3 8h5v4H3z"/><path id="Rectangle 883" fill="#4D82B8" d="M3 13h10v4H3z"/><path id="Rectangle 880" fill="#4D82B8" d="M3 3h14v4H3z"/><path id="Rectangle 882_2" fill="#fff" stroke="#888" d="M2.5 17.5h20v5h-20z"/><path id="Rectangle 883_2" fill="#4D82B8" d="M3 18h19v4H3z"/></symbol><symbol id="bar-solid-green" viewBox="0 0 25 25"><path id="Rectangle 874" fill="#fff" stroke="#888" d="M2.5 2.5h20v5h-20z"/><path id="Rectangle 878" fill="#fff" stroke="#888" d="M2.5 7.5h20v5h-20z"/><path id="Rectangle 882" fill="#fff" stroke="#888" d="M2.5 12.5h20v5h-20z"/><path id="Rectangle 879" fill="#63C384" d="M3 8h5v4H3z"/><path id="Rectangle 883" fill="#63C384" d="M3 13h10v4H3z"/><path id="Rectangle 880" fill="#63C384" d="M3 3h14v4H3z"/><path id="Rectangle 882_2" fill="#fff" stroke="#888" d="M2.5 17.5h20v5h-20z"/><path id="Rectangle 883_2" fill="#63C384" d="M3 18h19v4H3z"/></symbol><symbol id="bar-solid-lightblue" viewBox="0 0 25 25"><path id="Rectangle 874" fill="#fff" stroke="#888" d="M2.5 2.5h20v5h-20z"/><path id="Rectangle 878" fill="#fff" stroke="#888" d="M2.5 7.5h20v5h-20z"/><path id="Rectangle 882" fill="#fff" stroke="#888" d="M2.5 12.5h20v5h-20z"/><path id="Rectangle 879" fill="#008AEF" d="M3 8h5v4H3z"/><path id="Rectangle 883" fill="#008AEF" d="M3 13h10v4H3z"/><path id="Rectangle 880" fill="#008AEF" d="M3 3h14v4H3z"/><path id="Rectangle 882_2" fill="#fff" stroke="#888" d="M2.5 17.5h20v5h-20z"/><path id="Rectangle 883_2" fill="#008AEF" d="M3 18h19v4H3z"/></symbol><symbol id="bar-solid-purple" viewBox="0 0 25 25"><path id="Rectangle 874" fill="#fff" stroke="#888" d="M2.5 2.5h20v5h-20z"/><path id="Rectangle 878" fill="#fff" stroke="#888" d="M2.5 7.5h20v5h-20z"/><path id="Rectangle 882" fill="#fff" stroke="#888" d="M2.5 12.5h20v5h-20z"/><path id="Rectangle 879" fill="#D6007B" d="M3 8h5v4H3z"/><path id="Rectangle 883" fill="#D6007B" d="M3 13h10v4H3z"/><path id="Rectangle 880" fill="#D6007B" d="M3 3h14v4H3z"/><path id="Rectangle 882_2" fill="#fff" stroke="#888" d="M2.5 17.5h20v5h-20z"/><path id="Rectangle 883_2" fill="#D6007B" d="M3 18h19v4H3z"/></symbol><symbol id="bar-solid-red" viewBox="0 0 25 25"><path id="Rectangle 874" fill="#fff" stroke="#888" d="M2.5 2.5h20v5h-20z"/><path id="Rectangle 878" fill="#fff" stroke="#888" d="M2.5 7.5h20v5h-20z"/><path id="Rectangle 882" fill="#fff" stroke="#888" d="M2.5 12.5h20v5h-20z"/><path id="Rectangle 879" fill="#FF555A" d="M3 8h5v4H3z"/><path id="Rectangle 883" fill="#FF555A" d="M3 13h10v4H3z"/><path id="Rectangle 880" fill="#FF555A" d="M3 3h14v4H3z"/><path id="Rectangle 882_2" fill="#fff" stroke="#888" d="M2.5 17.5h20v5h-20z"/><path id="Rectangle 883_2" fill="#FF555A" d="M3 18h19v4H3z"/></symbol><symbol id="bar-solid-yellow" viewBox="0 0 25 25"><path id="Rectangle 874" fill="#fff" stroke="#888" d="M2.5 2.5h20v5h-20z"/><path id="Rectangle 878" fill="#fff" stroke="#888" d="M2.5 7.5h20v5h-20z"/><path id="Rectangle 882" fill="#fff" stroke="#888" d="M2.5 12.5h20v5h-20z"/><path id="Rectangle 879" fill="#FFB628" d="M3 8h5v4H3z"/><path id="Rectangle 883" fill="#FFB628" d="M3 13h10v4H3z"/><path id="Rectangle 880" fill="#FFB628" d="M3 3h14v4H3z"/><path id="Rectangle 882_2" fill="#fff" stroke="#888" d="M2.5 17.5h20v5h-20z"/><path id="Rectangle 883_2" fill="#FFB628" d="M3 18h19v4H3z"/></symbol><symbol id="color-scale-blue-white-red" viewBox="0 0 25 25"><path id="Rectangle 874" stroke="#888" d="M2.5 2.5h20v5h-20z"/><path id="Rectangle 878" stroke="#888" d="M2.5 7.5h20v5h-20z"/><path id="Rectangle 882" stroke="#888" d="M2.5 12.5h20v5h-20z"/><path id="Rectangle 879" fill="#ABC3E3" d="M3 8h19v4H3z"/><path id="Rectangle 883" fill="#fff" d="M3 13h19v4H3z"/><path id="Rectangle 880" fill="#5A8AC6" d="M3 3h19v4H3z"/><path id="Rectangle 882_2" stroke="#888" d="M2.5 17.5h20v5h-20z"/><path id="Rectangle 883_2" fill="#F8696B" d="M3 18h19v4H3z"/></symbol><symbol id="color-scale-green-white" viewBox="0 0 25 25"><path id="Rectangle 874" stroke="#888" d="M2.5 2.5h20v5h-20z"/><path id="Rectangle 878" stroke="#888" d="M2.5 7.5h20v5h-20z"/><path id="Rectangle 882" stroke="#888" d="M2.5 12.5h20v5h-20z"/><path id="Rectangle 879" fill="#8ACE9C" d="M3 8h19v4H3z"/><path id="Rectangle 883" fill="#D6EDDE" d="M3 13h19v4H3z"/><path id="Rectangle 880" fill="#63BE7B" d="M3 3h19v4H3z"/><path id="Rectangle 882_2" stroke="#888" d="M2.5 17.5h20v5h-20z"/><path id="Rectangle 883_2" fill="#fff" d="M3 18h19v4H3z"/></symbol><symbol id="color-scale-green-white-red" viewBox="0 0 25 25"><path id="Rectangle 874" stroke="#888" d="M2.5 2.5h20v5h-20z"/><path id="Rectangle 878" stroke="#888" d="M2.5 7.5h20v5h-20z"/><path id="Rectangle 882" stroke="#888" d="M2.5 12.5h20v5h-20z"/><path id="Rectangle 879" fill="#B0DDBD" d="M3 8h19v4H3z"/><path id="Rectangle 883" fill="#fff" d="M3 13h19v4H3z"/><path id="Rectangle 880" fill="#63BE7B" d="M3 3h19v4H3z"/><path id="Rectangle 882_2" stroke="#888" d="M2.5 17.5h20v5h-20z"/><path id="Rectangle 883_2" fill="#F8696B" d="M3 18h19v4H3z"/></symbol><symbol id="color-scale-green-yellow" viewBox="0 0 25 25"><path id="Rectangle 874" stroke="#888" d="M2.5 2.5h20v5h-20z"/><path id="Rectangle 878" stroke="#888" d="M2.5 7.5h20v5h-20z"/><path id="Rectangle 882" stroke="#888" d="M2.5 12.5h20v5h-20z"/><path id="Rectangle 879" fill="#8ACB84" d="M3 8h19v4H3z"/><path id="Rectangle 883" fill="#D8E394" d="M3 13h19v4H3z"/><path id="Rectangle 880" fill="#63BE7B" d="M3 3h19v4H3z"/><path id="Rectangle 882_2" stroke="#888" d="M2.5 17.5h20v5h-20z"/><path id="Rectangle 883_2" fill="#FFEF9C" d="M3 18h19v4H3z"/></symbol><symbol id="color-scale-green-yellow-red" viewBox="0 0 25 25"><path id="Rectangle 874" stroke="#888" d="M2.5 2.5h20v5h-20z"/><path id="Rectangle 878" stroke="#888" d="M2.5 7.5h20v5h-20z"/><path id="Rectangle 882" stroke="#888" d="M2.5 12.5h20v5h-20z"/><path id="Rectangle 879" fill="#FFEB84" d="M3 8h19v4H3z"/><path id="Rectangle 883" fill="#FBAA77" d="M3 13h19v4H3z"/><path id="Rectangle 880" fill="#63BE7B" d="M3 3h19v4H3z"/><path id="Rectangle 882_2" stroke="#888" d="M2.5 17.5h20v5h-20z"/><path id="Rectangle 883_2" fill="#F8696B" d="M3 18h19v4H3z"/></symbol><symbol id="color-scale-red-white" viewBox="0 0 25 25"><path id="Rectangle 874" stroke="#888" d="M2.5 2.5h20v5h-20z"/><path id="Rectangle 878" stroke="#888" d="M2.5 7.5h20v5h-20z"/><path id="Rectangle 882" stroke="#888" d="M2.5 12.5h20v5h-20z"/><path id="Rectangle 879" fill="#F98E90" d="M3 8h19v4H3z"/><path id="Rectangle 883" fill="#FBD8DA" d="M3 13h19v4H3z"/><path id="Rectangle 880" fill="#F8696B" d="M3 3h19v4H3z"/><path id="Rectangle 882_2" stroke="#888" d="M2.5 17.5h20v5h-20z"/><path id="Rectangle 883_2" fill="#fff" d="M3 18h19v4H3z"/></symbol><symbol id="color-scale-red-white-blue" viewBox="0 0 25 25"><path id="Rectangle 874" stroke="#888" d="M2.5 2.5h20v5h-20z"/><path id="Rectangle 878" stroke="#888" d="M2.5 7.5h20v5h-20z"/><path id="Rectangle 882" stroke="#888" d="M2.5 12.5h20v5h-20z"/><path id="Rectangle 879" fill="#fff" d="M3 8h19v4H3z"/><path id="Rectangle 883" fill="#ABC3E3" d="M3 13h19v4H3z"/><path id="Rectangle 880" fill="#F8696B" d="M3 3h19v4H3z"/><path id="Rectangle 882_2" stroke="#888" d="M2.5 17.5h20v5h-20z"/><path id="Rectangle 883_2" fill="#5A8AC6" d="M3 18h19v4H3z"/></symbol><symbol id="color-scale-red-white-green" viewBox="0 0 25 25"><path id="Rectangle 874" stroke="#888" d="M2.5 2.5h20v5h-20z"/><path id="Rectangle 878" stroke="#888" d="M2.5 7.5h20v5h-20z"/><path id="Rectangle 882" stroke="#888" d="M2.5 12.5h20v5h-20z"/><path id="Rectangle 879" fill="#fff" d="M3 8h19v4H3z"/><path id="Rectangle 883" fill="#B0DDBD" d="M3 13h19v4H3z"/><path id="Rectangle 880" fill="#F8696B" d="M3 3h19v4H3z"/><path id="Rectangle 882_2" stroke="#888" d="M2.5 17.5h20v5h-20z"/><path id="Rectangle 883_2" fill="#63BE7B" d="M3 18h19v4H3z"/></symbol><symbol id="color-scale-red-yellow-green" viewBox="0 0 25 25"><path id="Rectangle 874" stroke="#888" d="M2.5 2.5h20v5h-20z"/><path id="Rectangle 878" stroke="#888" d="M2.5 7.5h20v5h-20z"/><path id="Rectangle 882" stroke="#888" d="M2.5 12.5h20v5h-20z"/><path id="Rectangle 879" fill="#FBAA77" d="M3 8h19v4H3z"/><path id="Rectangle 883" fill="#FFEB84" d="M3 13h19v4H3z"/><path id="Rectangle 880" fill="#F8696B" d="M3 3h19v4H3z"/><path id="Rectangle 882_2" stroke="#888" d="M2.5 17.5h20v5h-20z"/><path id="Rectangle 883_2" fill="#63BE7B" d="M3 18h19v4H3z"/></symbol><symbol id="color-scale-white-green" viewBox="0 0 25 25"><path id="Rectangle 874" stroke="#888" d="M2.5 2.5h20v5h-20z"/><path id="Rectangle 878" stroke="#888" d="M2.5 7.5h20v5h-20z"/><path id="Rectangle 882" stroke="#888" d="M2.5 12.5h20v5h-20z"/><path id="Rectangle 879" fill="#D6EDDE" d="M3 8h19v4H3z"/><path id="Rectangle 883" fill="#8ACE9C" d="M3 13h19v4H3z"/><path id="Rectangle 880" fill="#fff" d="M3 3h19v4H3z"/><path id="Rectangle 882_2" stroke="#888" d="M2.5 17.5h20v5h-20z"/><path id="Rectangle 883_2" fill="#63BE7B" d="M3 18h19v4H3z"/></symbol><symbol id="color-scale-white-red" viewBox="0 0 25 25"><path id="Rectangle 874" stroke="#888" d="M2.5 2.5h20v5h-20z"/><path id="Rectangle 878" stroke="#888" d="M2.5 7.5h20v5h-20z"/><path id="Rectangle 882" stroke="#888" d="M2.5 12.5h20v5h-20z"/><path id="Rectangle 879" fill="#FBD8DA" d="M3 8h19v4H3z"/><path id="Rectangle 883" fill="#F98E90" d="M3 13h19v4H3z"/><path id="Rectangle 880" fill="#fff" d="M3 3h19v4H3z"/><path id="Rectangle 882_2" stroke="#888" d="M2.5 17.5h20v5h-20z"/><path id="Rectangle 883_2" fill="#F8696B" d="M3 18h19v4H3z"/></symbol><symbol id="color-scale-yellow-green" viewBox="0 0 25 25"><path id="Rectangle 874" stroke="#888" d="M2.5 2.5h20v5h-20z"/><path id="Rectangle 878" stroke="#888" d="M2.5 7.5h20v5h-20z"/><path id="Rectangle 882" stroke="#888" d="M2.5 12.5h20v5h-20z"/><path id="Rectangle 879" fill="#D8E394" d="M3 8h19v4H3z"/><path id="Rectangle 883" fill="#8ACB84" d="M3 13h19v4H3z"/><path id="Rectangle 880" fill="#FFEF9C" d="M3 3h19v4H3z"/><path id="Rectangle 882_2" stroke="#888" d="M2.5 17.5h20v5h-20z"/><path id="Rectangle 883_2" fill="#63BE7B" d="M3 18h19v4H3z"/></symbol><symbol id="bar-gradient-blue" viewBox="0 0 25 25"><path id="Rectangle 874" fill="#fff" stroke="#888" d="M2.5 2.5h20v5h-20z"/><path id="Rectangle 878" fill="#fff" stroke="#888" d="M2.5 7.5h20v5h-20z"/><path id="Rectangle 882" fill="#fff" stroke="#888" d="M2.5 12.5h20v5h-20z"/><path id="Rectangle 879" fill="url(#paint0_linear)" d="M3 8h5v4H3z"/><path id="Rectangle 883" fill="url(#paint1_linear)" d="M3 13h10v4H3z"/><path id="Rectangle 880" fill="url(#paint2_linear)" d="M3 3h14v4H3z"/><path id="Rectangle 882_2" fill="#fff" stroke="#888" d="M2.5 17.5h20v5h-20z"/><path id="Rectangle 883_2" fill="url(#paint3_linear)" d="M3 18h19v4H3z"/><defs><linearGradient id="paint0_linear" x1="3.75" y1="10" x2="7.75" y2="10.008" gradientUnits="userSpaceOnUse"><stop stop-color="#4D82B8"/><stop offset="1" stop-color="#fff" stop-opacity="0"/></linearGradient><linearGradient id="paint1_linear" x1="4.5" y1="15" x2="12.5" y2="15.03" gradientUnits="userSpaceOnUse"><stop stop-color="#4D82B8"/><stop offset="1" stop-color="#fff" stop-opacity="0"/></linearGradient><linearGradient id="paint2_linear" x1="5.1" y1="5" x2="16.3" y2="5.059" gradientUnits="userSpaceOnUse"><stop stop-color="#4D82B8"/><stop offset="1" stop-color="#fff" stop-opacity="0"/></linearGradient><linearGradient id="paint3_linear" x1="5.85" y1="20" x2="21.049" y2="20.108" gradientUnits="userSpaceOnUse"><stop stop-color="#4D82B8"/><stop offset="1" stop-color="#fff" stop-opacity="0"/></linearGradient></defs></symbol><symbol id="bar-gradient-green" viewBox="0 0 25 25"><path id="Rectangle 874" fill="#fff" stroke="#888" d="M2.5 2.5h20v5h-20z"/><path id="Rectangle 878" fill="#fff" stroke="#888" d="M2.5 7.5h20v5h-20z"/><path id="Rectangle 882" fill="#fff" stroke="#888" d="M2.5 12.5h20v5h-20z"/><path id="Rectangle 879" fill="url(#paint10_linear)" d="M3 8h5v4H3z"/><path id="Rectangle 883" fill="url(#paint11_linear)" d="M3 13h10v4H3z"/><path id="Rectangle 880" fill="url(#paint12_linear)" d="M3 3h14v4H3z"/><path id="Rectangle 882_2" fill="#fff" stroke="#888" d="M2.5 17.5h20v5h-20z"/><path id="Rectangle 883_2" fill="url(#paint13_linear)" d="M3 18h19v4H3z"/><defs><linearGradient id="paint10_linear" x1="3.75" y1="10" x2="7.75" y2="10" gradientUnits="userSpaceOnUse"><stop stop-color="#63C384"/><stop offset="1" stop-color="#fff" stop-opacity="0"/></linearGradient><linearGradient id="paint11_linear" x1="4.5" y1="15" x2="12.5" y2="15" gradientUnits="userSpaceOnUse"><stop stop-color="#63C384"/><stop offset="1" stop-color="#fff" stop-opacity="0"/></linearGradient><linearGradient id="paint12_linear" x1="5.1" y1="5" x2="16.3" y2="5" gradientUnits="userSpaceOnUse"><stop stop-color="#63C384"/><stop offset="1" stop-color="#fff" stop-opacity="0"/></linearGradient><linearGradient id="paint13_linear" x1="5.85" y1="20" x2="21.05" y2="20" gradientUnits="userSpaceOnUse"><stop stop-color="#63C384"/><stop offset="1" stop-color="#fff" stop-opacity="0"/></linearGradient></defs></symbol><symbol id="bar-gradient-lightblue" viewBox="0 0 25 25"><path id="Rectangle 874" fill="#fff" stroke="#888" d="M2.5 2.5h20v5h-20z"/><path id="Rectangle 878" fill="#fff" stroke="#888" d="M2.5 7.5h20v5h-20z"/><path id="Rectangle 882" fill="#fff" stroke="#888" d="M2.5 12.5h20v5h-20z"/><path id="Rectangle 879" fill="url(#paint20_linear)" d="M3 8h5v4H3z"/><path id="Rectangle 883" fill="url(#paint21_linear)" d="M3 13h10v4H3z"/><path id="Rectangle 880" fill="url(#paint22_linear)" d="M3 3h14v4H3z"/><path id="Rectangle 882_2" fill="#fff" stroke="#888" d="M2.5 17.5h20v5h-20z"/><path id="Rectangle 883_2" fill="url(#paint23_linear)" d="M3 18h19v4H3z"/><defs><linearGradient id="paint20_linear" x1="3.75" y1="10" x2="7.75" y2="10" gradientUnits="userSpaceOnUse"><stop stop-color="#008AEF"/><stop offset="1" stop-color="#fff" stop-opacity="0"/></linearGradient><linearGradient id="paint21_linear" x1="4.5" y1="15" x2="12.5" y2="15" gradientUnits="userSpaceOnUse"><stop stop-color="#008AEF"/><stop offset="1" stop-color="#fff" stop-opacity="0"/></linearGradient><linearGradient id="paint22_linear" x1="5.1" y1="5" x2="16.3" y2="5" gradientUnits="userSpaceOnUse"><stop stop-color="#008AEF"/><stop offset="1" stop-color="#fff" stop-opacity="0"/></linearGradient><linearGradient id="paint23_linear" x1="5.85" y1="20" x2="21.05" y2="20" gradientUnits="userSpaceOnUse"><stop stop-color="#008AEF"/><stop offset="1" stop-color="#fff" stop-opacity="0"/></linearGradient></defs></symbol><symbol id="bar-gradient-purple" viewBox="0 0 25 25"><path id="Rectangle 874" fill="#fff" stroke="#888" d="M2.5 2.5h20v5h-20z"/><path id="Rectangle 878" fill="#fff" stroke="#888" d="M2.5 7.5h20v5h-20z"/><path id="Rectangle 882" fill="#fff" stroke="#888" d="M2.5 12.5h20v5h-20z"/><path id="Rectangle 879" fill="url(#paint30_linear)" d="M3 8h5v4H3z"/><path id="Rectangle 883" fill="url(#paint31_linear)" d="M3 13h10v4H3z"/><path id="Rectangle 880" fill="url(#paint32_linear)" d="M3 3h14v4H3z"/><path id="Rectangle 882_2" fill="#fff" stroke="#888" d="M2.5 17.5h20v5h-20z"/><path id="Rectangle 883_2" fill="url(#paint33_linear)" d="M3 18h19v4H3z"/><defs><linearGradient id="paint30_linear" x1="3.25" y1="10" x2="7.75" y2="10" gradientUnits="userSpaceOnUse"><stop stop-color="#D6007B"/><stop offset="1" stop-color="#fff" stop-opacity="0"/></linearGradient><linearGradient id="paint31_linear" x1="3.5" y1="15" x2="12.5" y2="15" gradientUnits="userSpaceOnUse"><stop stop-color="#D6007B"/><stop offset="1" stop-color="#fff" stop-opacity="0"/></linearGradient><linearGradient id="paint32_linear" x1="3.7" y1="5" x2="16.3" y2="5" gradientUnits="userSpaceOnUse"><stop stop-color="#D6007B"/><stop offset="1" stop-color="#fff" stop-opacity="0"/></linearGradient><linearGradient id="paint33_linear" x1="3.95" y1="20" x2="21.05" y2="20" gradientUnits="userSpaceOnUse"><stop stop-color="#D6007B"/><stop offset="1" stop-color="#fff" stop-opacity="0"/></linearGradient></defs></symbol><symbol id="bar-gradient-red" viewBox="0 0 25 25"><path id="Rectangle 874" fill="#fff" stroke="#888" d="M2.5 2.5h20v5h-20z"/><path id="Rectangle 878" fill="#fff" stroke="#888" d="M2.5 7.5h20v5h-20z"/><path id="Rectangle 882" fill="#fff" stroke="#888" d="M2.5 12.5h20v5h-20z"/><path id="Rectangle 879" fill="url(#paint40_linear)" d="M3 8h5v4H3z"/><path id="Rectangle 883" fill="url(#paint41_linear)" d="M3 13h10v4H3z"/><path id="Rectangle 880" fill="url(#paint42_linear)" d="M3 3h14v4H3z"/><path id="Rectangle 882_2" fill="#fff" stroke="#888" d="M2.5 17.5h20v5h-20z"/><path id="Rectangle 883_2" fill="url(#paint43_linear)" d="M3 18h19v4H3z"/><defs><linearGradient id="paint40_linear" x1="3.75" y1="10" x2="7.75" y2="10" gradientUnits="userSpaceOnUse"><stop stop-color="#FF555A"/><stop offset="1" stop-color="#fff" stop-opacity="0"/></linearGradient><linearGradient id="paint41_linear" x1="4.5" y1="15" x2="12.5" y2="15" gradientUnits="userSpaceOnUse"><stop stop-color="#FF555A"/><stop offset="1" stop-color="#fff" stop-opacity="0"/></linearGradient><linearGradient id="paint42_linear" x1="5.1" y1="5" x2="16.3" y2="5" gradientUnits="userSpaceOnUse"><stop stop-color="#FF555A"/><stop offset="1" stop-color="#fff" stop-opacity="0"/></linearGradient><linearGradient id="paint43_linear" x1="5.85" y1="20" x2="21.05" y2="20" gradientUnits="userSpaceOnUse"><stop stop-color="#FF555A"/><stop offset="1" stop-color="#fff" stop-opacity="0"/></linearGradient></defs></symbol><symbol id="bar-gradient-yellow" viewBox="0 0 25 25"><path id="Rectangle 874" fill="#fff" stroke="#888" d="M2.5 2.5h20v5h-20z"/><path id="Rectangle 878" fill="#fff" stroke="#888" d="M2.5 7.5h20v5h-20z"/><path id="Rectangle 882" fill="#fff" stroke="#888" d="M2.5 12.5h20v5h-20z"/><path id="Rectangle 879" fill="url(#paint50_linear)" d="M3 8h5v4H3z"/><path id="Rectangle 883" fill="url(#paint51_linear)" d="M3 13h10v4H3z"/><path id="Rectangle 880" fill="url(#paint52_linear)" d="M3 3h14v4H3z"/><path id="Rectangle 882_2" fill="#fff" stroke="#888" d="M2.5 17.5h20v5h-20z"/><path id="Rectangle 883_2" fill="url(#paint53_linear)" d="M3 18h19v4H3z"/><defs><linearGradient id="paint50_linear" x1="3.75" y1="10" x2="7.75" y2="10.008" gradientUnits="userSpaceOnUse"><stop stop-color="#FFB628"/><stop offset="1" stop-color="#fff" stop-opacity="0"/></linearGradient><linearGradient id="paint51_linear" x1="4.5" y1="15" x2="12.5" y2="15.03" gradientUnits="userSpaceOnUse"><stop stop-color="#FFB628"/><stop offset="1" stop-color="#fff" stop-opacity="0"/></linearGradient><linearGradient id="paint52_linear" x1="5.1" y1="5" x2="16.3" y2="5.059" gradientUnits="userSpaceOnUse"><stop stop-color="#FFB628"/><stop offset="1" stop-color="#fff" stop-opacity="0"/></linearGradient><linearGradient id="paint53_linear" x1="5.85" y1="20" x2="21.049" y2="20.108" gradientUnits="userSpaceOnUse"><stop stop-color="#FFB628"/><stop offset="1" stop-color="#fff" stop-opacity="0"/></linearGradient></defs></symbol></svg>